<svg width="831" height="436" viewBox="0 0 831 436" fill="none" xmlns="http://www.w3.org/2000/svg">
<path d="M88.94 96H86.8087V98.1314H88.94V96ZM105.351 96V98.1314H107.483V96H105.351ZM105.351 66.0544V63.9231H103.22V66.0544H105.351ZM135.617 66.0544H137.748V63.9231H135.617V66.0544ZM135.617 96H133.485V98.1314H135.617V96ZM152.028 96V98.1314H154.159V96H152.028ZM152.028 21.4025H154.159V19.2712H152.028V21.4025ZM135.617 21.4025V19.2712H133.485V21.4025H135.617ZM135.617 50.9218V53.0532H137.748V50.9218H135.617ZM105.351 50.9218H103.22V53.0532H105.351V50.9218ZM105.351 21.4025H107.483V19.2712H105.351V21.4025ZM88.94 21.4025V19.2712H86.8087V21.4025H88.94ZM88.94 98.1314H105.351V93.8686H88.94V98.1314ZM107.483 96V66.0544H103.22V96H107.483ZM105.351 68.1858H135.617V63.9231H105.351V68.1858ZM133.485 66.0544V96H137.748V66.0544H133.485ZM135.617 98.1314H152.028V93.8686H135.617V98.1314ZM154.159 96V21.4025H149.897V96H154.159ZM152.028 19.2712H135.617V23.5339H152.028V19.2712ZM133.485 21.4025V50.9218H137.748V21.4025H133.485ZM135.617 48.7905H105.351V53.0532H135.617V48.7905ZM107.483 50.9218V21.4025H103.22V50.9218H107.483ZM105.351 19.2712H88.94V23.5339H105.351V19.2712ZM86.8087 21.4025V96H91.0714V21.4025H86.8087ZM190.9 96H188.769V98.1314H190.9V96ZM207.312 96V98.1314H209.443V96H207.312ZM207.312 66.2676L205.516 65.12L205.18 65.6448V66.2676H207.312ZM235.979 21.4025L237.775 22.5501L239.87 19.2712H235.979V21.4025ZM217.329 21.4025V19.2712H216.128L215.506 20.2993L217.329 21.4025ZM199.213 51.3481L197.38 52.437L199.196 55.4925L201.036 52.4513L199.213 51.3481ZM181.416 21.4025L183.248 20.3137L182.629 19.2712H181.416V21.4025ZM162.234 21.4025V19.2712H158.357L160.434 22.5443L162.234 21.4025ZM190.9 66.5873H193.032V65.9682L192.7 65.4455L190.9 66.5873ZM190.9 98.1314H207.312V93.8686H190.9V98.1314ZM209.443 96V66.2676H205.18V96H209.443ZM209.108 67.4152L237.775 22.5501L234.183 20.255L205.516 65.12L209.108 67.4152ZM235.979 19.2712H217.329V23.5339H235.979V19.2712ZM215.506 20.2993L197.389 50.2448L201.036 52.4513L219.153 22.5058L215.506 20.2993ZM201.045 50.2592L183.248 20.3137L179.584 22.4914L197.38 52.437L201.045 50.2592ZM181.416 19.2712H162.234V23.5339H181.416V19.2712ZM160.434 22.5443L189.101 67.7291L192.7 65.4455L164.033 20.2607L160.434 22.5443ZM188.769 66.5873V96H193.032V66.5873H188.769ZM246.19 96H244.059V98.1314H246.19V96ZM262.601 96V98.1314H264.733V96H262.601ZM262.601 73.6208V71.4894H260.47V73.6208H262.601ZM246.19 21.4025V19.2712H244.059V21.4025H246.19ZM262.601 59.021H260.47V61.1523H262.601V59.021ZM262.601 36.2155V34.0841H260.47V36.2155H262.601ZM246.19 98.1314H262.601V93.8686H246.19V98.1314ZM264.733 96V73.6208H260.47V96H264.733ZM262.601 75.7521H275.07V71.4894H262.601V75.7521ZM275.07 75.7521C283.79 75.7521 291.843 73.4214 297.762 68.6457C303.737 63.8248 307.36 56.6483 307.36 47.4051H303.097C303.097 55.4259 300.007 61.3572 295.085 65.3282C290.107 69.3443 283.081 71.4894 275.07 71.4894V75.7521ZM307.36 47.4051V47.1919H303.097V47.4051H307.36ZM307.36 47.1919C307.36 39.0495 304.471 32.0093 299.069 27.0172C293.681 22.0382 285.985 19.2712 276.668 19.2712V23.5339C285.148 23.5339 291.733 26.042 296.176 30.1479C300.605 34.2407 303.097 40.0952 303.097 47.1919H307.36ZM276.668 19.2712H246.19V23.5339H276.668V19.2712ZM244.059 21.4025V96H248.321V21.4025H244.059ZM264.733 59.021V36.2155H260.47V59.021H264.733ZM262.601 38.3468H275.283V34.0841H262.601V38.3468ZM275.283 38.3468C279.076 38.3468 281.862 39.2607 283.663 40.7489C285.404 42.1881 286.473 44.3686 286.473 47.5117H290.735C290.735 43.3015 289.246 39.8339 286.378 37.4633C283.57 35.1417 279.696 34.0841 275.283 34.0841V38.3468ZM286.473 47.5117V47.7248H290.735V47.5117H286.473ZM286.473 47.7248C286.473 50.3663 285.495 52.6026 283.746 54.1944C281.986 55.7963 279.281 56.8896 275.603 56.8896V61.1523C280.13 61.1523 283.926 59.7946 286.615 57.3469C289.315 54.8891 290.735 51.4773 290.735 47.7248H286.473ZM275.603 56.8896H262.601V61.1523H275.603V56.8896ZM317.374 96H315.243V98.1314H317.374V96ZM374.175 96V98.1314H376.306V96H374.175ZM374.175 81.4002H376.306V79.2689H374.175V81.4002ZM333.679 81.4002H331.547V83.5316H333.679V81.4002ZM333.679 65.7347V63.6034H331.547V65.7347H333.679ZM368.846 65.7347V67.8661H370.977V65.7347H368.846ZM368.846 51.135H370.977V49.0036H368.846V51.135ZM333.679 51.135H331.547V53.2663H333.679V51.135ZM333.679 36.0023V33.871H331.547V36.0023H333.679ZM373.642 36.0023V38.1337H375.773V36.0023H373.642ZM373.642 21.4025H375.773V19.2712H373.642V21.4025ZM317.374 21.4025V19.2712H315.243V21.4025H317.374ZM317.374 98.1314H374.175V93.8686H317.374V98.1314ZM376.306 96V81.4002H372.043V96H376.306ZM374.175 79.2689H333.679V83.5316H374.175V79.2689ZM335.81 81.4002V65.7347H331.547V81.4002H335.81ZM333.679 67.8661H368.846V63.6034H333.679V67.8661ZM370.977 65.7347V51.135H366.715V65.7347H370.977ZM368.846 49.0036H333.679V53.2663H368.846V49.0036ZM335.81 51.135V36.0023H331.547V51.135H335.81ZM333.679 38.1337H373.642V33.871H333.679V38.1337ZM375.773 36.0023V21.4025H371.51V36.0023H375.773ZM373.642 19.2712H317.374V23.5339H373.642V19.2712ZM315.243 21.4025V96H319.505V21.4025H315.243ZM388.766 96H386.635V98.1314H388.766V96ZM405.177 96V98.1314H407.309V96H405.177ZM405.177 72.1288V69.9975H403.046V72.1288H405.177ZM418.072 72.1288L419.843 70.9429L419.21 69.9975H418.072V72.1288ZM434.057 96L432.286 97.1859L432.919 98.1314H434.057V96ZM453.24 96V98.1314H457.28L454.999 94.7967L453.24 96ZM435.016 69.3581L434.275 67.3596L431.716 68.3085L433.257 70.5613L435.016 69.3581ZM388.766 21.4025V19.2712H386.635V21.4025H388.766ZM405.177 57.6356H403.046V59.767H405.177V57.6356ZM405.177 36.2155V34.0841H403.046V36.2155H405.177ZM388.766 98.1314H405.177V93.8686H388.766V98.1314ZM407.309 96V72.1288H403.046V96H407.309ZM405.177 74.2602H418.072V69.9975H405.177V74.2602ZM416.301 73.3147L432.286 97.1859L435.828 94.8141L419.843 70.9429L416.301 73.3147ZM434.057 98.1314H453.24V93.8686H434.057V98.1314ZM454.999 94.7967L436.776 68.1548L433.257 70.5613L451.48 97.2033L454.999 94.7967ZM435.757 71.3565C440.818 69.48 445.185 66.483 448.285 62.2521C451.393 58.01 453.133 52.6544 453.133 46.2328H448.87C448.87 51.8535 447.36 56.3021 444.846 59.7329C442.325 63.1748 438.699 65.7194 434.275 67.3596L435.757 71.3565ZM453.133 46.2328V46.0197H448.87V46.2328H453.133ZM453.133 46.0197C453.133 38.5245 450.738 32.0853 446.115 27.4618L443.1 30.476C446.789 34.1647 448.87 39.448 448.87 46.0197H453.133ZM446.115 27.4618C440.702 22.0491 432.739 19.2712 422.868 19.2712V23.5339C431.966 23.5339 438.709 26.0843 443.1 30.476L446.115 27.4618ZM422.868 19.2712H388.766V23.5339H422.868V19.2712ZM386.635 21.4025V96H390.897V21.4025H386.635ZM407.309 57.6356V36.2155H403.046V57.6356H407.309ZM405.177 38.3468H421.482V34.0841H405.177V38.3468ZM421.482 38.3468C425.195 38.3468 427.878 39.1929 429.593 40.5687C431.235 41.8865 432.246 43.8946 432.246 46.8722H436.508C436.508 42.8164 435.068 39.4962 432.261 37.2439C429.526 35.0497 425.762 34.0841 421.482 34.0841V38.3468ZM432.246 46.8722V47.0854H436.508V46.8722H432.246ZM432.246 47.0854C432.246 49.6787 431.32 51.7013 429.694 53.105C428.035 54.537 425.435 55.5042 421.802 55.5042V59.767C426.162 59.767 429.849 58.6028 432.48 56.3316C435.143 54.032 436.508 50.7796 436.508 47.0854H432.246ZM421.802 55.5042H405.177V59.767H421.802V55.5042ZM527.993 51.3481L528.53 49.2856L528.522 49.2834L527.993 51.3481ZM540.887 42.1833L539.673 43.9346L541.429 45.1525L542.642 43.3933L540.887 42.1833ZM549.413 29.8214L551.167 31.0314L552.292 29.4L550.747 28.1594L549.413 29.8214ZM520.32 65.8413L520.849 63.7767L520.847 63.7762L520.32 65.8413ZM502.31 73.5142L503.667 71.8704L502.032 70.5213L500.674 72.1483L502.31 73.5142ZM492.612 85.1301L490.976 83.7641L489.655 85.3468L491.193 86.7199L492.612 85.1301ZM524.263 99.197C532.651 99.197 540.02 97.032 545.335 92.712C550.705 88.3485 553.782 81.9412 553.782 73.9405H549.519C549.519 80.7526 546.949 85.9079 542.647 89.4039C538.292 92.9433 531.966 94.9343 524.263 94.9343V99.197ZM553.782 73.9405V73.7273H549.519V73.9405H553.782ZM553.782 73.7273C553.782 66.6765 551.431 61.4529 546.89 57.5283C542.481 53.7176 536.166 51.2752 528.53 49.2856L527.455 53.4106C534.952 55.364 540.466 57.6106 544.103 60.7534C547.607 63.7823 549.519 67.7769 549.519 73.7273H553.782ZM528.522 49.2834C522.001 47.6128 518.296 46.452 516.196 45.2107C515.207 44.6258 514.725 44.1054 514.459 43.6342C514.194 43.1628 514.032 42.539 514.032 41.5439H509.77C509.77 42.9998 510.007 44.4141 510.744 45.7244C511.482 47.0348 512.605 48.0397 514.027 48.8802C516.749 50.4895 521.09 51.7798 527.464 53.4128L528.522 49.2834ZM514.032 41.5439V41.3307H509.77V41.5439H514.032ZM514.032 41.3307C514.032 40.2365 514.502 39.2379 515.592 38.4454C516.733 37.6155 518.646 36.9614 521.492 36.9614V32.6987C518.05 32.6987 515.168 33.4833 513.085 34.998C510.951 36.5499 509.77 38.8016 509.77 41.3307H514.032ZM521.492 36.9614C527.162 36.9614 533.233 39.4687 539.673 43.9346L542.102 40.4319C535.327 35.733 528.397 32.6987 521.492 32.6987V36.9614ZM542.642 43.3933L551.167 31.0314L547.658 28.6114L539.133 40.9732L542.642 43.3933ZM550.747 28.1594C542.796 21.7762 533.052 18.2055 521.705 18.2055V22.4682C532.098 22.4682 540.897 25.7179 548.078 31.4834L550.747 28.1594ZM521.705 18.2055C513.679 18.2055 506.633 20.5642 501.555 24.8806C496.449 29.2219 493.465 35.4407 493.465 42.8227H497.727C497.727 36.6705 500.178 31.6464 504.316 28.1283C508.484 24.5854 514.492 22.4682 521.705 22.4682V18.2055ZM493.465 42.8227V43.0358H497.727V42.8227H493.465ZM493.465 43.0358C493.465 51.0033 496.121 56.4038 501.009 60.2326C505.706 63.9121 512.302 65.9941 519.792 67.9064L520.847 63.7762C513.311 61.8521 507.545 59.9378 503.637 56.8768C499.92 53.9653 497.727 49.8812 497.727 43.0358H493.465ZM519.79 67.9059C526.044 69.5094 529.471 70.7718 531.334 72.0023C532.213 72.5835 532.634 73.0894 532.861 73.5248C533.089 73.962 533.214 74.5067 533.214 75.3258H537.477C537.477 74.0669 537.283 72.7866 536.642 71.5554C535.999 70.3223 535.001 69.3163 533.683 68.4456C531.15 66.7721 527.064 65.3703 520.849 63.7767L519.79 67.9059ZM533.214 75.3258V75.539H537.477V75.3258H533.214ZM533.214 75.539C533.214 76.9555 532.607 78.0649 531.314 78.911C529.932 79.8163 527.699 80.4411 524.582 80.4411V84.7038C528.179 84.7038 531.329 83.9966 533.649 82.4774C536.06 80.8991 537.477 78.4917 537.477 75.539H533.214ZM524.582 80.4411C516.719 80.4411 510.151 77.2224 503.667 71.8704L500.953 75.1579C507.897 80.8891 515.395 84.7038 524.582 84.7038V80.4411ZM500.674 72.1483L490.976 83.7641L494.248 86.496L503.946 74.8801L500.674 72.1483ZM491.193 86.7199C500.56 95.0834 512.477 99.197 524.263 99.197V94.9343C513.456 94.9343 502.568 91.1619 494.032 83.5402L491.193 86.7199ZM565.893 96H563.762V98.1314H565.893V96ZM619.497 96V98.1314H621.628V96H619.497ZM619.497 81.0805H621.628V78.9492H619.497V81.0805ZM582.305 81.0805H580.173V83.2119H582.305V81.0805ZM582.305 21.4025H584.436V19.2712H582.305V21.4025ZM565.893 21.4025V19.2712H563.762V21.4025H565.893ZM565.893 98.1314H619.497V93.8686H565.893V98.1314ZM621.628 96V81.0805H617.366V96H621.628ZM619.497 78.9492H582.305V83.2119H619.497V78.9492ZM584.436 81.0805V21.4025H580.173V81.0805H584.436ZM582.305 19.2712H565.893V23.5339H582.305V19.2712ZM563.762 21.4025V96H568.025V21.4025H563.762ZM632.62 96H630.488V98.1314H632.62V96ZM649.031 96V98.1314H651.162V96H649.031ZM649.031 21.4025H651.162V19.2712H649.031V21.4025ZM632.62 21.4025V19.2712H630.488V21.4025H632.62ZM632.62 98.1314H649.031V93.8686H632.62V98.1314ZM651.162 96V21.4025H646.9V96H651.162ZM649.031 19.2712H632.62V23.5339H649.031V19.2712ZM630.488 21.4025V96H634.751V21.4025H630.488ZM667.674 96H665.543V98.1314H667.674V96ZM683.766 96V98.1314H685.897V96H683.766ZM683.766 47.6182L685.545 46.4457L681.634 40.5087V47.6182H683.766ZM704.546 79.1623L702.766 80.3348L703.398 81.2936H704.546V79.1623ZM704.973 79.1623V81.2936H706.121L706.752 80.3349L704.973 79.1623ZM725.966 47.2985H728.098V40.1897L724.187 46.1259L725.966 47.2985ZM725.966 96H723.835V98.1314H725.966V96ZM742.271 96V98.1314H744.403V96H742.271ZM742.271 21.4025H744.403V19.2712H742.271V21.4025ZM724.581 21.4025V19.2712H723.396L722.771 20.2773L724.581 21.4025ZM704.973 52.9466L703.162 54.0718L704.973 56.9838L706.783 54.0718L704.973 52.9466ZM685.364 21.4025L687.174 20.2773L686.549 19.2712H685.364V21.4025ZM667.674 21.4025V19.2712H665.543V21.4025H667.674ZM667.674 98.1314H683.766V93.8686H667.674V98.1314ZM685.897 96V47.6182H681.634V96H685.897ZM681.986 48.7908L702.766 80.3348L706.326 77.9898L685.545 46.4457L681.986 48.7908ZM704.546 81.2936H704.973V77.0309H704.546V81.2936ZM706.752 80.3349L727.746 48.4712L724.187 46.1259L703.193 77.9897L706.752 80.3349ZM723.835 47.2985V96H728.098V47.2985H723.835ZM725.966 98.1314H742.271V93.8686H725.966V98.1314ZM744.403 96V21.4025H740.14V96H744.403ZM742.271 19.2712H724.581V23.5339H742.271V19.2712ZM722.771 20.2773L703.162 51.8214L706.783 54.0718L726.391 22.5278L722.771 20.2773ZM706.783 51.8214L687.174 20.2773L683.554 22.5278L703.162 54.0718L706.783 51.8214ZM685.364 19.2712H667.674V23.5339H685.364V19.2712ZM665.543 21.4025V96H669.805V21.4025H665.543Z" fill="#111351"/>
<path opacity="0.6" d="M88.94 213.225H86.8087V215.356H88.94V213.225ZM105.351 213.225V215.356H107.483V213.225H105.351ZM105.351 183.279V181.148H103.22V183.279H105.351ZM135.617 183.279H137.748V181.148H135.617V183.279ZM135.617 213.225H133.485V215.356H135.617V213.225ZM152.028 213.225V215.356H154.159V213.225H152.028ZM152.028 138.627H154.159V136.496H152.028V138.627ZM135.617 138.627V136.496H133.485V138.627H135.617ZM135.617 168.146V170.278H137.748V168.146H135.617ZM105.351 168.146H103.22V170.278H105.351V168.146ZM105.351 138.627H107.483V136.496H105.351V138.627ZM88.94 138.627V136.496H86.8087V138.627H88.94ZM88.94 215.356H105.351V211.093H88.94V215.356ZM107.483 213.225V183.279H103.22V213.225H107.483ZM105.351 185.41H135.617V181.148H105.351V185.41ZM133.485 183.279V213.225H137.748V183.279H133.485ZM135.617 215.356H152.028V211.093H135.617V215.356ZM154.159 213.225V138.627H149.897V213.225H154.159ZM152.028 136.496H135.617V140.759H152.028V136.496ZM133.485 138.627V168.146H137.748V138.627H133.485ZM135.617 166.015H105.351V170.278H135.617V166.015ZM107.483 168.146V138.627H103.22V168.146H107.483ZM105.351 136.496H88.94V140.759H105.351V136.496ZM86.8087 138.627V213.225H91.0714V138.627H86.8087ZM190.9 213.225H188.769V215.356H190.9V213.225ZM207.312 213.225V215.356H209.443V213.225H207.312ZM207.312 183.492L205.516 182.345L205.18 182.869V183.492H207.312ZM235.979 138.627L237.775 139.775L239.87 136.496H235.979V138.627ZM217.329 138.627V136.496H216.128L215.506 137.524L217.329 138.627ZM199.213 168.573L197.38 169.662L199.196 172.717L201.036 169.676L199.213 168.573ZM181.416 138.627L183.248 137.538L182.629 136.496H181.416V138.627ZM162.234 138.627V136.496H158.357L160.434 139.769L162.234 138.627ZM190.9 183.812H193.032V183.193L192.7 182.67L190.9 183.812ZM190.9 215.356H207.312V211.093H190.9V215.356ZM209.443 213.225V183.492H205.18V213.225H209.443ZM209.108 184.64L237.775 139.775L234.183 137.48L205.516 182.345L209.108 184.64ZM235.979 136.496H217.329V140.759H235.979V136.496ZM215.506 137.524L197.389 167.469L201.036 169.676L219.153 139.73L215.506 137.524ZM201.045 167.484L183.248 137.538L179.584 139.716L197.38 169.662L201.045 167.484ZM181.416 136.496H162.234V140.759H181.416V136.496ZM160.434 139.769L189.101 184.954L192.7 182.67L164.033 137.485L160.434 139.769ZM188.769 183.812V213.225H193.032V183.812H188.769ZM246.19 213.225H244.059V215.356H246.19V213.225ZM262.601 213.225V215.356H264.733V213.225H262.601ZM262.601 190.845V188.714H260.47V190.845H262.601ZM246.19 138.627V136.496H244.059V138.627H246.19ZM262.601 176.246H260.47V178.377H262.601V176.246ZM262.601 153.44V151.309H260.47V153.44H262.601ZM246.19 215.356H262.601V211.093H246.19V215.356ZM264.733 213.225V190.845H260.47V213.225H264.733ZM262.601 192.977H275.07V188.714H262.601V192.977ZM275.07 192.977C283.79 192.977 291.843 190.646 297.762 185.87C303.737 181.049 307.36 173.873 307.36 164.63H303.097C303.097 172.65 300.007 178.582 295.085 182.553C290.107 186.569 283.081 188.714 275.07 188.714V192.977ZM307.36 164.63V164.417H303.097V164.63H307.36ZM307.36 164.417C307.36 156.274 304.471 149.234 299.069 144.242C293.681 139.263 285.985 136.496 276.668 136.496V140.759C285.148 140.759 291.733 143.267 296.176 147.372C300.605 151.465 303.097 157.32 303.097 164.417H307.36ZM276.668 136.496H246.19V140.759H276.668V136.496ZM244.059 138.627V213.225H248.321V138.627H244.059ZM264.733 176.246V153.44H260.47V176.246H264.733ZM262.601 155.571H275.283V151.309H262.601V155.571ZM275.283 155.571C279.076 155.571 281.862 156.485 283.663 157.974C285.404 159.413 286.473 161.593 286.473 164.736H290.735C290.735 160.526 289.246 157.059 286.378 154.688C283.57 152.366 279.696 151.309 275.283 151.309V155.571ZM286.473 164.736V164.949H290.735V164.736H286.473ZM286.473 164.949C286.473 167.591 285.495 169.827 283.746 171.419C281.986 173.021 279.281 174.114 275.603 174.114V178.377C280.13 178.377 283.926 177.019 286.615 174.571C289.315 172.114 290.735 168.702 290.735 164.949H286.473ZM275.603 174.114H262.601V178.377H275.603V174.114ZM317.374 213.225H315.243V215.356H317.374V213.225ZM374.175 213.225V215.356H376.306V213.225H374.175ZM374.175 198.625H376.306V196.493H374.175V198.625ZM333.679 198.625H331.547V200.756H333.679V198.625ZM333.679 182.959V180.828H331.547V182.959H333.679ZM368.846 182.959V185.091H370.977V182.959H368.846ZM368.846 168.36H370.977V166.228H368.846V168.36ZM333.679 168.36H331.547V170.491H333.679V168.36ZM333.679 153.227V151.096H331.547V153.227H333.679ZM373.642 153.227V155.358H375.773V153.227H373.642ZM373.642 138.627H375.773V136.496H373.642V138.627ZM317.374 138.627V136.496H315.243V138.627H317.374ZM317.374 215.356H374.175V211.093H317.374V215.356ZM376.306 213.225V198.625H372.043V213.225H376.306ZM374.175 196.493H333.679V200.756H374.175V196.493ZM335.81 198.625V182.959H331.547V198.625H335.81ZM333.679 185.091H368.846V180.828H333.679V185.091ZM370.977 182.959V168.36H366.715V182.959H370.977ZM368.846 166.228H333.679V170.491H368.846V166.228ZM335.81 168.36V153.227H331.547V168.36H335.81ZM333.679 155.358H373.642V151.096H333.679V155.358ZM375.773 153.227V138.627H371.51V153.227H375.773ZM373.642 136.496H317.374V140.759H373.642V136.496ZM315.243 138.627V213.225H319.505V138.627H315.243ZM388.766 213.225H386.635V215.356H388.766V213.225ZM405.177 213.225V215.356H407.309V213.225H405.177ZM405.177 189.353V187.222H403.046V189.353H405.177ZM418.072 189.353L419.843 188.168L419.21 187.222H418.072V189.353ZM434.057 213.225L432.286 214.411L432.919 215.356H434.057V213.225ZM453.24 213.225V215.356H457.28L454.999 212.021L453.24 213.225ZM435.016 186.583L434.275 184.584L431.716 185.533L433.257 187.786L435.016 186.583ZM388.766 138.627V136.496H386.635V138.627H388.766ZM405.177 174.86H403.046V176.992H405.177V174.86ZM405.177 153.44V151.309H403.046V153.44H405.177ZM388.766 215.356H405.177V211.093H388.766V215.356ZM407.309 213.225V189.353H403.046V213.225H407.309ZM405.177 191.485H418.072V187.222H405.177V191.485ZM416.301 190.539L432.286 214.411L435.828 212.039L419.843 188.168L416.301 190.539ZM434.057 215.356H453.24V211.093H434.057V215.356ZM454.999 212.021L436.776 185.379L433.257 187.786L451.48 214.428L454.999 212.021ZM435.757 188.581C440.818 186.705 445.185 183.708 448.285 179.477C451.393 175.235 453.133 169.879 453.133 163.457H448.87C448.87 169.078 447.36 173.527 444.846 176.957C442.325 180.399 438.699 182.944 434.275 184.584L435.757 188.581ZM453.133 163.457V163.244H448.87V163.457H453.133ZM453.133 163.244C453.133 155.749 450.738 149.31 446.115 144.686L443.1 147.701C446.789 151.389 448.87 156.673 448.87 163.244H453.133ZM446.115 144.686C440.702 139.274 432.739 136.496 422.868 136.496V140.759C431.966 140.759 438.709 143.309 443.1 147.701L446.115 144.686ZM422.868 136.496H388.766V140.759H422.868V136.496ZM386.635 138.627V213.225H390.897V138.627H386.635ZM407.309 174.86V153.44H403.046V174.86H407.309ZM405.177 155.571H421.482V151.309H405.177V155.571ZM421.482 155.571C425.195 155.571 427.878 156.418 429.593 157.793C431.235 159.111 432.246 161.119 432.246 164.097H436.508C436.508 160.041 435.068 156.721 432.261 154.469C429.526 152.274 425.762 151.309 421.482 151.309V155.571ZM432.246 164.097V164.31H436.508V164.097H432.246ZM432.246 164.31C432.246 166.903 431.32 168.926 429.694 170.33C428.035 171.762 425.435 172.729 421.802 172.729V176.992C426.162 176.992 429.849 175.827 432.48 173.556C435.143 171.257 436.508 168.004 436.508 164.31H432.246ZM421.802 172.729H405.177V176.992H421.802V172.729ZM527.993 168.573L528.53 166.51L528.522 166.508L527.993 168.573ZM540.887 159.408L539.673 161.159L541.429 162.377L542.642 160.618L540.887 159.408ZM549.413 147.046L551.167 148.256L552.292 146.625L550.747 145.384L549.413 147.046ZM520.32 183.066L520.849 181.001L520.847 181.001L520.32 183.066ZM502.31 190.739L503.667 189.095L502.032 187.746L500.674 189.373L502.31 190.739ZM492.612 202.355L490.976 200.989L489.655 202.571L491.193 203.945L492.612 202.355ZM524.263 216.422C532.651 216.422 540.02 214.257 545.335 209.937C550.705 205.573 553.782 199.166 553.782 191.165H549.519C549.519 197.977 546.949 203.133 542.647 206.628C538.292 210.168 531.966 212.159 524.263 212.159V216.422ZM553.782 191.165V190.952H549.519V191.165H553.782ZM553.782 190.952C553.782 183.901 551.431 178.678 546.89 174.753C542.481 170.942 536.166 168.5 528.53 166.51L527.455 170.635C534.952 172.589 540.466 174.835 544.103 177.978C547.607 181.007 549.519 185.002 549.519 190.952H553.782ZM528.522 166.508C522.001 164.837 518.296 163.677 516.196 162.435C515.207 161.85 514.725 161.33 514.459 160.859C514.194 160.387 514.032 159.764 514.032 158.768H509.77C509.77 160.224 510.007 161.639 510.744 162.949C511.482 164.259 512.605 165.264 514.027 166.105C516.749 167.714 521.09 169.004 527.464 170.637L528.522 166.508ZM514.032 158.768V158.555H509.77V158.768H514.032ZM514.032 158.555C514.032 157.461 514.502 156.463 515.592 155.67C516.733 154.84 518.646 154.186 521.492 154.186V149.923C518.05 149.923 515.168 150.708 513.085 152.223C510.951 153.775 509.77 156.026 509.77 158.555H514.032ZM521.492 154.186C527.162 154.186 533.233 156.693 539.673 161.159L542.102 157.657C535.327 152.958 528.397 149.923 521.492 149.923V154.186ZM542.642 160.618L551.167 148.256L547.658 145.836L539.133 158.198L542.642 160.618ZM550.747 145.384C542.796 139.001 533.052 135.43 521.705 135.43V139.693C532.098 139.693 540.897 142.943 548.078 148.708L550.747 145.384ZM521.705 135.43C513.679 135.43 506.633 137.789 501.555 142.105C496.449 146.447 493.465 152.665 493.465 160.047H497.727C497.727 153.895 500.178 148.871 504.316 145.353C508.484 141.81 514.492 139.693 521.705 139.693V135.43ZM493.465 160.047V160.26H497.727V160.047H493.465ZM493.465 160.26C493.465 168.228 496.121 173.628 501.009 177.457C505.706 181.137 512.302 183.219 519.792 185.131L520.847 181.001C513.311 179.077 507.545 177.162 503.637 174.101C499.92 171.19 497.727 167.106 497.727 160.26H493.465ZM519.79 185.13C526.044 186.734 529.471 187.996 531.334 189.227C532.213 189.808 532.634 190.314 532.861 190.749C533.089 191.187 533.214 191.731 533.214 192.55H537.477C537.477 191.292 537.283 190.011 536.642 188.78C535.999 187.547 535.001 186.541 533.683 185.67C531.15 183.997 527.064 182.595 520.849 181.001L519.79 185.13ZM533.214 192.55V192.764H537.477V192.55H533.214ZM533.214 192.764C533.214 194.18 532.607 195.289 531.314 196.136C529.932 197.041 527.699 197.666 524.582 197.666V201.928C528.179 201.928 531.329 201.221 533.649 199.702C536.06 198.124 537.477 195.716 537.477 192.764H533.214ZM524.582 197.666C516.719 197.666 510.151 194.447 503.667 189.095L500.953 192.383C507.897 198.114 515.395 201.928 524.582 201.928V197.666ZM500.674 189.373L490.976 200.989L494.248 203.721L503.946 192.105L500.674 189.373ZM491.193 203.945C500.56 212.308 512.477 216.422 524.263 216.422V212.159C513.456 212.159 502.568 208.387 494.032 200.765L491.193 203.945ZM565.893 213.225H563.762V215.356H565.893V213.225ZM619.497 213.225V215.356H621.628V213.225H619.497ZM619.497 198.305H621.628V196.174H619.497V198.305ZM582.305 198.305H580.173V200.436H582.305V198.305ZM582.305 138.627H584.436V136.496H582.305V138.627ZM565.893 138.627V136.496H563.762V138.627H565.893ZM565.893 215.356H619.497V211.093H565.893V215.356ZM621.628 213.225V198.305H617.366V213.225H621.628ZM619.497 196.174H582.305V200.436H619.497V196.174ZM584.436 198.305V138.627H580.173V198.305H584.436ZM582.305 136.496H565.893V140.759H582.305V136.496ZM563.762 138.627V213.225H568.025V138.627H563.762ZM632.62 213.225H630.488V215.356H632.62V213.225ZM649.031 213.225V215.356H651.162V213.225H649.031ZM649.031 138.627H651.162V136.496H649.031V138.627ZM632.62 138.627V136.496H630.488V138.627H632.62ZM632.62 215.356H649.031V211.093H632.62V215.356ZM651.162 213.225V138.627H646.9V213.225H651.162ZM649.031 136.496H632.62V140.759H649.031V136.496ZM630.488 138.627V213.225H634.751V138.627H630.488ZM667.674 213.225H665.543V215.356H667.674V213.225ZM683.766 213.225V215.356H685.897V213.225H683.766ZM683.766 164.843L685.545 163.67L681.634 157.733V164.843H683.766ZM704.546 196.387L702.766 197.559L703.398 198.518H704.546V196.387ZM704.973 196.387V198.518H706.121L706.752 197.56L704.973 196.387ZM725.966 164.523H728.098V157.414L724.187 163.35L725.966 164.523ZM725.966 213.225H723.835V215.356H725.966V213.225ZM742.271 213.225V215.356H744.403V213.225H742.271ZM742.271 138.627H744.403V136.496H742.271V138.627ZM724.581 138.627V136.496H723.396L722.771 137.502L724.581 138.627ZM704.973 170.171L703.162 171.296L704.973 174.208L706.783 171.296L704.973 170.171ZM685.364 138.627L687.174 137.502L686.549 136.496H685.364V138.627ZM667.674 138.627V136.496H665.543V138.627H667.674ZM667.674 215.356H683.766V211.093H667.674V215.356ZM685.897 213.225V164.843H681.634V213.225H685.897ZM681.986 166.015L702.766 197.559L706.326 195.214L685.545 163.67L681.986 166.015ZM704.546 198.518H704.973V194.256H704.546V198.518ZM706.752 197.56L727.746 165.696L724.187 163.35L703.193 195.214L706.752 197.56ZM723.835 164.523V213.225H728.098V164.523H723.835ZM725.966 215.356H742.271V211.093H725.966V215.356ZM744.403 213.225V138.627H740.14V213.225H744.403ZM742.271 136.496H724.581V140.759H742.271V136.496ZM722.771 137.502L703.162 169.046L706.783 171.296L726.391 139.752L722.771 137.502ZM706.783 169.046L687.174 137.502L683.554 139.752L703.162 171.296L706.783 169.046ZM685.364 136.496H667.674V140.759H685.364V136.496ZM665.543 138.627V213.225H669.805V138.627H665.543Z" fill="#111351"/>
<path opacity="0.2" d="M88.94 330.449H86.8087V332.581H88.94V330.449ZM105.351 330.449V332.581H107.483V330.449H105.351ZM105.351 300.504V298.372H103.22V300.504H105.351ZM135.617 300.504H137.748V298.372H135.617V300.504ZM135.617 330.449H133.485V332.581H135.617V330.449ZM152.028 330.449V332.581H154.159V330.449H152.028ZM152.028 255.852H154.159V253.72H152.028V255.852ZM135.617 255.852V253.72H133.485V255.852H135.617ZM135.617 285.371V287.502H137.748V285.371H135.617ZM105.351 285.371H103.22V287.502H105.351V285.371ZM105.351 255.852H107.483V253.72H105.351V255.852ZM88.94 255.852V253.72H86.8087V255.852H88.94ZM88.94 332.581H105.351V328.318H88.94V332.581ZM107.483 330.449V300.504H103.22V330.449H107.483ZM105.351 302.635H135.617V298.372H105.351V302.635ZM133.485 300.504V330.449H137.748V300.504H133.485ZM135.617 332.581H152.028V328.318H135.617V332.581ZM154.159 330.449V255.852H149.897V330.449H154.159ZM152.028 253.72H135.617V257.983H152.028V253.72ZM133.485 255.852V285.371H137.748V255.852H133.485ZM135.617 283.24H105.351V287.502H135.617V283.24ZM107.483 285.371V255.852H103.22V285.371H107.483ZM105.351 253.72H88.94V257.983H105.351V253.72ZM86.8087 255.852V330.449H91.0714V255.852H86.8087ZM190.9 330.449H188.769V332.581H190.9V330.449ZM207.312 330.449V332.581H209.443V330.449H207.312ZM207.312 300.717L205.516 299.569L205.18 300.094V300.717H207.312ZM235.979 255.852L237.775 256.999L239.87 253.72H235.979V255.852ZM217.329 255.852V253.72H216.128L215.506 254.749L217.329 255.852ZM199.213 285.797L197.38 286.886L199.196 289.942L201.036 286.901L199.213 285.797ZM181.416 255.852L183.248 254.763L182.629 253.72H181.416V255.852ZM162.234 255.852V253.72H158.357L160.434 256.994L162.234 255.852ZM190.9 301.037H193.032V300.417L192.7 299.895L190.9 301.037ZM190.9 332.581H207.312V328.318H190.9V332.581ZM209.443 330.449V300.717H205.18V330.449H209.443ZM209.108 301.864L237.775 256.999L234.183 254.704L205.516 299.569L209.108 301.864ZM235.979 253.72H217.329V257.983H235.979V253.72ZM215.506 254.749L197.389 284.694L201.036 286.901L219.153 256.955L215.506 254.749ZM201.045 284.708L183.248 254.763L179.584 256.941L197.38 286.886L201.045 284.708ZM181.416 253.72H162.234V257.983H181.416V253.72ZM160.434 256.994L189.101 302.178L192.7 299.895L164.033 254.71L160.434 256.994ZM188.769 301.037V330.449H193.032V301.037H188.769ZM246.19 330.449H244.059V332.581H246.19V330.449ZM262.601 330.449V332.581H264.733V330.449H262.601ZM262.601 308.07V305.939H260.47V308.07H262.601ZM246.19 255.852V253.72H244.059V255.852H246.19ZM262.601 293.47H260.47V295.602H262.601V293.47ZM262.601 270.665V268.533H260.47V270.665H262.601ZM246.19 332.581H262.601V328.318H246.19V332.581ZM264.733 330.449V308.07H260.47V330.449H264.733ZM262.601 310.201H275.07V305.939H262.601V310.201ZM275.07 310.201C283.79 310.201 291.843 307.871 297.762 303.095C303.737 298.274 307.36 291.098 307.36 281.854H303.097C303.097 289.875 300.007 295.806 295.085 299.777C290.107 303.794 283.081 305.939 275.07 305.939V310.201ZM307.36 281.854V281.641H303.097V281.854H307.36ZM307.36 281.641C307.36 273.499 304.471 266.458 299.069 261.466C293.681 256.487 285.985 253.72 276.668 253.72V257.983C285.148 257.983 291.733 260.491 296.176 264.597C300.605 268.69 303.097 274.544 303.097 281.641H307.36ZM276.668 253.72H246.19V257.983H276.668V253.72ZM244.059 255.852V330.449H248.321V255.852H244.059ZM264.733 293.47V270.665H260.47V293.47H264.733ZM262.601 272.796H275.283V268.533H262.601V272.796ZM275.283 272.796C279.076 272.796 281.862 273.71 283.663 275.198C285.404 276.637 286.473 278.818 286.473 281.961H290.735C290.735 277.751 289.246 274.283 286.378 271.913C283.57 269.591 279.696 268.533 275.283 268.533V272.796ZM286.473 281.961V282.174H290.735V281.961H286.473ZM286.473 282.174C286.473 284.816 285.495 287.052 283.746 288.644C281.986 290.246 279.281 291.339 275.603 291.339V295.602C280.13 295.602 283.926 294.244 286.615 291.796C289.315 289.338 290.735 285.927 290.735 282.174H286.473ZM275.603 291.339H262.601V295.602H275.603V291.339ZM317.374 330.449H315.243V332.581H317.374V330.449ZM374.175 330.449V332.581H376.306V330.449H374.175ZM374.175 315.849H376.306V313.718H374.175V315.849ZM333.679 315.849H331.547V317.981H333.679V315.849ZM333.679 300.184V298.053H331.547V300.184H333.679ZM368.846 300.184V302.315H370.977V300.184H368.846ZM368.846 285.584H370.977V283.453H368.846V285.584ZM333.679 285.584H331.547V287.716H333.679V285.584ZM333.679 270.452V268.32H331.547V270.452H333.679ZM373.642 270.452V272.583H375.773V270.452H373.642ZM373.642 255.852H375.773V253.72H373.642V255.852ZM317.374 255.852V253.72H315.243V255.852H317.374ZM317.374 332.581H374.175V328.318H317.374V332.581ZM376.306 330.449V315.849H372.043V330.449H376.306ZM374.175 313.718H333.679V317.981H374.175V313.718ZM335.81 315.849V300.184H331.547V315.849H335.81ZM333.679 302.315H368.846V298.053H333.679V302.315ZM370.977 300.184V285.584H366.715V300.184H370.977ZM368.846 283.453H333.679V287.716H368.846V283.453ZM335.81 285.584V270.452H331.547V285.584H335.81ZM333.679 272.583H373.642V268.32H333.679V272.583ZM375.773 270.452V255.852H371.51V270.452H375.773ZM373.642 253.72H317.374V257.983H373.642V253.72ZM315.243 255.852V330.449H319.505V255.852H315.243ZM388.766 330.449H386.635V332.581H388.766V330.449ZM405.177 330.449V332.581H407.309V330.449H405.177ZM405.177 306.578V304.447H403.046V306.578H405.177ZM418.072 306.578L419.843 305.392L419.21 304.447H418.072V306.578ZM434.057 330.449L432.286 331.635L432.919 332.581H434.057V330.449ZM453.24 330.449V332.581H457.28L454.999 329.246L453.24 330.449ZM435.016 303.807L434.275 301.809L431.716 302.758L433.257 305.011L435.016 303.807ZM388.766 255.852V253.72H386.635V255.852H388.766ZM405.177 292.085H403.046V294.216H405.177V292.085ZM405.177 270.665V268.533H403.046V270.665H405.177ZM388.766 332.581H405.177V328.318H388.766V332.581ZM407.309 330.449V306.578H403.046V330.449H407.309ZM405.177 308.709H418.072V304.447H405.177V308.709ZM416.301 307.764L432.286 331.635L435.828 329.263L419.843 305.392L416.301 307.764ZM434.057 332.581H453.24V328.318H434.057V332.581ZM454.999 329.246L436.776 302.604L433.257 305.011L451.48 331.653L454.999 329.246ZM435.757 305.806C440.818 303.929 445.185 300.932 448.285 296.701C451.393 292.459 453.133 287.104 453.133 280.682H448.87C448.87 286.303 447.36 290.751 444.846 294.182C442.325 297.624 438.699 300.169 434.275 301.809L435.757 305.806ZM453.133 280.682V280.469H448.87V280.682H453.133ZM453.133 280.469C453.133 272.974 450.738 266.535 446.115 261.911L443.1 264.925C446.789 268.614 448.87 273.897 448.87 280.469H453.133ZM446.115 261.911C440.702 256.498 432.739 253.72 422.868 253.72V257.983C431.966 257.983 438.709 260.534 443.1 264.925L446.115 261.911ZM422.868 253.72H388.766V257.983H422.868V253.72ZM386.635 255.852V330.449H390.897V255.852H386.635ZM407.309 292.085V270.665H403.046V292.085H407.309ZM405.177 272.796H421.482V268.533H405.177V272.796ZM421.482 272.796C425.195 272.796 427.878 273.642 429.593 275.018C431.235 276.336 432.246 278.344 432.246 281.321H436.508C436.508 277.266 435.068 273.945 432.261 271.693C429.526 269.499 425.762 268.533 421.482 268.533V272.796ZM432.246 281.321V281.535H436.508V281.321H432.246ZM432.246 281.535C432.246 284.128 431.32 286.151 429.694 287.554C428.035 288.986 425.435 289.953 421.802 289.953V294.216C426.162 294.216 429.849 293.052 432.48 290.781C435.143 288.481 436.508 285.229 436.508 281.535H432.246ZM421.802 289.953H405.177V294.216H421.802V289.953ZM527.993 285.797L528.53 283.735L528.522 283.733L527.993 285.797ZM540.887 276.632L539.673 278.384L541.429 279.602L542.642 277.843L540.887 276.632ZM549.413 264.271L551.167 265.481L552.292 263.849L550.747 262.609L549.413 264.271ZM520.32 300.291L520.849 298.226L520.847 298.225L520.32 300.291ZM502.31 307.963L503.667 306.32L502.032 304.97L500.674 306.597L502.31 307.963ZM492.612 319.579L490.976 318.213L489.655 319.796L491.193 321.169L492.612 319.579ZM524.263 333.646C532.651 333.646 540.02 331.481 545.335 327.161C550.705 322.798 553.782 316.39 553.782 308.39H549.519C549.519 315.202 546.949 320.357 542.647 323.853C538.292 327.392 531.966 329.384 524.263 329.384V333.646ZM553.782 308.39V308.177H549.519V308.39H553.782ZM553.782 308.177C553.782 301.126 551.431 295.902 546.89 291.978C542.481 288.167 536.166 285.724 528.53 283.735L527.455 287.86C534.952 289.813 540.466 292.06 544.103 295.203C547.607 298.232 549.519 302.226 549.519 308.177H553.782ZM528.522 283.733C522.001 282.062 518.296 280.901 516.196 279.66C515.207 279.075 514.725 278.555 514.459 278.083C514.194 277.612 514.032 276.988 514.032 275.993H509.77C509.77 277.449 510.007 278.863 510.744 280.174C511.482 281.484 512.605 282.489 514.027 283.329C516.749 284.939 521.09 286.229 527.464 287.862L528.522 283.733ZM514.032 275.993V275.78H509.77V275.993H514.032ZM514.032 275.78C514.032 274.686 514.502 273.687 515.592 272.895C516.733 272.065 518.646 271.411 521.492 271.411V267.148C518.05 267.148 515.168 267.933 513.085 269.447C510.951 270.999 509.77 273.251 509.77 275.78H514.032ZM521.492 271.411C527.162 271.411 533.233 273.918 539.673 278.384L542.102 274.881C535.327 270.182 528.397 267.148 521.492 267.148V271.411ZM542.642 277.843L551.167 265.481L547.658 263.061L539.133 275.422L542.642 277.843ZM550.747 262.609C542.796 256.225 533.052 252.655 521.705 252.655V256.917C532.098 256.917 540.897 260.167 548.078 265.933L550.747 262.609ZM521.705 252.655C513.679 252.655 506.633 255.013 501.555 259.33C496.449 263.671 493.465 269.89 493.465 277.272H497.727C497.727 271.12 500.178 266.096 504.316 262.578C508.484 259.035 514.492 256.917 521.705 256.917V252.655ZM493.465 277.272V277.485H497.727V277.272H493.465ZM493.465 277.485C493.465 285.453 496.121 290.853 501.009 294.682C505.706 298.361 512.302 300.443 519.792 302.356L520.847 298.225C513.311 296.301 507.545 294.387 503.637 291.326C499.92 288.415 497.727 284.33 497.727 277.485H493.465ZM519.79 302.355C526.044 303.959 529.471 305.221 531.334 306.451C532.213 307.033 532.634 307.539 532.861 307.974C533.089 308.411 533.214 308.956 533.214 309.775H537.477C537.477 308.516 537.283 307.236 536.642 306.005C535.999 304.772 535.001 303.766 533.683 302.895C531.15 301.221 527.064 299.82 520.849 298.226L519.79 302.355ZM533.214 309.775V309.988H537.477V309.775H533.214ZM533.214 309.988C533.214 311.405 532.607 312.514 531.314 313.36C529.932 314.265 527.699 314.89 524.582 314.89V319.153C528.179 319.153 531.329 318.446 533.649 316.927C536.06 315.348 537.477 312.941 537.477 309.988H533.214ZM524.582 314.89C516.719 314.89 510.151 311.672 503.667 306.32L500.953 309.607C507.897 315.338 515.395 319.153 524.582 319.153V314.89ZM500.674 306.597L490.976 318.213L494.248 320.945L503.946 309.329L500.674 306.597ZM491.193 321.169C500.56 329.533 512.477 333.646 524.263 333.646V329.384C513.456 329.384 502.568 325.611 494.032 317.989L491.193 321.169ZM565.893 330.449H563.762V332.581H565.893V330.449ZM619.497 330.449V332.581H621.628V330.449H619.497ZM619.497 315.53H621.628V313.398H619.497V315.53ZM582.305 315.53H580.173V317.661H582.305V315.53ZM582.305 255.852H584.436V253.72H582.305V255.852ZM565.893 255.852V253.72H563.762V255.852H565.893ZM565.893 332.581H619.497V328.318H565.893V332.581ZM621.628 330.449V315.53H617.366V330.449H621.628ZM619.497 313.398H582.305V317.661H619.497V313.398ZM584.436 315.53V255.852H580.173V315.53H584.436ZM582.305 253.72H565.893V257.983H582.305V253.72ZM563.762 255.852V330.449H568.025V255.852H563.762ZM632.62 330.449H630.488V332.581H632.62V330.449ZM649.031 330.449V332.581H651.162V330.449H649.031ZM649.031 255.852H651.162V253.72H649.031V255.852ZM632.62 255.852V253.72H630.488V255.852H632.62ZM632.62 332.581H649.031V328.318H632.62V332.581ZM651.162 330.449V255.852H646.9V330.449H651.162ZM649.031 253.72H632.62V257.983H649.031V253.72ZM630.488 255.852V330.449H634.751V255.852H630.488ZM667.674 330.449H665.543V332.581H667.674V330.449ZM683.766 330.449V332.581H685.897V330.449H683.766ZM683.766 282.067L685.545 280.895L681.634 274.958V282.067H683.766ZM704.546 313.612L702.766 314.784L703.398 315.743H704.546V313.612ZM704.973 313.612V315.743H706.121L706.752 314.784L704.973 313.612ZM725.966 281.748H728.098V274.639L724.187 280.575L725.966 281.748ZM725.966 330.449H723.835V332.581H725.966V330.449ZM742.271 330.449V332.581H744.403V330.449H742.271ZM742.271 255.852H744.403V253.72H742.271V255.852ZM724.581 255.852V253.72H723.396L722.771 254.727L724.581 255.852ZM704.973 287.396L703.162 288.521L704.973 291.433L706.783 288.521L704.973 287.396ZM685.364 255.852L687.174 254.727L686.549 253.72H685.364V255.852ZM667.674 255.852V253.72H665.543V255.852H667.674ZM667.674 332.581H683.766V328.318H667.674V332.581ZM685.897 330.449V282.067H681.634V330.449H685.897ZM681.986 283.24L702.766 314.784L706.326 312.439L685.545 280.895L681.986 283.24ZM704.546 315.743H704.973V311.48H704.546V315.743ZM706.752 314.784L727.746 282.92L724.187 280.575L703.193 312.439L706.752 314.784ZM723.835 281.748V330.449H728.098V281.748H723.835ZM725.966 332.581H742.271V328.318H725.966V332.581ZM744.403 330.449V255.852H740.14V330.449H744.403ZM742.271 253.72H724.581V257.983H742.271V253.72ZM722.771 254.727L703.162 286.271L706.783 288.521L726.391 256.977L722.771 254.727ZM706.783 286.271L687.174 254.727L683.554 256.977L703.162 288.521L706.783 286.271ZM685.364 253.72H667.674V257.983H685.364V253.72ZM665.543 255.852V330.449H669.805V255.852H665.543Z" fill="#111351"/>
</svg>
