<svg width="1106" height="328" viewBox="0 0 1106 328" fill="none" xmlns="http://www.w3.org/2000/svg">
<path d="M299.479 35.5556H302.313V32.7208H299.479V35.5556ZM296.159 95.959L293.674 94.5944L293.67 94.6015L296.159 95.959ZM286.199 105.473L284.879 102.964L284.872 102.968L286.199 105.473ZM240.017 35.5556V32.7208H237.182V35.5556H240.017ZM255.328 35.5556H258.163V32.7208H255.328V35.5556ZM258.995 92.4903L257.004 94.5084L258.995 92.4903ZM278.023 94.3733L276.663 91.8862L276.654 91.8907L276.646 91.8953L278.023 94.3733ZM284.167 35.5556V32.7208H281.333V35.5556H284.167ZM296.644 35.5556V82.4314H302.313V35.5556H296.644ZM296.644 82.4314C296.644 86.9841 295.638 91.0173 293.674 94.5944L298.643 97.3235C301.106 92.8402 302.313 87.855 302.313 82.4314H296.644ZM293.67 94.6015C291.786 98.0563 288.899 100.85 284.879 102.964L287.518 107.982C292.418 105.405 296.171 101.856 298.647 97.3164L293.67 94.6015ZM284.872 102.968C280.97 105.035 275.88 106.156 269.45 106.156V111.826C276.499 111.826 282.574 110.602 287.526 107.978L284.872 102.968ZM269.45 106.156C260.333 106.156 253.849 103.835 249.526 99.6264L245.571 103.688C251.291 109.258 259.408 111.826 269.45 111.826V106.156ZM249.526 99.6264C245.137 95.3523 242.852 89.6537 242.852 82.2332H237.182C237.182 90.9334 239.918 98.1843 245.571 103.688L249.526 99.6264ZM242.852 82.2332V35.5556H237.182V82.2332H242.852ZM240.017 38.3903H255.328V32.7208H240.017V38.3903ZM252.493 35.5556V79.9042H258.163V35.5556H252.493ZM252.493 79.9042C252.493 86.1196 253.736 91.2845 257.004 94.5084L260.986 90.4723C259.365 88.8732 258.163 85.6474 258.163 79.9042H252.493ZM257.004 94.5084C260.159 97.6209 264.61 98.9424 269.847 98.9424V93.2729C265.504 93.2729 262.72 92.1828 260.986 90.4723L257.004 94.5084ZM269.847 98.9424C273.509 98.9424 276.758 98.3186 279.4 96.8513L276.646 91.8953C275.125 92.7404 272.923 93.2729 269.847 93.2729V98.9424ZM279.383 96.8604C282.115 95.3664 284.087 93.0586 285.303 90.0993L280.059 87.9442C279.293 89.8079 278.159 91.0678 276.663 91.8862L279.383 96.8604ZM285.303 90.0993C286.481 87.2321 287.002 83.7607 287.002 79.8051H281.333C281.333 83.3154 280.863 85.9883 280.059 87.9442L285.303 90.0993ZM287.002 79.8051V35.5556H281.333V79.8051H287.002ZM284.167 38.3903H299.479V32.7208H284.167V38.3903ZM317.218 108H314.383V110.835H317.218V108ZM317.218 35.5556V32.7208H314.383V35.5556H317.218ZM332.579 35.5556H335.414V32.7208H332.579V35.5556ZM332.579 95.3148H329.744V98.1495H332.579V95.3148ZM361.963 95.3148H364.798V92.48H361.963V95.3148ZM361.963 108V110.835H364.798V108H361.963ZM320.053 108V35.5556H314.383V108H320.053ZM317.218 38.3903H332.579V32.7208H317.218V38.3903ZM329.744 35.5556V95.3148H335.414V35.5556H329.744ZM332.579 98.1495H361.963V92.48H332.579V98.1495ZM359.129 95.3148V108H364.798V95.3148H359.129ZM361.963 105.165H317.218V110.835H361.963V105.165ZM402.546 108V110.835H405.381V108H402.546ZM387.185 108H384.35V110.835H387.185V108ZM387.185 48.3399H390.02V45.5051H387.185V48.3399ZM367.513 48.3399H364.678V51.1746H367.513V48.3399ZM367.513 35.5556V32.7208H364.678V35.5556H367.513ZM422.218 35.5556H425.053V32.7208H422.218V35.5556ZM422.218 48.3399V51.1746H425.053V48.3399H422.218ZM402.546 48.3399V45.5051H399.711V48.3399H402.546ZM402.546 105.165H387.185V110.835H402.546V105.165ZM390.02 108V48.3399H384.35V108H390.02ZM387.185 45.5051H367.513V51.1746H387.185V45.5051ZM370.348 48.3399V35.5556H364.678V48.3399H370.348ZM367.513 38.3903H422.218V32.7208H367.513V38.3903ZM419.383 35.5556V48.3399H425.053V35.5556H419.383ZM422.218 45.5051H402.546V51.1746H422.218V45.5051ZM399.711 48.3399V108H405.381V48.3399H399.711ZM470.729 37.934L469.74 40.5908L469.747 40.5933L470.729 37.934ZM476.576 72.2237L478.398 74.3957L476.576 72.2237ZM469.936 76.4356L468.755 73.8587L465.717 75.2513L467.587 78.0217L469.936 76.4356ZM491.243 108V110.835H496.577L493.593 106.414L491.243 108ZM474.198 108L471.791 109.497L472.623 110.835H474.198V108ZM456.904 80.2016L459.311 78.7042L458.479 77.3668H456.904V80.2016ZM448.728 80.2016V77.3668H445.893V80.2016H448.728ZM448.728 108V110.835H451.563V108H448.728ZM433.367 108H430.532V110.835H433.367V108ZM433.367 35.5556V32.7208H430.532V35.5556H433.367ZM448.728 48.1417V45.3069H445.893V48.1417H448.728ZM448.728 67.7145H445.893V70.5493H448.728V67.7145ZM464.585 65.1874L466.318 67.4305L466.323 67.4268L464.585 65.1874ZM464.337 50.3219L462.844 52.7315L462.851 52.7362L462.859 52.7408L464.337 50.3219ZM454.476 38.3903C460.85 38.3903 465.903 39.1628 469.74 40.5908L471.718 35.2772C467.033 33.534 461.25 32.7208 454.476 32.7208V38.3903ZM469.747 40.5933C473.585 42.0104 476.229 44.0665 477.915 46.6631L482.67 43.575C480.194 39.7628 476.462 37.0289 471.711 35.2748L469.747 40.5933ZM477.915 46.6631C479.625 49.2951 480.579 52.7662 480.579 57.2592H486.249C486.249 51.9739 485.123 47.3516 482.67 43.575L477.915 46.6631ZM480.579 57.2592C480.579 60.2012 480.022 62.6375 479.003 64.6495L484.06 67.2119C485.551 64.2687 486.249 60.924 486.249 57.2592H480.579ZM479.003 64.6495C477.913 66.799 476.498 68.5897 474.754 70.0518L478.398 74.3957C480.751 72.4222 482.638 70.0175 484.06 67.2119L479.003 64.6495ZM474.754 70.0518C472.897 71.6101 470.898 72.8765 468.755 73.8587L471.117 79.0126C473.731 77.8145 476.159 76.273 478.398 74.3957L474.754 70.0518ZM467.587 78.0217L488.894 109.586L493.593 106.414L472.286 74.8496L467.587 78.0217ZM491.243 105.165H474.198V110.835H491.243V105.165ZM476.605 106.503L459.311 78.7042L454.497 81.6989L471.791 109.497L476.605 106.503ZM456.904 77.3668H448.728V83.0363H456.904V77.3668ZM445.893 80.2016V108H451.563V80.2016H445.893ZM448.728 105.165H433.367V110.835H448.728V105.165ZM436.202 108V35.5556H430.532V108H436.202ZM433.367 38.3903H454.476V32.7208H433.367V38.3903ZM453.386 45.3069H448.728V50.9764H453.386V45.3069ZM445.893 48.1417V67.7145H451.563V48.1417H445.893ZM448.728 70.5493H453.683V64.8798H448.728V70.5493ZM453.683 70.5493C458.935 70.5493 463.369 69.7089 466.318 67.4305L462.851 62.9443C461.439 64.0355 458.606 64.8798 453.683 64.8798V70.5493ZM466.323 67.4268C469.356 65.0726 470.739 61.6586 470.739 57.6556H465.07C465.07 60.2594 464.24 61.8667 462.847 62.948L466.323 67.4268ZM470.739 57.6556C470.739 53.4983 469.241 49.9965 465.815 47.9031L462.859 52.7408C464.19 53.5544 465.07 54.9417 465.07 57.6556H470.739ZM465.83 47.9124C462.805 46.0375 458.506 45.3069 453.386 45.3069V50.9764C458.176 50.9764 461.178 51.6994 462.844 52.7315L465.83 47.9124ZM544.71 108L541.998 108.826L542.61 110.835H544.71V108ZM539.457 90.756L542.169 89.9301L541.557 87.9213H539.457V90.756ZM513.046 90.756V87.9213H510.946L510.334 89.9301L513.046 90.756ZM507.794 108V110.835H509.894L510.505 108.826L507.794 108ZM491.243 108L488.569 107.06L487.242 110.835H491.243V108ZM516.812 35.2582V32.4235H514.804L514.138 34.3182L516.812 35.2582ZM535.592 35.2582L538.265 34.315L537.598 32.4235H535.592V35.2582ZM561.26 108V110.835H565.266L563.933 107.057L561.26 108ZM535.79 77.8726V80.7074H539.643L538.497 77.0289L535.79 77.8726ZM530.538 61.0251L527.818 61.825L527.825 61.8469L527.832 61.8688L530.538 61.0251ZM529.2 56.7141L526.482 57.5194L526.491 57.5498L526.501 57.5799L529.2 56.7141ZM527.565 51.313L524.839 52.0917L524.847 52.121L524.856 52.1501L527.565 51.313ZM526.276 46.5065L529.03 45.8348H523.522L526.276 46.5065ZM524.889 51.5607L522.17 50.7584L522.166 50.7732L522.162 50.788L524.889 51.5607ZM522.114 61.0251L524.823 61.8615L524.826 61.8505L522.114 61.0251ZM516.911 77.8726L514.203 77.0362L513.069 80.7074H516.911V77.8726ZM547.421 107.174L542.169 89.9301L536.745 91.582L541.998 108.826L547.421 107.174ZM539.457 87.9213H513.046V93.5908H539.457V87.9213ZM510.334 89.9301L505.082 107.174L510.505 108.826L515.758 91.582L510.334 89.9301ZM507.794 105.165H491.243V110.835H507.794V105.165ZM493.918 108.94L519.486 36.1983L514.138 34.3182L488.569 107.06L493.918 108.94ZM516.812 38.093H535.592V32.4235H516.812V38.093ZM532.919 36.2015L558.587 108.943L563.933 107.057L538.265 34.315L532.919 36.2015ZM561.26 105.165H544.71V110.835H561.26V105.165ZM538.497 77.0289L533.244 60.1814L527.832 61.8688L533.084 78.7163L538.497 77.0289ZM533.257 60.2252C532.918 59.0713 532.464 57.6102 531.899 55.8483L526.501 57.5799C527.059 59.3196 527.497 60.7326 527.818 61.825L533.257 60.2252ZM531.918 55.9088C531.386 54.1141 530.838 52.3031 530.273 50.4758L524.856 52.1501C525.415 53.9566 525.957 55.7464 526.482 57.5194L531.918 55.9088ZM530.29 50.5342C529.768 48.7075 529.349 47.1428 529.03 45.8348L523.522 47.1782C523.864 48.579 524.304 50.2186 524.839 52.0917L530.29 50.5342ZM523.522 45.8348C523.207 47.1294 522.758 48.7673 522.17 50.7584L527.608 52.363C528.209 50.3239 528.685 48.5923 529.03 47.1782L523.522 45.8348ZM522.162 50.788C521.603 52.7603 521.061 54.6323 520.536 56.4043L525.972 58.0149C526.504 56.2192 527.052 54.3253 527.616 52.3335L522.162 50.788ZM520.536 56.4043C520.007 58.1879 519.63 59.4509 519.402 60.1997L524.826 61.8505C525.061 61.0797 525.443 59.799 525.972 58.0149L520.536 56.4043ZM519.406 60.1886L514.203 77.0362L519.62 78.7091L524.823 61.8615L519.406 60.1886ZM516.911 80.7074H535.79V75.0379H516.911V80.7074ZM614.032 41.6009L612.092 43.6679L612.101 43.6759L614.032 41.6009ZM619.037 67.2686L621.726 68.165L621.729 68.1558L619.037 67.2686ZM614.33 74.9491L612.295 72.9747L612.288 72.9825L612.28 72.9903L614.33 74.9491ZM605.708 80.3007L606.663 82.9697L606.673 82.9658L606.684 82.9619L605.708 80.3007ZM585.788 82.2332V79.3984H582.953V82.2332H585.788ZM585.788 108V110.835H588.623V108H585.788ZM570.427 108H567.592V110.835H570.427V108ZM570.427 35.5556V32.7208H567.592V35.5556H570.427ZM585.788 48.1417V45.3069H582.953V48.1417H585.788ZM585.788 69.6471H582.953V72.4818H585.788V69.6471ZM601.991 50.7679L600.115 52.8925L600.125 52.9013L600.135 52.9101L601.991 50.7679ZM593.567 38.3903C602.6 38.3903 608.559 40.3516 612.092 43.6679L615.972 39.5338C610.917 34.7897 603.232 32.7208 593.567 32.7208V38.3903ZM612.101 43.6759C615.706 47.031 617.639 51.7319 617.639 58.1511H623.309C623.309 50.4976 620.948 44.165 615.964 39.5258L612.101 43.6759ZM617.639 58.1511C617.639 61.0319 617.205 63.7709 616.345 66.3813L621.729 68.1558C622.785 64.9522 623.309 61.6128 623.309 58.1511H617.639ZM616.348 66.3722C615.529 68.8286 614.189 71.0235 612.295 72.9747L616.364 76.9234C618.83 74.382 620.629 71.4566 621.726 68.165L616.348 66.3722ZM612.28 72.9903C610.494 74.859 608.019 76.433 604.731 77.6394L606.684 82.9619C610.598 81.5256 613.87 79.5319 616.379 76.9078L612.28 72.9903ZM604.753 77.6316C601.551 78.7772 597.453 79.3984 592.378 79.3984V85.0679C597.874 85.0679 602.663 84.4008 606.663 82.9697L604.753 77.6316ZM592.378 79.3984H585.788V85.0679H592.378V79.3984ZM582.953 82.2332V108H588.623V82.2332H582.953ZM585.788 105.165H570.427V110.835H585.788V105.165ZM573.262 108V35.5556H567.592V108H573.262ZM570.427 38.3903H593.567V32.7208H570.427V38.3903ZM592.775 45.3069H585.788V50.9764H592.775V45.3069ZM582.953 48.1417V69.6471H588.623V48.1417H582.953ZM585.788 72.4818H590.842V66.8123H585.788V72.4818ZM590.842 72.4818C593.956 72.4818 596.789 72.0714 599.283 71.1751L597.366 65.8397C595.631 66.4629 593.476 66.8123 590.842 66.8123V72.4818ZM599.283 71.1751C601.867 70.2465 604.003 68.7345 605.537 66.5873L600.923 63.292C600.145 64.3822 599.01 65.2487 597.366 65.8397L599.283 71.1751ZM605.537 66.5873C607.121 64.3691 607.799 61.6657 607.799 58.6962H602.13C602.13 60.8139 601.651 62.2729 600.923 63.292L605.537 66.5873ZM607.799 58.6962C607.799 54.6172 606.653 51.0567 603.848 48.6257L600.135 52.9101C601.294 53.9147 602.13 55.6397 602.13 58.6962H607.799ZM603.868 48.6433C601.141 46.235 597.251 45.3069 592.775 45.3069V50.9764C596.623 50.9764 598.877 51.7992 600.115 52.8925L603.868 48.6433ZM634.15 108H631.315V110.835H634.15V108ZM634.15 35.5556V32.7208H631.315V35.5556H634.15ZM649.511 35.5556H652.346V32.7208H649.511V35.5556ZM649.511 95.3148H646.676V98.1495H649.511V95.3148ZM678.895 95.3148H681.73V92.48H678.895V95.3148ZM678.895 108V110.835H681.73V108H678.895ZM636.985 108V35.5556H631.315V108H636.985ZM634.15 38.3903H649.511V32.7208H634.15V38.3903ZM646.676 35.5556V95.3148H652.346V35.5556H646.676ZM649.511 98.1495H678.895V92.48H649.511V98.1495ZM676.061 95.3148V108H681.73V95.3148H676.061ZM678.895 105.165H634.15V110.835H678.895V105.165ZM735.88 108L733.168 108.826L733.78 110.835H735.88V108ZM730.627 90.756L733.339 89.9301L732.727 87.9213H730.627V90.756ZM704.216 90.756V87.9213H702.116L701.504 89.9301L704.216 90.756ZM698.964 108V110.835H701.064L701.675 108.826L698.964 108ZM682.413 108L679.739 107.06L678.412 110.835H682.413V108ZM707.982 35.2582V32.4235H705.974L705.308 34.3182L707.982 35.2582ZM726.762 35.2582L729.435 34.315L728.768 32.4235H726.762V35.2582ZM752.43 108V110.835H756.436L755.103 107.057L752.43 108ZM726.96 77.8726V80.7074H730.813L729.667 77.0289L726.96 77.8726ZM721.708 61.0251L718.988 61.825L718.995 61.8469L719.002 61.8688L721.708 61.0251ZM720.37 56.7141L717.652 57.5194L717.661 57.5498L717.671 57.5799L720.37 56.7141ZM718.735 51.313L716.009 52.0917L716.017 52.121L716.026 52.1501L718.735 51.313ZM717.446 46.5065L720.2 45.8348H714.692L717.446 46.5065ZM716.059 51.5607L713.34 50.7584L713.336 50.7732L713.332 50.788L716.059 51.5607ZM713.284 61.0251L715.993 61.8615L715.996 61.8505L713.284 61.0251ZM708.081 77.8726L705.373 77.0362L704.239 80.7074H708.081V77.8726ZM738.591 107.174L733.339 89.9301L727.915 91.582L733.168 108.826L738.591 107.174ZM730.627 87.9213H704.216V93.5908H730.627V87.9213ZM701.504 89.9301L696.252 107.174L701.675 108.826L706.928 91.582L701.504 89.9301ZM698.964 105.165H682.413V110.835H698.964V105.165ZM685.088 108.94L710.656 36.1983L705.308 34.3182L679.739 107.06L685.088 108.94ZM707.982 38.093H726.762V32.4235H707.982V38.093ZM724.089 36.2015L749.757 108.943L755.103 107.057L729.435 34.315L724.089 36.2015ZM752.43 105.165H735.88V110.835H752.43V105.165ZM729.667 77.0289L724.414 60.1814L719.002 61.8688L724.254 78.7163L729.667 77.0289ZM724.427 60.2252C724.088 59.0713 723.634 57.6102 723.069 55.8483L717.671 57.5799C718.229 59.3196 718.667 60.7326 718.988 61.825L724.427 60.2252ZM723.088 55.9088C722.556 54.1141 722.008 52.3031 721.443 50.4758L716.026 52.1501C716.585 53.9566 717.127 55.7464 717.652 57.5194L723.088 55.9088ZM721.46 50.5342C720.939 48.7075 720.519 47.1428 720.2 45.8348L714.692 47.1782C715.034 48.579 715.474 50.2186 716.009 52.0917L721.46 50.5342ZM714.692 45.8348C714.377 47.1294 713.928 48.7673 713.34 50.7584L718.778 52.363C719.38 50.3239 719.856 48.5923 720.2 47.1782L714.692 45.8348ZM713.332 50.788C712.773 52.7603 712.231 54.6323 711.706 56.4043L717.142 58.0149C717.674 56.2192 718.222 54.3253 718.786 52.3335L713.332 50.788ZM711.706 56.4043C711.177 58.1879 710.8 59.4509 710.572 60.1997L715.996 61.8505C716.231 61.0797 716.613 59.799 717.142 58.0149L711.706 56.4043ZM710.576 60.1886L705.373 77.0362L710.79 78.7091L715.993 61.8615L710.576 60.1886ZM708.081 80.7074H726.96V75.0379H708.081V80.7074ZM784.539 49.0336L785.807 51.5691L785.814 51.5654L785.822 51.5617L784.539 49.0336ZM778.841 53.9392L776.544 52.2782L776.535 52.2899L776.527 52.3017L778.841 53.9392ZM776.066 85.1072L773.387 86.0328L773.392 86.0475L773.397 86.0621L776.066 85.1072ZM782.012 93.3823L780.362 95.6871L780.371 95.6939L780.381 95.7006L782.012 93.3823ZM801.189 95.2157L800.574 92.4484L800.567 92.4499L801.189 95.2157ZM810.851 92.3912H813.686V88.3867L809.909 89.7176L810.851 92.3912ZM810.851 105.275L811.932 107.895L813.686 107.172V105.275H810.851ZM801.387 108.099L800.882 105.31L800.868 105.312L800.854 105.315L801.387 108.099ZM772.498 104.383L770.956 106.761L770.966 106.768L770.975 106.774L772.498 104.383ZM761.845 91.4002L759.226 92.485L759.228 92.4905L761.845 91.4002ZM803.171 35.9024L802.466 38.648L802.48 38.6518L802.495 38.6554L803.171 35.9024ZM813.577 39.6188L816.211 40.6644L817.187 38.2072L814.803 37.0632L813.577 39.6188ZM808.621 52.1058L807.404 54.6658L810.139 55.9667L811.256 53.1514L808.621 52.1058ZM792.369 44.4645C789.05 44.4645 785.99 45.1193 783.257 46.5055L785.822 51.5617C787.648 50.6354 789.807 50.134 792.369 50.134V44.4645ZM783.272 46.4981C780.594 47.8369 778.349 49.7818 776.544 52.2782L781.138 55.6002C782.438 53.8021 783.992 52.4767 785.807 51.5691L783.272 46.4981ZM776.527 52.3017C774.776 54.7762 773.492 57.696 772.629 61.0033L778.115 62.4344C778.838 59.6633 779.867 57.3967 781.155 55.5767L776.527 52.3017ZM772.629 61.0033C771.764 64.3188 771.348 67.9841 771.348 71.976H777.018C777.018 68.3699 777.395 65.1972 778.115 62.4344L772.629 61.0033ZM771.348 71.976C771.348 77.3133 772.001 82.0209 773.387 86.0328L778.745 84.1816C777.621 80.9259 777.018 76.8793 777.018 71.976H771.348ZM773.397 86.0621C774.847 90.1154 777.145 93.3833 780.362 95.6871L783.663 91.0775C781.528 89.5493 779.862 87.3004 778.735 84.1522L773.397 86.0621ZM780.381 95.7006C783.657 98.0058 787.726 99.0415 792.369 99.0415V93.372C788.554 93.372 785.719 92.5247 783.644 91.064L780.381 95.7006ZM792.369 99.0415C795.523 99.0415 798.671 98.6868 801.81 97.9815L800.567 92.4499C797.826 93.0659 795.094 93.372 792.369 93.372V99.0415ZM801.804 97.9829C804.908 97.2932 808.239 96.3174 811.793 95.0649L809.909 89.7176C806.526 90.9096 803.416 91.8168 800.574 92.4484L801.804 97.9829ZM808.017 92.3912V105.275H813.686V92.3912H808.017ZM809.771 102.654C806.734 103.906 803.772 104.787 800.882 105.31L801.891 110.889C805.212 110.288 808.56 109.286 811.932 107.895L809.771 102.654ZM800.854 105.315C797.958 105.869 794.656 106.156 790.932 106.156V111.826C794.938 111.826 798.605 111.518 801.92 110.883L800.854 105.315ZM790.932 106.156C783.843 106.156 778.27 104.698 774.021 101.992L770.975 106.774C776.373 110.212 783.088 111.826 790.932 111.826V106.156ZM774.04 102.004C769.757 99.2271 766.566 95.3614 764.461 90.3099L759.228 92.4905C761.748 98.5386 765.66 103.328 770.956 106.761L774.04 102.004ZM764.464 90.3154C762.322 85.1458 761.211 79.0205 761.211 71.8769H755.541C755.541 79.5987 756.742 86.489 759.226 92.485L764.464 90.3154ZM761.211 71.8769C761.211 66.6495 761.919 61.9296 763.301 57.692L757.911 55.9344C756.32 60.8143 755.541 66.1368 755.541 71.8769H761.211ZM763.301 57.692C764.682 53.4581 766.687 49.8482 769.295 46.8204L764.999 43.1203C761.859 46.7655 759.503 51.0508 757.911 55.9344L763.301 57.692ZM769.295 46.8204C771.875 43.8251 775.068 41.4995 778.919 39.8448L776.681 34.6358C772.075 36.6149 768.167 39.4426 764.999 43.1203L769.295 46.8204ZM778.919 39.8448C782.733 38.206 787.197 37.3497 792.369 37.3497V31.6802C786.572 31.6802 781.324 32.6408 776.681 34.6358L778.919 39.8448ZM792.369 37.3497C795.724 37.3497 799.088 37.7803 802.466 38.648L803.876 33.1568C800.052 32.1746 796.215 31.6802 792.369 31.6802V37.3497ZM802.495 38.6554C805.943 39.5017 809.227 40.6751 812.35 42.1744L814.803 37.0632C811.32 35.3911 807.666 34.087 803.846 33.1494L802.495 38.6554ZM810.942 38.5732L805.987 51.0602L811.256 53.1514L816.211 40.6644L810.942 38.5732ZM809.839 49.5458C807.041 48.2152 804.222 47.0529 801.38 46.0602L799.51 51.4124C802.153 52.3357 804.784 53.4197 807.404 54.6658L809.839 49.5458ZM801.38 46.0602C798.368 45.0075 795.36 44.4645 792.369 44.4645V50.134C794.663 50.134 797.039 50.549 799.51 51.4124L801.38 46.0602ZM868.034 108V110.835H870.869V108H868.034ZM826.311 108H823.477V110.835H826.311V108ZM826.311 35.5556V32.7208H823.477V35.5556H826.311ZM868.034 35.5556H870.869V32.7208H868.034V35.5556ZM868.034 48.1417V50.9764H870.869V48.1417H868.034ZM841.672 48.1417V45.3069H838.838V48.1417H841.672ZM841.672 64.0477H838.838V66.8825H841.672V64.0477ZM866.2 64.0477H869.035V61.213H866.2V64.0477ZM866.2 76.6338V79.4686H869.035V76.6338H866.2ZM841.672 76.6338V73.7991H838.838V76.6338H841.672ZM841.672 95.3148H838.838V98.1495H841.672V95.3148ZM868.034 95.3148H870.869V92.48H868.034V95.3148ZM868.034 105.165H826.311V110.835H868.034V105.165ZM829.146 108V35.5556H823.477V108H829.146ZM826.311 38.3903H868.034V32.7208H826.311V38.3903ZM865.199 35.5556V48.1417H870.869V35.5556H865.199ZM868.034 45.3069H841.672V50.9764H868.034V45.3069ZM838.838 48.1417V64.0477H844.507V48.1417H838.838ZM841.672 66.8825H866.2V61.213H841.672V66.8825ZM863.366 64.0477V76.6338H869.035V64.0477H863.366ZM866.2 73.7991H841.672V79.4686H866.2V73.7991ZM838.838 76.6338V95.3148H844.507V76.6338H838.838ZM841.672 98.1495H868.034V92.48H841.672V98.1495ZM865.199 95.3148V108H870.869V95.3148H865.199Z" fill="#588BA5"/>
<path opacity="0.5" d="M299.479 145.832H302.313V142.998H299.479V145.832ZM296.159 206.236L293.674 204.871L293.67 204.878L296.159 206.236ZM286.199 215.75L284.879 213.241L284.872 213.245L286.199 215.75ZM240.017 145.832V142.998H237.182V145.832H240.017ZM255.328 145.832H258.163V142.998H255.328V145.832ZM258.995 202.767L257.004 204.785L258.995 202.767ZM278.023 204.65L276.663 202.163L276.654 202.168L276.646 202.172L278.023 204.65ZM284.167 145.832V142.998H281.333V145.832H284.167ZM296.644 145.832V192.708H302.313V145.832H296.644ZM296.644 192.708C296.644 197.261 295.638 201.294 293.674 204.871L298.643 207.6C301.106 203.117 302.313 198.132 302.313 192.708H296.644ZM293.67 204.878C291.786 208.333 288.899 211.127 284.879 213.241L287.518 218.259C292.418 215.682 296.171 212.133 298.647 207.593L293.67 204.878ZM284.872 213.245C280.97 215.312 275.88 216.433 269.45 216.433V222.103C276.499 222.103 282.574 220.878 287.526 218.255L284.872 213.245ZM269.45 216.433C260.333 216.433 253.849 214.112 249.526 209.903L245.571 213.965C251.291 219.535 259.408 222.103 269.45 222.103V216.433ZM249.526 209.903C245.137 205.629 242.852 199.931 242.852 192.51H237.182C237.182 201.21 239.918 208.461 245.571 213.965L249.526 209.903ZM242.852 192.51V145.832H237.182V192.51H242.852ZM240.017 148.667H255.328V142.998H240.017V148.667ZM252.493 145.832V190.181H258.163V145.832H252.493ZM252.493 190.181C252.493 196.396 253.736 201.561 257.004 204.785L260.986 200.749C259.365 199.15 258.163 195.924 258.163 190.181H252.493ZM257.004 204.785C260.159 207.898 264.61 209.219 269.847 209.219V203.55C265.504 203.55 262.72 202.46 260.986 200.749L257.004 204.785ZM269.847 209.219C273.509 209.219 276.758 208.595 279.4 207.128L276.646 202.172C275.125 203.017 272.923 203.55 269.847 203.55V209.219ZM279.383 207.137C282.115 205.643 284.087 203.335 285.303 200.376L280.059 198.221C279.293 200.085 278.159 201.345 276.663 202.163L279.383 207.137ZM285.303 200.376C286.481 197.509 287.002 194.038 287.002 190.082H281.333C281.333 193.592 280.863 196.265 280.059 198.221L285.303 200.376ZM287.002 190.082V145.832H281.333V190.082H287.002ZM284.167 148.667H299.479V142.998H284.167V148.667ZM317.218 218.277H314.383V221.112H317.218V218.277ZM317.218 145.832V142.998H314.383V145.832H317.218ZM332.579 145.832H335.414V142.998H332.579V145.832ZM332.579 205.592H329.744V208.426H332.579V205.592ZM361.963 205.592H364.798V202.757H361.963V205.592ZM361.963 218.277V221.112H364.798V218.277H361.963ZM320.053 218.277V145.832H314.383V218.277H320.053ZM317.218 148.667H332.579V142.998H317.218V148.667ZM329.744 145.832V205.592H335.414V145.832H329.744ZM332.579 208.426H361.963V202.757H332.579V208.426ZM359.129 205.592V218.277H364.798V205.592H359.129ZM361.963 215.442H317.218V221.112H361.963V215.442ZM402.546 218.277V221.112H405.381V218.277H402.546ZM387.185 218.277H384.35V221.112H387.185V218.277ZM387.185 158.617H390.02V155.782H387.185V158.617ZM367.513 158.617H364.678V161.451H367.513V158.617ZM367.513 145.832V142.998H364.678V145.832H367.513ZM422.218 145.832H425.053V142.998H422.218V145.832ZM422.218 158.617V161.451H425.053V158.617H422.218ZM402.546 158.617V155.782H399.711V158.617H402.546ZM402.546 215.442H387.185V221.112H402.546V215.442ZM390.02 218.277V158.617H384.35V218.277H390.02ZM387.185 155.782H367.513V161.451H387.185V155.782ZM370.348 158.617V145.832H364.678V158.617H370.348ZM367.513 148.667H422.218V142.998H367.513V148.667ZM419.383 145.832V158.617H425.053V145.832H419.383ZM422.218 155.782H402.546V161.451H422.218V155.782ZM399.711 158.617V218.277H405.381V158.617H399.711ZM470.729 148.211L469.74 150.868L469.747 150.87L470.729 148.211ZM476.576 182.501L478.398 184.673L476.576 182.501ZM469.936 186.712L468.755 184.136L465.717 185.528L467.587 188.299L469.936 186.712ZM491.243 218.277V221.112H496.577L493.593 216.691L491.243 218.277ZM474.198 218.277L471.791 219.774L472.623 221.112H474.198V218.277ZM456.904 190.478L459.311 188.981L458.479 187.644H456.904V190.478ZM448.728 190.478V187.644H445.893V190.478H448.728ZM448.728 218.277V221.112H451.563V218.277H448.728ZM433.367 218.277H430.532V221.112H433.367V218.277ZM433.367 145.832V142.998H430.532V145.832H433.367ZM448.728 158.419V155.584H445.893V158.419H448.728ZM448.728 177.991H445.893V180.826H448.728V177.991ZM464.585 175.464L466.318 177.707L466.323 177.704L464.585 175.464ZM464.337 160.599L462.844 163.008L462.851 163.013L462.859 163.018L464.337 160.599ZM454.476 148.667C460.85 148.667 465.903 149.44 469.74 150.868L471.718 145.554C467.033 143.811 461.25 142.998 454.476 142.998V148.667ZM469.747 150.87C473.585 152.287 476.229 154.343 477.915 156.94L482.67 153.852C480.194 150.04 476.462 147.306 471.711 145.552L469.747 150.87ZM477.915 156.94C479.625 159.572 480.579 163.043 480.579 167.536H486.249C486.249 162.251 485.123 157.628 482.67 153.852L477.915 156.94ZM480.579 167.536C480.579 170.478 480.022 172.914 479.003 174.926L484.06 177.489C485.551 174.546 486.249 171.201 486.249 167.536H480.579ZM479.003 174.926C477.913 177.076 476.498 178.867 474.754 180.329L478.398 184.673C480.751 182.699 482.638 180.294 484.06 177.489L479.003 174.926ZM474.754 180.329C472.897 181.887 470.898 183.153 468.755 184.136L471.117 189.289C473.731 188.091 476.159 186.55 478.398 184.673L474.754 180.329ZM467.587 188.299L488.894 219.863L493.593 216.691L472.286 185.126L467.587 188.299ZM491.243 215.442H474.198V221.112H491.243V215.442ZM476.605 216.779L459.311 188.981L454.497 191.976L471.791 219.774L476.605 216.779ZM456.904 187.644H448.728V193.313H456.904V187.644ZM445.893 190.478V218.277H451.563V190.478H445.893ZM448.728 215.442H433.367V221.112H448.728V215.442ZM436.202 218.277V145.832H430.532V218.277H436.202ZM433.367 148.667H454.476V142.998H433.367V148.667ZM453.386 155.584H448.728V161.253H453.386V155.584ZM445.893 158.419V177.991H451.563V158.419H445.893ZM448.728 180.826H453.683V175.157H448.728V180.826ZM453.683 180.826C458.935 180.826 463.369 179.986 466.318 177.707L462.851 173.221C461.439 174.312 458.606 175.157 453.683 175.157V180.826ZM466.323 177.704C469.356 175.349 470.739 171.935 470.739 167.932H465.07C465.07 170.536 464.24 172.144 462.847 173.225L466.323 177.704ZM470.739 167.932C470.739 163.775 469.241 160.273 465.815 158.18L462.859 163.018C464.19 163.831 465.07 165.219 465.07 167.932H470.739ZM465.83 158.189C462.805 156.314 458.506 155.584 453.386 155.584V161.253C458.176 161.253 461.178 161.976 462.844 163.008L465.83 158.189ZM544.71 218.277L541.998 219.103L542.61 221.112H544.71V218.277ZM539.457 201.033L542.169 200.207L541.557 198.198H539.457V201.033ZM513.046 201.033V198.198H510.946L510.334 200.207L513.046 201.033ZM507.794 218.277V221.112H509.894L510.505 219.103L507.794 218.277ZM491.243 218.277L488.569 217.337L487.242 221.112H491.243V218.277ZM516.812 145.535V142.7H514.804L514.138 144.595L516.812 145.535ZM535.592 145.535L538.265 144.592L537.598 142.7H535.592V145.535ZM561.26 218.277V221.112H565.266L563.933 217.334L561.26 218.277ZM535.79 188.149V190.984H539.643L538.497 187.306L535.79 188.149ZM530.538 171.302L527.818 172.102L527.825 172.124L527.832 172.146L530.538 171.302ZM529.2 166.991L526.482 167.796L526.491 167.827L526.501 167.857L529.2 166.991ZM527.565 161.59L524.839 162.369L524.847 162.398L524.856 162.427L527.565 161.59ZM526.276 156.783L529.03 156.112H523.522L526.276 156.783ZM524.889 161.838L522.17 161.035L522.166 161.05L522.162 161.065L524.889 161.838ZM522.114 171.302L524.823 172.138L524.826 172.127L522.114 171.302ZM516.911 188.149L514.203 187.313L513.069 190.984H516.911V188.149ZM547.421 217.451L542.169 200.207L536.745 201.859L541.998 219.103L547.421 217.451ZM539.457 198.198H513.046V203.868H539.457V198.198ZM510.334 200.207L505.082 217.451L510.505 219.103L515.758 201.859L510.334 200.207ZM507.794 215.442H491.243V221.112H507.794V215.442ZM493.918 219.217L519.486 146.475L514.138 144.595L488.569 217.337L493.918 219.217ZM516.812 148.37H535.592V142.7H516.812V148.37ZM532.919 146.478L558.587 219.22L563.933 217.334L538.265 144.592L532.919 146.478ZM561.26 215.442H544.71V221.112H561.26V215.442ZM538.497 187.306L533.244 170.458L527.832 172.146L533.084 188.993L538.497 187.306ZM533.257 170.502C532.918 169.348 532.464 167.887 531.899 166.125L526.501 167.857C527.059 169.596 527.497 171.009 527.818 172.102L533.257 170.502ZM531.918 166.186C531.386 164.391 530.838 162.58 530.273 160.753L524.856 162.427C525.415 164.233 525.957 166.023 526.482 167.796L531.918 166.186ZM530.29 160.811C529.768 158.984 529.349 157.42 529.03 156.112L523.522 157.455C523.864 158.856 524.304 160.495 524.839 162.369L530.29 160.811ZM523.522 156.112C523.207 157.406 522.758 159.044 522.17 161.035L527.608 162.64C528.209 160.601 528.685 158.869 529.03 157.455L523.522 156.112ZM522.162 161.065C521.603 163.037 521.061 164.909 520.536 166.681L525.972 168.292C526.504 166.496 527.052 164.602 527.616 162.61L522.162 161.065ZM520.536 166.681C520.007 168.465 519.63 169.728 519.402 170.477L524.826 172.127C525.061 171.357 525.443 170.076 525.972 168.292L520.536 166.681ZM519.406 170.465L514.203 187.313L519.62 188.986L524.823 172.138L519.406 170.465ZM516.911 190.984H535.79V185.315H516.911V190.984ZM614.032 151.878L612.092 153.945L612.101 153.953L614.032 151.878ZM619.037 177.545L621.726 178.442L621.729 178.433L619.037 177.545ZM614.33 185.226L612.295 183.252L612.288 183.259L612.28 183.267L614.33 185.226ZM605.708 190.578L606.663 193.247L606.673 193.243L606.684 193.239L605.708 190.578ZM585.788 192.51V189.675H582.953V192.51H585.788ZM585.788 218.277V221.112H588.623V218.277H585.788ZM570.427 218.277H567.592V221.112H570.427V218.277ZM570.427 145.832V142.998H567.592V145.832H570.427ZM585.788 158.419V155.584H582.953V158.419H585.788ZM585.788 179.924H582.953V182.759H585.788V179.924ZM601.991 161.045L600.115 163.169L600.125 163.178L600.135 163.187L601.991 161.045ZM593.567 148.667C602.6 148.667 608.559 150.628 612.092 153.945L615.972 149.811C610.917 145.067 603.232 142.998 593.567 142.998V148.667ZM612.101 153.953C615.706 157.308 617.639 162.009 617.639 168.428H623.309C623.309 160.774 620.948 154.442 615.964 149.803L612.101 153.953ZM617.639 168.428C617.639 171.309 617.205 174.048 616.345 176.658L621.729 178.433C622.785 175.229 623.309 171.89 623.309 168.428H617.639ZM616.348 176.649C615.529 179.105 614.189 181.3 612.295 183.252L616.364 187.2C618.83 184.659 620.629 181.733 621.726 178.442L616.348 176.649ZM612.28 183.267C610.494 185.136 608.019 186.71 604.731 187.916L606.684 193.239C610.598 191.802 613.87 189.809 616.379 187.185L612.28 183.267ZM604.753 187.908C601.551 189.054 597.453 189.675 592.378 189.675V195.345C597.874 195.345 602.663 194.678 606.663 193.247L604.753 187.908ZM592.378 189.675H585.788V195.345H592.378V189.675ZM582.953 192.51V218.277H588.623V192.51H582.953ZM585.788 215.442H570.427V221.112H585.788V215.442ZM573.262 218.277V145.832H567.592V218.277H573.262ZM570.427 148.667H593.567V142.998H570.427V148.667ZM592.775 155.584H585.788V161.253H592.775V155.584ZM582.953 158.419V179.924H588.623V158.419H582.953ZM585.788 182.759H590.842V177.089H585.788V182.759ZM590.842 182.759C593.956 182.759 596.789 182.348 599.283 181.452L597.366 176.117C595.631 176.74 593.476 177.089 590.842 177.089V182.759ZM599.283 181.452C601.867 180.523 604.003 179.011 605.537 176.864L600.923 173.569C600.145 174.659 599.01 175.526 597.366 176.117L599.283 181.452ZM605.537 176.864C607.121 174.646 607.799 171.943 607.799 168.973H602.13C602.13 171.091 601.651 172.55 600.923 173.569L605.537 176.864ZM607.799 168.973C607.799 164.894 606.653 161.334 603.848 158.903L600.135 163.187C601.294 164.192 602.13 165.917 602.13 168.973H607.799ZM603.868 158.92C601.141 156.512 597.251 155.584 592.775 155.584V161.253C596.623 161.253 598.877 162.076 600.115 163.169L603.868 158.92ZM634.15 218.277H631.315V221.112H634.15V218.277ZM634.15 145.832V142.998H631.315V145.832H634.15ZM649.511 145.832H652.346V142.998H649.511V145.832ZM649.511 205.592H646.676V208.426H649.511V205.592ZM678.895 205.592H681.73V202.757H678.895V205.592ZM678.895 218.277V221.112H681.73V218.277H678.895ZM636.985 218.277V145.832H631.315V218.277H636.985ZM634.15 148.667H649.511V142.998H634.15V148.667ZM646.676 145.832V205.592H652.346V145.832H646.676ZM649.511 208.426H678.895V202.757H649.511V208.426ZM676.061 205.592V218.277H681.73V205.592H676.061ZM678.895 215.442H634.15V221.112H678.895V215.442ZM735.88 218.277L733.168 219.103L733.78 221.112H735.88V218.277ZM730.627 201.033L733.339 200.207L732.727 198.198H730.627V201.033ZM704.216 201.033V198.198H702.116L701.504 200.207L704.216 201.033ZM698.964 218.277V221.112H701.064L701.675 219.103L698.964 218.277ZM682.413 218.277L679.739 217.337L678.412 221.112H682.413V218.277ZM707.982 145.535V142.7H705.974L705.308 144.595L707.982 145.535ZM726.762 145.535L729.435 144.592L728.768 142.7H726.762V145.535ZM752.43 218.277V221.112H756.436L755.103 217.334L752.43 218.277ZM726.96 188.149V190.984H730.813L729.667 187.306L726.96 188.149ZM721.708 171.302L718.988 172.102L718.995 172.124L719.002 172.146L721.708 171.302ZM720.37 166.991L717.652 167.796L717.661 167.827L717.671 167.857L720.37 166.991ZM718.735 161.59L716.009 162.369L716.017 162.398L716.026 162.427L718.735 161.59ZM717.446 156.783L720.2 156.112H714.692L717.446 156.783ZM716.059 161.838L713.34 161.035L713.336 161.05L713.332 161.065L716.059 161.838ZM713.284 171.302L715.993 172.138L715.996 172.127L713.284 171.302ZM708.081 188.149L705.373 187.313L704.239 190.984H708.081V188.149ZM738.591 217.451L733.339 200.207L727.915 201.859L733.168 219.103L738.591 217.451ZM730.627 198.198H704.216V203.868H730.627V198.198ZM701.504 200.207L696.252 217.451L701.675 219.103L706.928 201.859L701.504 200.207ZM698.964 215.442H682.413V221.112H698.964V215.442ZM685.088 219.217L710.656 146.475L705.308 144.595L679.739 217.337L685.088 219.217ZM707.982 148.37H726.762V142.7H707.982V148.37ZM724.089 146.478L749.757 219.22L755.103 217.334L729.435 144.592L724.089 146.478ZM752.43 215.442H735.88V221.112H752.43V215.442ZM729.667 187.306L724.414 170.458L719.002 172.146L724.254 188.993L729.667 187.306ZM724.427 170.502C724.088 169.348 723.634 167.887 723.069 166.125L717.671 167.857C718.229 169.596 718.667 171.009 718.988 172.102L724.427 170.502ZM723.088 166.186C722.556 164.391 722.008 162.58 721.443 160.753L716.026 162.427C716.585 164.233 717.127 166.023 717.652 167.796L723.088 166.186ZM721.46 160.811C720.939 158.984 720.519 157.42 720.2 156.112L714.692 157.455C715.034 158.856 715.474 160.495 716.009 162.369L721.46 160.811ZM714.692 156.112C714.377 157.406 713.928 159.044 713.34 161.035L718.778 162.64C719.38 160.601 719.856 158.869 720.2 157.455L714.692 156.112ZM713.332 161.065C712.773 163.037 712.231 164.909 711.706 166.681L717.142 168.292C717.674 166.496 718.222 164.602 718.786 162.61L713.332 161.065ZM711.706 166.681C711.177 168.465 710.8 169.728 710.572 170.477L715.996 172.127C716.231 171.357 716.613 170.076 717.142 168.292L711.706 166.681ZM710.576 170.465L705.373 187.313L710.79 188.986L715.993 172.138L710.576 170.465ZM708.081 190.984H726.96V185.315H708.081V190.984ZM784.539 159.31L785.807 161.846L785.814 161.842L785.822 161.839L784.539 159.31ZM778.841 164.216L776.544 162.555L776.535 162.567L776.527 162.579L778.841 164.216ZM776.066 195.384L773.387 196.31L773.392 196.324L773.397 196.339L776.066 195.384ZM782.012 203.659L780.362 205.964L780.371 205.971L780.381 205.977L782.012 203.659ZM801.189 205.493L800.574 202.725L800.567 202.727L801.189 205.493ZM810.851 202.668H813.686V198.664L809.909 199.994L810.851 202.668ZM810.851 215.552L811.932 218.172L813.686 217.449V215.552H810.851ZM801.387 218.376L800.882 215.586L800.868 215.589L800.854 215.592L801.387 218.376ZM772.498 214.66L770.956 217.038L770.966 217.044L770.975 217.05L772.498 214.66ZM761.845 201.677L759.226 202.762L759.228 202.767L761.845 201.677ZM803.171 146.179L802.466 148.925L802.48 148.929L802.495 148.932L803.171 146.179ZM813.577 149.896L816.211 150.941L817.187 148.484L814.803 147.34L813.577 149.896ZM808.621 162.383L807.404 164.943L810.139 166.244L811.256 163.428L808.621 162.383ZM792.369 154.741C789.05 154.741 785.99 155.396 783.257 156.782L785.822 161.839C787.648 160.912 789.807 160.411 792.369 160.411V154.741ZM783.272 156.775C780.594 158.114 778.349 160.059 776.544 162.555L781.138 165.877C782.438 164.079 783.992 162.754 785.807 161.846L783.272 156.775ZM776.527 162.579C774.776 165.053 773.492 167.973 772.629 171.28L778.115 172.711C778.838 169.94 779.867 167.674 781.155 165.854L776.527 162.579ZM772.629 171.28C771.764 174.596 771.348 178.261 771.348 182.253H777.018C777.018 178.647 777.395 175.474 778.115 172.711L772.629 171.28ZM771.348 182.253C771.348 187.59 772.001 192.298 773.387 196.31L778.745 194.458C777.621 191.203 777.018 187.156 777.018 182.253H771.348ZM773.397 196.339C774.847 200.392 777.145 203.66 780.362 205.964L783.663 201.354C781.528 199.826 779.862 197.577 778.735 194.429L773.397 196.339ZM780.381 205.977C783.657 208.283 787.726 209.318 792.369 209.318V203.649C788.554 203.649 785.719 202.802 783.644 201.341L780.381 205.977ZM792.369 209.318C795.523 209.318 798.671 208.964 801.81 208.258L800.567 202.727C797.826 203.343 795.094 203.649 792.369 203.649V209.318ZM801.804 208.26C804.908 207.57 808.239 206.594 811.793 205.342L809.909 199.994C806.526 201.186 803.416 202.094 800.574 202.725L801.804 208.26ZM808.017 202.668V215.552H813.686V202.668H808.017ZM809.771 212.931C806.734 214.183 803.772 215.064 800.882 215.586L801.891 221.165C805.212 220.565 808.56 219.563 811.932 218.172L809.771 212.931ZM800.854 215.592C797.958 216.146 794.656 216.433 790.932 216.433V222.103C794.938 222.103 798.605 221.795 801.92 221.16L800.854 215.592ZM790.932 216.433C783.843 216.433 778.27 214.975 774.021 212.269L770.975 217.05C776.373 220.489 783.088 222.103 790.932 222.103V216.433ZM774.04 212.281C769.757 209.504 766.566 205.638 764.461 200.587L759.228 202.767C761.748 208.815 765.66 213.605 770.956 217.038L774.04 212.281ZM764.464 200.592C762.322 195.423 761.211 189.297 761.211 182.154H755.541C755.541 189.876 756.742 196.766 759.226 202.762L764.464 200.592ZM761.211 182.154C761.211 176.926 761.919 172.206 763.301 167.969L757.911 166.211C756.32 171.091 755.541 176.414 755.541 182.154H761.211ZM763.301 167.969C764.682 163.735 766.687 160.125 769.295 157.097L764.999 153.397C761.859 157.042 759.503 161.328 757.911 166.211L763.301 167.969ZM769.295 157.097C771.875 154.102 775.068 151.776 778.919 150.122L776.681 144.913C772.075 146.892 768.167 149.72 764.999 153.397L769.295 157.097ZM778.919 150.122C782.733 148.483 787.197 147.627 792.369 147.627V141.957C786.572 141.957 781.324 142.918 776.681 144.913L778.919 150.122ZM792.369 147.627C795.724 147.627 799.088 148.057 802.466 148.925L803.876 143.434C800.052 142.451 796.215 141.957 792.369 141.957V147.627ZM802.495 148.932C805.943 149.779 809.227 150.952 812.35 152.451L814.803 147.34C811.32 145.668 807.666 144.364 803.846 143.426L802.495 148.932ZM810.942 148.85L805.987 161.337L811.256 163.428L816.211 150.941L810.942 148.85ZM809.839 159.823C807.041 158.492 804.222 157.33 801.38 156.337L799.51 161.689C802.153 162.613 804.784 163.697 807.404 164.943L809.839 159.823ZM801.38 156.337C798.368 155.284 795.36 154.741 792.369 154.741V160.411C794.663 160.411 797.039 160.826 799.51 161.689L801.38 156.337ZM868.034 218.277V221.112H870.869V218.277H868.034ZM826.311 218.277H823.477V221.112H826.311V218.277ZM826.311 145.832V142.998H823.477V145.832H826.311ZM868.034 145.832H870.869V142.998H868.034V145.832ZM868.034 158.419V161.253H870.869V158.419H868.034ZM841.672 158.419V155.584H838.838V158.419H841.672ZM841.672 174.325H838.838V177.159H841.672V174.325ZM866.2 174.325H869.035V171.49H866.2V174.325ZM866.2 186.911V189.745H869.035V186.911H866.2ZM841.672 186.911V184.076H838.838V186.911H841.672ZM841.672 205.592H838.838V208.426H841.672V205.592ZM868.034 205.592H870.869V202.757H868.034V205.592ZM868.034 215.442H826.311V221.112H868.034V215.442ZM829.146 218.277V145.832H823.477V218.277H829.146ZM826.311 148.667H868.034V142.998H826.311V148.667ZM865.199 145.832V158.419H870.869V145.832H865.199ZM868.034 155.584H841.672V161.253H868.034V155.584ZM838.838 158.419V174.325H844.507V158.419H838.838ZM841.672 177.159H866.2V171.49H841.672V177.159ZM863.366 174.325V186.911H869.035V174.325H863.366ZM866.2 184.076H841.672V189.745H866.2V184.076ZM838.838 186.911V205.592H844.507V186.911H838.838ZM841.672 208.426H868.034V202.757H841.672V208.426ZM865.199 205.592V218.277H870.869V205.592H865.199Z" fill="#588BA5"/>
<path opacity="0.2" d="M299.479 254.08H302.313V251.245H299.479V254.08ZM296.159 314.483L293.674 313.119L293.67 313.126L296.159 314.483ZM286.199 323.997L284.879 321.488L284.872 321.492L286.199 323.997ZM240.017 254.08V251.245H237.182V254.08H240.017ZM255.328 254.08H258.163V251.245H255.328V254.08ZM258.995 311.015L257.004 313.033L258.995 311.015ZM278.023 312.897L276.663 310.41L276.654 310.415L276.646 310.419L278.023 312.897ZM284.167 254.08V251.245H281.333V254.08H284.167ZM296.644 254.08V300.956H302.313V254.08H296.644ZM296.644 300.956C296.644 305.508 295.638 309.542 293.674 313.119L298.643 315.848C301.106 311.364 302.313 306.379 302.313 300.956H296.644ZM293.67 313.126C291.786 316.58 288.899 319.374 284.879 321.488L287.518 326.506C292.418 323.929 296.171 320.38 298.647 315.841L293.67 313.126ZM284.872 321.492C280.97 323.559 275.88 324.68 269.45 324.68V330.35C276.499 330.35 282.574 329.126 287.526 326.502L284.872 321.492ZM269.45 324.68C260.333 324.68 253.849 322.359 249.526 318.151L245.571 322.213C251.291 327.782 259.408 330.35 269.45 330.35V324.68ZM249.526 318.151C245.137 313.876 242.852 308.178 242.852 300.757H237.182C237.182 309.458 239.918 316.709 245.571 322.213L249.526 318.151ZM242.852 300.757V254.08H237.182V300.757H242.852ZM240.017 256.914H255.328V251.245H240.017V256.914ZM252.493 254.08V298.428H258.163V254.08H252.493ZM252.493 298.428C252.493 304.644 253.736 309.809 257.004 313.033L260.986 308.996C259.365 307.397 258.163 304.172 258.163 298.428H252.493ZM257.004 313.033C260.159 316.145 264.61 317.467 269.847 317.467V311.797C265.504 311.797 262.72 310.707 260.986 308.996L257.004 313.033ZM269.847 317.467C273.509 317.467 276.758 316.843 279.4 315.375L276.646 310.419C275.125 311.265 272.923 311.797 269.847 311.797V317.467ZM279.383 315.385C282.115 313.891 284.087 311.583 285.303 308.623L280.059 306.468C279.293 308.332 278.159 309.592 276.663 310.41L279.383 315.385ZM285.303 308.623C286.481 305.756 287.002 302.285 287.002 298.329H281.333C281.333 301.84 280.863 304.513 280.059 306.468L285.303 308.623ZM287.002 298.329V254.08H281.333V298.329H287.002ZM284.167 256.914H299.479V251.245H284.167V256.914ZM317.218 326.524H314.383V329.359H317.218V326.524ZM317.218 254.08V251.245H314.383V254.08H317.218ZM332.579 254.08H335.414V251.245H332.579V254.08ZM332.579 313.839H329.744V316.674H332.579V313.839ZM361.963 313.839H364.798V311.004H361.963V313.839ZM361.963 326.524V329.359H364.798V326.524H361.963ZM320.053 326.524V254.08H314.383V326.524H320.053ZM317.218 256.914H332.579V251.245H317.218V256.914ZM329.744 254.08V313.839H335.414V254.08H329.744ZM332.579 316.674H361.963V311.004H332.579V316.674ZM359.129 313.839V326.524H364.798V313.839H359.129ZM361.963 323.689H317.218V329.359H361.963V323.689ZM402.546 326.524V329.359H405.381V326.524H402.546ZM387.185 326.524H384.35V329.359H387.185V326.524ZM387.185 266.864H390.02V264.029H387.185V266.864ZM367.513 266.864H364.678V269.699H367.513V266.864ZM367.513 254.08V251.245H364.678V254.08H367.513ZM422.218 254.08H425.053V251.245H422.218V254.08ZM422.218 266.864V269.699H425.053V266.864H422.218ZM402.546 266.864V264.029H399.711V266.864H402.546ZM402.546 323.689H387.185V329.359H402.546V323.689ZM390.02 326.524V266.864H384.35V326.524H390.02ZM387.185 264.029H367.513V269.699H387.185V264.029ZM370.348 266.864V254.08H364.678V266.864H370.348ZM367.513 256.914H422.218V251.245H367.513V256.914ZM419.383 254.08V266.864H425.053V254.08H419.383ZM422.218 264.029H402.546V269.699H422.218V264.029ZM399.711 266.864V326.524H405.381V266.864H399.711ZM470.729 256.458L469.74 259.115L469.747 259.117L470.729 256.458ZM476.576 290.748L478.398 292.92L476.576 290.748ZM469.936 294.96L468.755 292.383L465.717 293.775L467.587 296.546L469.936 294.96ZM491.243 326.524V329.359H496.577L493.593 324.938L491.243 326.524ZM474.198 326.524L471.791 328.022L472.623 329.359H474.198V326.524ZM456.904 298.726L459.311 297.228L458.479 295.891H456.904V298.726ZM448.728 298.726V295.891H445.893V298.726H448.728ZM448.728 326.524V329.359H451.563V326.524H448.728ZM433.367 326.524H430.532V329.359H433.367V326.524ZM433.367 254.08V251.245H430.532V254.08H433.367ZM448.728 266.666V263.831H445.893V266.666H448.728ZM448.728 286.239H445.893V289.073H448.728V286.239ZM464.585 283.712L466.318 285.955L466.323 285.951L464.585 283.712ZM464.337 268.846L462.844 271.256L462.851 271.26L462.859 271.265L464.337 268.846ZM454.476 256.914C460.85 256.914 465.903 257.687 469.74 259.115L471.718 253.801C467.033 252.058 461.25 251.245 454.476 251.245V256.914ZM469.747 259.117C473.585 260.535 476.229 262.591 477.915 265.187L482.67 262.099C480.194 258.287 476.462 255.553 471.711 253.799L469.747 259.117ZM477.915 265.187C479.625 267.819 480.579 271.29 480.579 275.783H486.249C486.249 270.498 485.123 265.876 482.67 262.099L477.915 265.187ZM480.579 275.783C480.579 278.725 480.022 281.162 479.003 283.174L484.06 285.736C485.551 282.793 486.249 279.448 486.249 275.783H480.579ZM479.003 283.174C477.913 285.323 476.498 287.114 474.754 288.576L478.398 292.92C480.751 290.946 482.638 288.542 484.06 285.736L479.003 283.174ZM474.754 288.576C472.897 290.134 470.898 291.401 468.755 292.383L471.117 297.537C473.731 296.339 476.159 294.797 478.398 292.92L474.754 288.576ZM467.587 296.546L488.894 328.11L493.593 324.938L472.286 293.374L467.587 296.546ZM491.243 323.689H474.198V329.359H491.243V323.689ZM476.605 325.027L459.311 297.228L454.497 300.223L471.791 328.022L476.605 325.027ZM456.904 295.891H448.728V301.56H456.904V295.891ZM445.893 298.726V326.524H451.563V298.726H445.893ZM448.728 323.689H433.367V329.359H448.728V323.689ZM436.202 326.524V254.08H430.532V326.524H436.202ZM433.367 256.914H454.476V251.245H433.367V256.914ZM453.386 263.831H448.728V269.501H453.386V263.831ZM445.893 266.666V286.239H451.563V266.666H445.893ZM448.728 289.073H453.683V283.404H448.728V289.073ZM453.683 289.073C458.935 289.073 463.369 288.233 466.318 285.955L462.851 281.468C461.439 282.56 458.606 283.404 453.683 283.404V289.073ZM466.323 285.951C469.356 283.597 470.739 280.183 470.739 276.18H465.07C465.07 278.784 464.24 280.391 462.847 281.472L466.323 285.951ZM470.739 276.18C470.739 272.022 469.241 268.521 465.815 266.427L462.859 271.265C464.19 272.079 465.07 273.466 465.07 276.18H470.739ZM465.83 266.437C462.805 264.562 458.506 263.831 453.386 263.831V269.501C458.176 269.501 461.178 270.224 462.844 271.256L465.83 266.437ZM544.71 326.524L541.998 327.35L542.61 329.359H544.71V326.524ZM539.457 309.28L542.169 308.454L541.557 306.445H539.457V309.28ZM513.046 309.28V306.445H510.946L510.334 308.454L513.046 309.28ZM507.794 326.524V329.359H509.894L510.505 327.35L507.794 326.524ZM491.243 326.524L488.569 325.584L487.242 329.359H491.243V326.524ZM516.812 253.782V250.948H514.804L514.138 252.842L516.812 253.782ZM535.592 253.782L538.265 252.839L537.598 250.948H535.592V253.782ZM561.26 326.524V329.359H565.266L563.933 325.581L561.26 326.524ZM535.79 296.397V299.232H539.643L538.497 295.553L535.79 296.397ZM530.538 279.549L527.818 280.349L527.825 280.371L527.832 280.393L530.538 279.549ZM529.2 275.238L526.482 276.044L526.491 276.074L526.501 276.104L529.2 275.238ZM527.565 269.837L524.839 270.616L524.847 270.645L524.856 270.674L527.565 269.837ZM526.276 265.031L529.03 264.359H523.522L526.276 265.031ZM524.889 270.085L522.17 269.283L522.166 269.297L522.162 269.312L524.889 270.085ZM522.114 279.549L524.823 280.386L524.826 280.375L522.114 279.549ZM516.911 296.397L514.203 295.56L513.069 299.232H516.911V296.397ZM547.421 325.698L542.169 308.454L536.745 310.106L541.998 327.35L547.421 325.698ZM539.457 306.445H513.046V312.115H539.457V306.445ZM510.334 308.454L505.082 325.698L510.505 327.35L515.758 310.106L510.334 308.454ZM507.794 323.689H491.243V329.359H507.794V323.689ZM493.918 327.464L519.486 254.722L514.138 252.842L488.569 325.584L493.918 327.464ZM516.812 256.617H535.592V250.948H516.812V256.617ZM532.919 254.726L558.587 327.467L563.933 325.581L538.265 252.839L532.919 254.726ZM561.26 323.689H544.71V329.359H561.26V323.689ZM538.497 295.553L533.244 278.706L527.832 280.393L533.084 297.241L538.497 295.553ZM533.257 278.749C532.918 277.595 532.464 276.134 531.899 274.372L526.501 276.104C527.059 277.844 527.497 279.257 527.818 280.349L533.257 278.749ZM531.918 274.433C531.386 272.638 530.838 270.827 530.273 269L524.856 270.674C525.415 272.481 525.957 274.271 526.482 276.044L531.918 274.433ZM530.29 269.058C529.768 267.232 529.349 265.667 529.03 264.359L523.522 265.702C523.864 267.103 524.304 268.743 524.839 270.616L530.29 269.058ZM523.522 264.359C523.207 265.654 522.758 267.291 522.17 269.283L527.608 270.887C528.209 268.848 528.685 267.116 529.03 265.702L523.522 264.359ZM522.162 269.312C521.603 271.284 521.061 273.157 520.536 274.928L525.972 276.539C526.504 274.743 527.052 272.849 527.616 270.858L522.162 269.312ZM520.536 274.928C520.007 276.712 519.63 277.975 519.402 278.724L524.826 280.375C525.061 279.604 525.443 278.323 525.972 276.539L520.536 274.928ZM519.406 278.713L514.203 295.56L519.62 297.233L524.823 280.386L519.406 278.713ZM516.911 299.232H535.79V293.562H516.911V299.232ZM614.032 260.125L612.092 262.192L612.101 262.2L614.032 260.125ZM619.037 285.793L621.726 286.689L621.729 286.68L619.037 285.793ZM614.33 293.473L612.295 291.499L612.288 291.507L612.28 291.514L614.33 293.473ZM605.708 298.825L606.663 301.494L606.673 301.49L606.684 301.486L605.708 298.825ZM585.788 300.757V297.923H582.953V300.757H585.788ZM585.788 326.524V329.359H588.623V326.524H585.788ZM570.427 326.524H567.592V329.359H570.427V326.524ZM570.427 254.08V251.245H567.592V254.08H570.427ZM585.788 266.666V263.831H582.953V266.666H585.788ZM585.788 288.171H582.953V291.006H585.788V288.171ZM601.991 269.292L600.115 271.417L600.125 271.425L600.135 271.434L601.991 269.292ZM593.567 256.914C602.6 256.914 608.559 258.876 612.092 262.192L615.972 258.058C610.917 253.314 603.232 251.245 593.567 251.245V256.914ZM612.101 262.2C615.706 265.555 617.639 270.256 617.639 276.675H623.309C623.309 269.022 620.948 262.689 615.964 258.05L612.101 262.2ZM617.639 276.675C617.639 279.556 617.205 282.295 616.345 284.906L621.729 286.68C622.785 283.476 623.309 280.137 623.309 276.675H617.639ZM616.348 284.896C615.529 287.353 614.189 289.548 612.295 291.499L616.364 295.448C618.83 292.906 620.629 289.981 621.726 286.689L616.348 284.896ZM612.28 291.514C610.494 293.383 608.019 294.957 604.731 296.164L606.684 301.486C610.598 300.05 613.87 298.056 616.379 295.432L612.28 291.514ZM604.753 296.156C601.551 297.301 597.453 297.923 592.378 297.923V303.592C597.874 303.592 602.663 302.925 606.663 301.494L604.753 296.156ZM592.378 297.923H585.788V303.592H592.378V297.923ZM582.953 300.757V326.524H588.623V300.757H582.953ZM585.788 323.689H570.427V329.359H585.788V323.689ZM573.262 326.524V254.08H567.592V326.524H573.262ZM570.427 256.914H593.567V251.245H570.427V256.914ZM592.775 263.831H585.788V269.501H592.775V263.831ZM582.953 266.666V288.171H588.623V266.666H582.953ZM585.788 291.006H590.842V285.336H585.788V291.006ZM590.842 291.006C593.956 291.006 596.789 290.596 599.283 289.699L597.366 284.364C595.631 284.987 593.476 285.336 590.842 285.336V291.006ZM599.283 289.699C601.867 288.771 604.003 287.259 605.537 285.111L600.923 281.816C600.145 282.906 599.01 283.773 597.366 284.364L599.283 289.699ZM605.537 285.111C607.121 282.893 607.799 280.19 607.799 277.22H602.13C602.13 279.338 601.651 280.797 600.923 281.816L605.537 285.111ZM607.799 277.22C607.799 273.141 606.653 269.581 603.848 267.15L600.135 271.434C601.294 272.439 602.13 274.164 602.13 277.22H607.799ZM603.868 267.167C601.141 264.759 597.251 263.831 592.775 263.831V269.501C596.623 269.501 598.877 270.323 600.115 271.417L603.868 267.167ZM634.15 326.524H631.315V329.359H634.15V326.524ZM634.15 254.08V251.245H631.315V254.08H634.15ZM649.511 254.08H652.346V251.245H649.511V254.08ZM649.511 313.839H646.676V316.674H649.511V313.839ZM678.895 313.839H681.73V311.004H678.895V313.839ZM678.895 326.524V329.359H681.73V326.524H678.895ZM636.985 326.524V254.08H631.315V326.524H636.985ZM634.15 256.914H649.511V251.245H634.15V256.914ZM646.676 254.08V313.839H652.346V254.08H646.676ZM649.511 316.674H678.895V311.004H649.511V316.674ZM676.061 313.839V326.524H681.73V313.839H676.061ZM678.895 323.689H634.15V329.359H678.895V323.689ZM735.88 326.524L733.168 327.35L733.78 329.359H735.88V326.524ZM730.627 309.28L733.339 308.454L732.727 306.445H730.627V309.28ZM704.216 309.28V306.445H702.116L701.504 308.454L704.216 309.28ZM698.964 326.524V329.359H701.064L701.675 327.35L698.964 326.524ZM682.413 326.524L679.739 325.584L678.412 329.359H682.413V326.524ZM707.982 253.782V250.948H705.974L705.308 252.842L707.982 253.782ZM726.762 253.782L729.435 252.839L728.768 250.948H726.762V253.782ZM752.43 326.524V329.359H756.436L755.103 325.581L752.43 326.524ZM726.96 296.397V299.232H730.813L729.667 295.553L726.96 296.397ZM721.708 279.549L718.988 280.349L718.995 280.371L719.002 280.393L721.708 279.549ZM720.37 275.238L717.652 276.044L717.661 276.074L717.671 276.104L720.37 275.238ZM718.735 269.837L716.009 270.616L716.017 270.645L716.026 270.674L718.735 269.837ZM717.446 265.031L720.2 264.359H714.692L717.446 265.031ZM716.059 270.085L713.34 269.283L713.336 269.297L713.332 269.312L716.059 270.085ZM713.284 279.549L715.993 280.386L715.996 280.375L713.284 279.549ZM708.081 296.397L705.373 295.56L704.239 299.232H708.081V296.397ZM738.591 325.698L733.339 308.454L727.915 310.106L733.168 327.35L738.591 325.698ZM730.627 306.445H704.216V312.115H730.627V306.445ZM701.504 308.454L696.252 325.698L701.675 327.35L706.928 310.106L701.504 308.454ZM698.964 323.689H682.413V329.359H698.964V323.689ZM685.088 327.464L710.656 254.722L705.308 252.842L679.739 325.584L685.088 327.464ZM707.982 256.617H726.762V250.948H707.982V256.617ZM724.089 254.726L749.757 327.467L755.103 325.581L729.435 252.839L724.089 254.726ZM752.43 323.689H735.88V329.359H752.43V323.689ZM729.667 295.553L724.414 278.706L719.002 280.393L724.254 297.241L729.667 295.553ZM724.427 278.749C724.088 277.595 723.634 276.134 723.069 274.372L717.671 276.104C718.229 277.844 718.667 279.257 718.988 280.349L724.427 278.749ZM723.088 274.433C722.556 272.638 722.008 270.827 721.443 269L716.026 270.674C716.585 272.481 717.127 274.271 717.652 276.044L723.088 274.433ZM721.46 269.058C720.939 267.232 720.519 265.667 720.2 264.359L714.692 265.702C715.034 267.103 715.474 268.743 716.009 270.616L721.46 269.058ZM714.692 264.359C714.377 265.654 713.928 267.291 713.34 269.283L718.778 270.887C719.38 268.848 719.856 267.116 720.2 265.702L714.692 264.359ZM713.332 269.312C712.773 271.284 712.231 273.157 711.706 274.928L717.142 276.539C717.674 274.743 718.222 272.849 718.786 270.858L713.332 269.312ZM711.706 274.928C711.177 276.712 710.8 277.975 710.572 278.724L715.996 280.375C716.231 279.604 716.613 278.323 717.142 276.539L711.706 274.928ZM710.576 278.713L705.373 295.56L710.79 297.233L715.993 280.386L710.576 278.713ZM708.081 299.232H726.96V293.562H708.081V299.232ZM784.539 267.558L785.807 270.093L785.814 270.09L785.822 270.086L784.539 267.558ZM778.841 272.463L776.544 270.802L776.535 270.814L776.527 270.826L778.841 272.463ZM776.066 303.631L773.387 304.557L773.392 304.572L773.397 304.586L776.066 303.631ZM782.012 311.906L780.362 314.211L780.371 314.218L780.381 314.225L782.012 311.906ZM801.189 313.74L800.574 310.973L800.567 310.974L801.189 313.74ZM810.851 310.915H813.686V306.911L809.909 308.242L810.851 310.915ZM810.851 323.799L811.932 326.42L813.686 325.696V323.799H810.851ZM801.387 326.623L800.882 323.834L800.868 323.836L800.854 323.839L801.387 326.623ZM772.498 322.907L770.956 325.286L770.966 325.292L770.975 325.298L772.498 322.907ZM761.845 309.924L759.226 311.009L759.228 311.015L761.845 309.924ZM803.171 254.427L802.466 257.172L802.48 257.176L802.495 257.18L803.171 254.427ZM813.577 258.143L816.211 259.189L817.187 256.731L814.803 255.587L813.577 258.143ZM808.621 270.63L807.404 273.19L810.139 274.491L811.256 271.676L808.621 270.63ZM792.369 262.989C789.05 262.989 785.99 263.644 783.257 265.03L785.822 270.086C787.648 269.16 789.807 268.658 792.369 268.658V262.989ZM783.272 265.022C780.594 266.361 778.349 268.306 776.544 270.802L781.138 274.124C782.438 272.326 783.992 271.001 785.807 270.093L783.272 265.022ZM776.527 270.826C774.776 273.3 773.492 276.22 772.629 279.527L778.115 280.959C778.838 278.187 779.867 275.921 781.155 274.101L776.527 270.826ZM772.629 279.527C771.764 282.843 771.348 286.508 771.348 290.5H777.018C777.018 286.894 777.395 283.721 778.115 280.959L772.629 279.527ZM771.348 290.5C771.348 295.837 772.001 300.545 773.387 304.557L778.745 302.706C777.621 299.45 777.018 295.404 777.018 290.5H771.348ZM773.397 304.586C774.847 308.64 777.145 311.907 780.362 314.211L783.663 309.602C781.528 308.073 779.862 305.825 778.735 302.676L773.397 304.586ZM780.381 314.225C783.657 316.53 787.726 317.566 792.369 317.566V311.896C788.554 311.896 785.719 311.049 783.644 309.588L780.381 314.225ZM792.369 317.566C795.523 317.566 798.671 317.211 801.81 316.506L800.567 310.974C797.826 311.59 795.094 311.896 792.369 311.896V317.566ZM801.804 316.507C804.908 315.817 808.239 314.842 811.793 313.589L809.909 308.242C806.526 309.434 803.416 310.341 800.574 310.973L801.804 316.507ZM808.017 310.915V323.799H813.686V310.915H808.017ZM809.771 321.178C806.734 322.43 803.772 323.311 800.882 323.834L801.891 329.413C805.212 328.812 808.56 327.81 811.932 326.42L809.771 321.178ZM800.854 323.839C797.958 324.394 794.656 324.68 790.932 324.68V330.35C794.938 330.35 798.605 330.042 801.92 329.407L800.854 323.839ZM790.932 324.68C783.843 324.68 778.27 323.222 774.021 320.516L770.975 325.298C776.373 328.736 783.088 330.35 790.932 330.35V324.68ZM774.04 320.528C769.757 317.751 766.566 313.886 764.461 308.834L759.228 311.015C761.748 317.063 765.66 321.852 770.956 325.286L774.04 320.528ZM764.464 308.84C762.322 303.67 761.211 297.545 761.211 290.401H755.541C755.541 298.123 756.742 305.013 759.226 311.009L764.464 308.84ZM761.211 290.401C761.211 285.174 761.919 280.454 763.301 276.216L757.911 274.459C756.32 279.338 755.541 284.661 755.541 290.401H761.211ZM763.301 276.216C764.682 271.982 766.687 268.372 769.295 265.345L764.999 261.644C761.859 265.29 759.503 269.575 757.911 274.459L763.301 276.216ZM769.295 265.345C771.875 262.349 775.068 260.024 778.919 258.369L776.681 253.16C772.075 255.139 768.167 257.967 764.999 261.644L769.295 265.345ZM778.919 258.369C782.733 256.73 787.197 255.874 792.369 255.874V250.204C786.572 250.204 781.324 251.165 776.681 253.16L778.919 258.369ZM792.369 255.874C795.724 255.874 799.088 256.304 802.466 257.172L803.876 251.681C800.052 250.699 796.215 250.204 792.369 250.204V255.874ZM802.495 257.18C805.943 258.026 809.227 259.199 812.35 260.699L814.803 255.587C811.32 253.915 807.666 252.611 803.846 251.674L802.495 257.18ZM810.942 257.097L805.987 269.584L811.256 271.676L816.211 259.189L810.942 257.097ZM809.839 268.07C807.041 266.739 804.222 265.577 801.38 264.584L799.51 269.937C802.153 270.86 804.784 271.944 807.404 273.19L809.839 268.07ZM801.38 264.584C798.368 263.532 795.36 262.989 792.369 262.989V268.658C794.663 268.658 797.039 269.073 799.51 269.937L801.38 264.584ZM868.034 326.524V329.359H870.869V326.524H868.034ZM826.311 326.524H823.477V329.359H826.311V326.524ZM826.311 254.08V251.245H823.477V254.08H826.311ZM868.034 254.08H870.869V251.245H868.034V254.08ZM868.034 266.666V269.501H870.869V266.666H868.034ZM841.672 266.666V263.831H838.838V266.666H841.672ZM841.672 282.572H838.838V285.407H841.672V282.572ZM866.2 282.572H869.035V279.737H866.2V282.572ZM866.2 295.158V297.993H869.035V295.158H866.2ZM841.672 295.158V292.323H838.838V295.158H841.672ZM841.672 313.839H838.838V316.674H841.672V313.839ZM868.034 313.839H870.869V311.004H868.034V313.839ZM868.034 323.689H826.311V329.359H868.034V323.689ZM829.146 326.524V254.08H823.477V326.524H829.146ZM826.311 256.914H868.034V251.245H826.311V256.914ZM865.199 254.08V266.666H870.869V254.08H865.199ZM868.034 263.831H841.672V269.501H868.034V263.831ZM838.838 266.666V282.572H844.507V266.666H838.838ZM841.672 285.407H866.2V279.737H841.672V285.407ZM863.366 282.572V295.158H869.035V282.572H863.366ZM866.2 292.323H841.672V297.993H866.2V292.323ZM838.838 295.158V313.839H844.507V295.158H838.838ZM841.672 316.674H868.034V311.004H841.672V316.674ZM865.199 313.839V326.524H870.869V313.839H865.199Z" fill="#588BA5"/>
</svg>
