<svg width="1920" height="678" viewBox="0 0 1920 678" fill="none" xmlns="http://www.w3.org/2000/svg">
<g opacity="0.03">
<g clip-path="url(#clip0_1_563)">
<path d="M21.8937 678L37.2207 678C20.3337 672.022 1.12621 665.999 -22.0008 659.931L-22.0008 664.914C-5.56229 669.299 8.88723 673.661 21.8937 678Z" fill="#525154"/>
<path d="M97.1655 678L110.289 678C77.7241 663.875 40.5375 649.456 -21.999 634.947L-21.999 639.817C32.6595 652.665 67.467 665.434 97.1655 677.989L97.1655 678Z" fill="#525154"/>
<path d="M151.55 671.875C156.074 673.909 160.598 675.955 165.22 678L178.129 678C170.66 674.757 163.484 671.525 156.347 668.304C114.559 649.479 71.3664 630.031 -21.9996 610.72L-21.9996 615.522C68.3829 634.416 110.659 653.445 151.55 671.864L151.55 671.875Z" fill="#525154"/>
<path d="M-4.29433 595.329C93.6932 614.957 137.51 634.992 179.883 654.372C196.926 662.169 214.203 670.056 235.049 678L249.576 678C224.187 668.869 204.297 659.784 184.719 650.835C141.819 631.218 97.4761 610.934 -1.75936 591.069C-8.72085 589.679 -15.4484 588.391 -22.0004 587.182L-22.0004 591.916C-16.2479 592.979 -10.3588 594.12 -4.29433 595.34L-4.29433 595.329Z" fill="#525154"/>
<path d="M24.332 577.373C122.3 596.99 165.98 617.274 208.217 636.879C237.37 650.417 267.204 664.259 314.687 678L332.705 678C277.208 663.118 244.741 648.044 213.092 633.354C170.329 613.499 126.122 592.979 26.8865 573.102C9.31706 569.588 -6.86797 566.706 -22 564.344L-22 569.034C-7.62847 571.305 7.73756 574.051 24.332 577.373Z" fill="#525154"/>
<path d="M52.9578 559.418C150.906 579.034 194.45 599.544 236.531 619.387C277.637 638.755 320.127 658.767 412.167 678L436.094 678C432.467 677.311 428.801 676.599 425.057 675.842C327.108 656.225 283.565 635.715 241.484 615.872C198.857 595.792 154.787 575.023 55.5318 555.135C26.3598 549.293 0.873306 545.225 -21.9807 542.4L-21.9807 547.033C0.190811 549.813 24.8583 553.779 52.9773 559.418L52.9578 559.418Z" fill="#525154"/>
<path d="M81.6039 541.462C179.533 561.079 222.92 581.826 264.884 601.883C307.375 622.201 351.308 643.219 450.583 663.095C488.608 670.711 520.393 675.288 548.278 678L746.047 678C714.593 676.147 687.917 676.508 661.67 676.881C607.285 677.65 551.066 678.441 453.118 658.824C355.189 639.207 311.801 618.46 269.837 598.391C227.347 578.074 183.413 557.067 84.1389 537.179C42.2139 528.783 7.85488 524.083 -21.9996 521.506L-21.9996 526.083C7.21138 528.648 40.7709 533.27 81.6039 541.451L81.6039 541.462Z" fill="#525154"/>
<path d="M110.229 523.506C208.158 543.123 251.39 564.107 293.198 584.391C335.552 604.945 379.349 626.201 478.643 646.089C577.917 665.977 635.033 664.926 690.237 663.92C741.269 662.982 793.938 662.022 880.83 678L905.361 678C904.094 677.74 902.865 677.48 901.578 677.232C802.304 657.344 745.208 658.394 689.984 659.4C635.481 660.395 579.107 661.434 481.178 641.817C383.249 622.201 340.017 601.216 298.209 580.933C255.855 560.378 212.058 539.123 112.764 519.235C56.8578 508.037 14.3283 503.483 -22.0197 501.81L-22.0197 506.353C13.6848 508.025 55.4538 512.534 110.21 523.506L110.229 523.506Z" fill="#525154"/>
<path d="M138.875 505.551C236.784 525.156 279.879 546.377 321.551 566.898C363.768 587.69 407.429 609.183 506.723 629.071C606.017 648.959 663.249 647.671 718.629 646.428C773.268 645.196 829.779 643.93 927.689 663.547C951.323 668.282 971.759 673.118 989.757 678L1007.58 678C985.994 671.649 960.741 665.389 930.224 659.276C830.93 639.388 773.697 640.676 718.317 641.919C663.678 643.139 607.167 644.416 509.258 624.799C411.348 605.194 368.253 583.973 326.582 563.452C284.364 542.66 240.704 521.167 141.41 501.279C70.2735 487.03 20.7436 483.651 -22.0005 483.335L-22.0005 487.866C20.1001 488.194 68.9085 491.539 138.875 505.551Z" fill="#525154"/>
<path d="M167.501 487.595C265.391 507.2 308.35 528.659 349.885 549.406C391.966 570.435 435.49 592.165 534.803 612.064C634.117 631.952 691.505 630.427 747.022 628.947C801.778 627.489 858.425 625.986 956.335 645.592C1008.32 655.999 1044.81 666.937 1073.82 678L1087.75 678C1056.8 665.48 1017.58 653.072 958.889 641.32C859.576 621.432 802.187 622.958 746.671 624.427C691.895 625.884 635.248 627.387 537.358 607.782C439.468 588.176 396.509 566.718 354.994 545.971C312.913 524.941 269.389 503.212 170.075 483.312C82.6956 465.808 27.7837 464.893 -21.9803 465.933L-21.9803 470.453C27.1402 469.424 81.3306 470.317 167.521 487.584L167.501 487.595Z" fill="#525154"/>
<path d="M-13.4199 453.458C41.4921 451.774 98.2565 450.022 196.147 469.628C294.037 489.233 336.82 510.918 378.218 531.891C420.162 553.146 463.55 575.136 562.883 595.024C662.197 614.912 719.741 613.149 775.413 611.443C830.325 609.759 887.09 608.008 984.98 627.613C1064.44 643.535 1107.6 660.813 1143.18 677.977L1155.29 677.977C1117.74 659.411 1073.69 640.586 987.534 623.342C888.201 603.443 830.657 605.217 775.004 606.923C720.111 608.607 663.328 610.347 565.438 590.753C467.547 571.147 424.765 549.462 383.366 528.49C341.422 507.234 298.034 485.245 198.701 465.357C99.3875 445.468 41.8235 447.231 -13.8294 448.938C-16.5399 449.017 -19.27 449.107 -22 449.186L-22 453.706C-19.1334 453.616 -16.2669 453.537 -13.4199 453.446L-13.4199 453.458Z" fill="#525154"/>
<path d="M14.9527 435.976C69.9817 434.055 126.902 432.078 224.753 451.683C322.624 471.289 365.27 493.211 406.532 514.41C448.36 535.902 491.591 558.129 590.924 578.029C690.257 597.928 747.958 595.917 803.747 593.973C858.776 592.052 915.697 590.075 1013.57 609.68C1111.44 629.286 1154.1 651.208 1195.35 672.406C1198.97 674.271 1202.6 676.135 1206.29 678L1218.18 678C1212.17 674.994 1206.34 672 1200.53 669.016C1158.71 647.524 1115.47 625.297 1016.12 605.397C916.789 585.498 859.088 587.51 803.299 589.453C748.27 591.374 691.349 593.352 593.479 573.746C495.608 554.141 452.962 532.219 411.719 511.02C369.892 489.527 326.66 467.3 227.327 447.401C127.994 427.501 70.2936 429.513 14.5042 431.456C2.5701 431.875 -9.46128 432.293 -21.9803 432.485L-21.9803 437.016C-9.30527 436.813 2.88223 436.395 14.9722 435.965L14.9527 435.976Z" fill="#525154"/>
<path d="M43.3249 418.484C98.4904 416.337 155.547 414.122 253.398 433.716C351.249 453.322 393.759 475.47 434.865 496.906C476.556 518.636 519.651 541.1 619.004 561C718.356 580.899 776.193 578.65 832.139 576.469C887.304 574.322 944.342 572.108 1042.21 591.702C1140.06 611.307 1182.57 633.455 1223.7 654.891C1238.38 662.542 1253.26 670.293 1270.69 677.989L1283.82 677.989C1262.82 669.197 1245.75 660.304 1228.92 651.535C1187.23 629.805 1144.14 607.341 1044.79 587.442C945.434 567.542 887.597 569.791 831.651 571.972C776.486 574.119 719.429 576.334 621.578 556.74C523.727 537.134 481.217 514.986 440.111 493.55C398.42 471.82 355.325 449.356 255.972 429.456C156.62 409.557 98.7829 411.806 42.8374 413.975C22.1869 414.778 1.26346 415.591 -21.9806 415.264L-21.9806 419.795C1.41946 420.111 22.5185 419.298 43.3444 418.484L43.3249 418.484Z" fill="#525154"/>
<path d="M71.7168 401.003C127.019 398.63 184.193 396.178 282.044 415.772C379.875 435.366 422.249 457.763 463.218 479.414C504.773 501.381 547.731 524.094 647.103 543.993C746.475 563.893 804.468 561.407 860.55 559C915.852 556.627 973.026 554.175 1070.88 573.769C1168.73 593.363 1211.08 615.76 1252.05 637.41C1277.64 650.936 1303.79 664.745 1343.27 678L1359.34 678C1313.5 663.751 1285.07 648.744 1257.32 634.066C1215.76 612.098 1172.8 589.385 1073.43 569.486C974.079 549.587 916.067 552.073 859.985 554.48C804.683 556.853 747.509 559.305 649.658 539.71C551.807 520.116 509.453 497.72 468.483 476.069C426.929 454.102 383.97 431.389 284.598 411.489C185.226 391.59 127.233 394.076 71.1514 396.483C42.4279 397.715 13.1779 398.969 -21.9807 397.138L-21.9807 401.692C13.3533 403.489 42.7984 402.235 71.7364 400.992L71.7168 401.003Z" fill="#525154"/>
<path d="M100.09 383.511C155.509 380.912 212.839 378.211 310.67 397.805C408.502 417.399 450.719 440.022 491.533 461.91C532.951 484.114 575.773 507.065 675.145 526.964C774.517 546.863 832.666 544.14 888.904 541.496C944.342 538.886 1001.65 536.196 1099.48 555.79C1197.32 575.385 1239.53 598.019 1280.37 619.895C1317.03 639.546 1354.82 659.784 1431.94 677.977L1453.53 677.977C1364.9 659.016 1324.63 637.456 1285.65 616.573C1244.23 594.369 1201.41 571.418 1102.02 551.508C1002.65 531.608 944.498 534.332 888.26 536.976C832.841 539.575 775.511 542.276 677.68 522.681C579.848 503.087 537.631 480.453 496.817 458.576C455.399 436.372 412.577 413.422 313.205 393.522C213.833 373.623 155.684 376.346 99.4464 378.991C63.3324 380.686 26.3993 382.414 -22.0191 377.996L-22.0191 382.584C26.5553 386.946 63.7223 385.206 100.07 383.499L100.09 383.511Z" fill="#525154"/>
<path d="M128.481 366.03C184.037 363.193 241.484 360.266 339.315 379.861C437.127 399.455 479.208 422.315 519.885 444.429C561.167 466.859 603.852 490.058 703.244 509.969C802.635 529.88 860.94 526.908 917.295 524.026C972.851 521.19 1030.32 518.263 1128.13 537.857C1225.94 557.452 1268.02 580.311 1308.7 602.426C1349.98 624.856 1392.67 648.055 1492.06 667.966C1513.86 672.339 1533.69 675.604 1551.96 678.011L1597.47 678.011C1568.22 676 1534.84 671.751 1494.61 663.694C1396.8 644.1 1354.72 621.24 1314.04 599.126C1272.76 576.695 1230.08 553.497 1130.68 533.586C1031.29 513.675 973.007 516.647 916.632 519.529C861.077 522.365 803.61 525.292 705.798 505.698C607.986 486.103 565.905 463.243 525.228 441.129C483.947 418.699 441.261 395.5 341.87 375.589C242.478 355.679 184.193 358.651 127.818 361.532C84.9181 363.713 40.8871 365.95 -21.9809 357.848L-21.9809 362.481C41.0236 370.482 85.3276 368.233 128.501 366.03L128.481 366.03Z" fill="#525154"/>
<path d="M1705.43 677.514C1702.25 677.672 1699.05 677.842 1695.85 678L1827.34 678C1778.92 673.785 1741.77 675.661 1705.43 677.514Z" fill="#525154"/>
<path d="M156.854 348.537C212.546 345.475 270.129 342.311 367.941 361.894C465.753 381.488 507.678 404.585 548.219 426.914C589.364 449.582 631.913 473.029 731.304 492.94C830.715 512.85 889.157 509.63 945.668 506.522C1001.36 503.46 1058.94 500.296 1156.76 519.879C1254.57 539.473 1296.49 562.57 1337.03 584.911C1378.18 607.578 1420.73 631.026 1520.14 650.936C1619.55 670.847 1677.99 667.638 1734.52 664.53C1786.76 661.66 1840.72 658.7 1928 674.542L1928 669.819C1840.62 654.18 1786.35 657.151 1733.76 660.044C1678.07 663.107 1620.47 666.271 1522.67 646.688C1424.86 627.093 1382.94 603.996 1342.4 581.656C1301.25 558.988 1258.7 535.541 1159.29 515.63C1059.9 495.72 1001.44 498.929 944.927 502.048C889.235 505.11 831.652 508.274 733.839 488.691C636.047 469.097 594.122 446 553.562 423.671C512.417 401.003 469.868 377.555 370.457 357.645C271.046 337.734 212.605 340.943 156.094 344.062C106.973 346.763 56.351 349.531 -22.0195 336.706L-22.0195 341.407C56.4875 354.074 107.402 351.272 156.835 348.56L156.854 348.537Z" fill="#525154"/>
<path d="M185.226 331.056C241.055 327.768 298.775 324.366 396.568 343.949C494.36 363.532 536.129 386.867 576.533 409.433C617.542 432.338 659.954 456.023 759.365 475.933C858.776 495.844 917.373 492.386 974.04 489.053C1029.85 485.764 1087.59 482.363 1185.38 501.946C1283.17 521.529 1324.94 544.863 1365.35 567.429C1406.36 590.335 1448.77 614.019 1548.18 633.93C1647.59 653.841 1706.19 650.383 1762.85 647.049C1809.26 644.315 1857.02 641.512 1927.98 651.897L1927.98 647.23C1856.84 636.981 1808.78 639.795 1762.05 642.552C1706.23 645.84 1648.49 649.241 1550.71 629.659C1452.92 610.076 1411.13 586.741 1370.75 564.175C1329.74 541.27 1287.33 517.585 1187.92 497.675C1088.51 477.764 1029.91 481.222 973.241 484.555C917.412 487.844 859.693 491.245 761.9 471.662C664.107 452.079 622.339 428.744 581.934 406.178C540.926 383.273 498.513 359.588 399.102 339.678C299.692 319.767 241.094 323.225 184.427 326.559C129.554 329.79 72.809 333.124 -22.0195 314.626L-22.0195 319.394C72.887 337.666 129.983 334.31 185.207 331.056L185.226 331.056Z" fill="#525154"/>
<path d="M-1.36898 300.919C98.0616 320.83 156.796 317.134 213.619 313.564C269.564 310.038 327.44 306.399 425.213 325.982C522.986 345.565 564.618 369.137 604.886 391.929C645.758 415.072 688.034 438.994 787.464 458.916C886.895 478.826 945.629 475.131 1002.45 471.56C1058.4 468.035 1116.27 464.396 1214.05 483.979C1311.82 503.562 1353.45 527.134 1393.72 549.926C1434.59 573.068 1476.87 596.99 1576.3 616.912C1675.73 636.823 1734.48 633.128 1791.29 629.557C1831.28 627.037 1872.23 624.472 1928.04 630.348L1928.04 625.749C1872 619.941 1830.73 622.528 1790.45 625.06C1734.5 628.585 1676.63 632.224 1578.85 612.63C1481.08 593.047 1439.45 569.475 1399.18 546.683C1358.31 523.54 1316.03 499.618 1216.6 479.696C1117.17 459.786 1058.44 463.481 1001.61 467.052C945.649 470.577 887.792 474.216 790.019 454.633C692.246 435.05 650.614 411.478 610.346 388.686C569.474 365.544 527.198 341.622 427.768 321.7C328.337 301.789 269.603 305.484 212.78 309.055C156.815 312.581 98.9585 316.219 1.18559 296.636C-6.92647 295.009 -14.629 293.359 -22 291.676L-22 296.523C-15.3895 298.004 -8.54501 299.461 -1.36898 300.896L-1.36898 300.919Z" fill="#525154"/>
<path d="M26.7111 283.901C126.161 303.823 185.051 299.879 241.991 296.071C298.073 292.32 356.066 288.444 453.839 308.027C551.593 327.609 593.089 351.407 633.2 374.425C673.936 397.805 716.075 421.976 815.506 441.886C914.936 461.808 973.846 457.865 1030.79 454.057C1086.87 450.305 1144.86 446.429 1242.63 466.012C1340.41 485.595 1381.88 509.393 1422.01 532.422C1462.75 555.802 1504.89 579.972 1604.34 599.883C1703.79 619.805 1762.68 615.861 1819.64 612.053C1852.55 609.85 1886.13 607.612 1928 610.098L1928 605.544C1885.82 603.104 1851.95 605.352 1818.74 607.567C1762.66 611.319 1704.65 615.195 1606.89 595.612C1509.12 576.029 1467.64 552.231 1427.51 529.202C1386.78 505.822 1344.64 481.651 1245.19 461.741C1145.76 441.83 1086.85 445.762 1029.91 449.57C973.826 453.322 915.814 457.198 818.06 437.615C720.307 418.032 678.811 394.234 638.699 371.216C597.964 347.837 555.824 323.666 456.394 303.755C356.963 283.833 298.073 287.777 241.114 291.585C185.032 295.337 127.039 299.213 29.2655 279.63C10.1556 275.799 -6.77035 271.81 -21.9804 267.697L-21.9804 272.68C-7.39437 276.533 8.71256 280.285 26.7306 283.89L26.7111 283.901Z" fill="#525154"/>
<path d="M54.7716 266.895C154.222 286.817 213.268 282.636 270.364 278.59C326.582 274.613 384.712 270.499 482.465 290.071C580.219 309.654 621.559 333.689 661.534 356.933C702.133 380.539 744.136 404.958 843.586 424.88C943.036 444.802 1002.08 440.621 1059.18 436.575C1115.4 432.598 1173.53 428.485 1271.28 448.056C1369.03 467.639 1410.37 491.674 1450.35 514.918C1490.95 538.535 1532.95 562.943 1632.4 582.865C1731.85 602.787 1790.9 598.606 1848.01 594.572C1873.17 592.798 1898.71 590.99 1928 591.295L1928 586.752C1898.36 586.459 1872.52 588.278 1847.08 590.086C1790.86 594.064 1732.73 598.177 1634.97 578.594C1537.22 559.011 1495.88 534.976 1455.91 511.732C1415.31 488.126 1373.3 463.707 1273.85 443.785C1174.4 423.863 1115.36 428.044 1058.26 432.089C1002.04 436.067 943.913 440.18 846.16 420.609C748.406 401.026 707.066 376.99 667.091 353.746C626.492 330.141 584.489 305.721 485.039 285.8C385.589 265.878 326.543 270.059 269.447 274.104C213.229 278.082 155.099 282.195 57.3456 262.623C25.5606 256.261 -0.237874 249.413 -21.9804 242.283L-21.9804 247.481C-0.686361 254.272 24.3516 260.793 54.7912 266.895L54.7716 266.895Z" fill="#525154"/>
<path d="M82.8516 249.877C182.321 269.799 241.503 265.38 298.756 261.109C355.111 256.905 413.377 252.555 511.111 272.126C608.845 291.698 650.048 315.97 689.887 339.452C730.349 363.295 772.196 387.951 871.665 407.873C971.135 427.795 1030.32 423.377 1087.57 419.106C1143.92 414.902 1202.19 410.551 1299.92 430.123C1397.66 449.695 1438.86 473.967 1478.7 497.449C1519.16 521.292 1561.03 545.948 1660.5 565.87C1759.97 585.792 1819.17 581.374 1876.4 577.102C1893.11 575.859 1909.98 574.605 1928.02 573.95L1928.02 569.407C1909.65 570.062 1892.43 571.339 1875.41 572.605C1819.05 576.808 1760.79 581.159 1663.05 561.587C1565.32 542.016 1524.12 517.732 1484.28 494.262C1443.82 470.419 1401.95 445.762 1302.48 425.829C1203.01 405.907 1143.83 410.325 1086.58 414.597C1030.24 418.8 971.954 423.151 874.22 403.579C776.486 384.008 735.282 359.735 695.444 336.254C654.981 312.411 613.135 287.754 513.665 267.832C414.196 247.911 355.013 252.329 297.761 256.6C241.406 260.804 183.14 265.154 85.406 245.583C38.684 236.226 4.91008 225.796 -21.9804 214.892L-21.9804 220.395C4.65653 230.836 37.8456 240.825 82.871 249.843L82.8516 249.877Z" fill="#525154"/>
<path d="M110.912 232.859C210.401 252.781 269.74 248.125 327.109 243.617C383.581 239.176 441.983 234.588 539.717 254.16C637.451 273.731 678.499 298.241 718.181 321.948C758.507 346.029 800.218 370.934 899.706 390.856C999.176 410.778 1058.51 406.122 1115.9 401.613C1172.39 397.172 1230.8 392.585 1328.51 412.168C1426.25 431.739 1467.29 456.249 1506.99 479.956C1547.34 504.037 1589.03 528.942 1688.52 548.864C1787.99 568.786 1847.35 564.13 1904.74 559.621C1912.42 559.022 1920.12 558.412 1927.96 557.87L1927.96 553.316C1919.75 553.881 1911.7 554.514 1903.68 555.146C1847.21 559.587 1788.79 564.175 1691.07 544.592C1593.34 525.021 1552.29 500.511 1512.59 476.804C1472.25 452.723 1430.54 427.818 1331.07 407.896C1231.6 387.974 1172.26 392.63 1114.87 397.138C1058.38 401.579 999.975 406.167 902.261 386.584C804.527 367.013 763.48 342.503 723.797 318.807C683.452 294.727 641.761 269.821 542.272 249.899C442.783 229.978 383.444 234.633 326.075 239.142C269.603 243.583 211.2 248.171 113.466 228.599C48.8825 215.66 9.04411 200.564 -22 184.97L-22 190.925C8.84904 205.909 48.512 220.361 110.912 232.859Z" fill="#525154"/>
<path d="M138.992 215.841C238.481 235.763 297.976 230.859 355.501 226.124C412.109 221.457 470.648 216.632 568.362 236.204C666.077 255.775 706.988 280.522 746.534 304.444C786.743 328.762 828.298 353.905 927.806 373.826C1027.3 393.76 1086.79 388.856 1144.31 384.11C1200.92 379.443 1259.46 374.617 1357.18 394.189C1454.89 413.761 1495.8 438.508 1535.37 462.43C1575.58 486.747 1617.13 511.89 1716.64 531.823C1813.16 551.169 1872.03 547.135 1928 542.547L1928 537.982C1872.62 542.536 1814.57 546.671 1719.17 527.563C1621.46 507.991 1580.55 483.244 1540.98 459.322C1500.77 435.005 1459.22 409.862 1359.71 389.929C1260.22 369.996 1200.73 374.9 1143.2 379.646C1086.59 384.313 1028.06 389.138 930.341 369.566C832.626 349.995 791.715 325.248 752.169 301.326C711.96 277.008 670.406 251.866 570.897 231.944C471.408 212.01 411.914 216.915 354.389 221.661C297.761 226.328 239.222 231.153 141.527 211.581C55.727 194.394 13.7435 173.229 -22.0195 152.12L-22.0195 158.539C13.217 178.935 55.9025 199.207 138.972 215.852L138.992 215.841Z" fill="#525154"/>
<path d="M-13.927 128.955C26.1456 153.51 67.5635 178.89 167.072 198.823C266.58 218.757 326.212 213.604 383.892 208.632C440.637 203.739 499.313 198.677 597.008 218.248C694.703 237.82 735.458 262.793 774.887 286.952C814.94 311.507 856.377 336.887 955.886 356.82C1055.39 376.753 1115.03 371.6 1172.71 366.628C1229.45 361.736 1288.13 356.673 1385.82 376.245C1483.52 395.816 1524.29 420.789 1563.7 444.949C1603.77 469.504 1645.19 494.883 1744.7 514.817C1825.22 530.942 1879.62 530.648 1928 527.326L1928 522.772C1880.24 526.094 1826.62 526.444 1747.25 510.545C1649.56 490.974 1608.78 466.001 1569.38 441.841C1529.3 417.286 1487.88 391.907 1388.38 371.973C1288.87 352.04 1229.24 357.182 1171.56 362.165C1114.81 367.058 1056.14 372.12 958.441 352.549C860.746 332.977 819.991 308.004 780.562 283.845C740.489 259.29 699.071 233.91 599.563 213.977C500.054 194.043 440.423 199.196 382.742 204.168C325.997 209.061 267.322 214.124 169.627 194.552C71.9316 174.98 31.1764 150.007 -8.25252 125.848C-12.796 123.068 -17.3396 120.277 -22 117.486L-22 124.017C-19.2895 125.667 -16.5985 127.306 -13.927 128.955Z" fill="#525154"/>
<path d="M14.4065 111.463C54.3426 136.255 95.6241 161.884 195.132 181.817C294.641 201.75 354.428 196.36 412.246 191.151C469.108 186.021 527.939 180.732 625.615 200.292C723.309 219.853 763.908 245.074 803.201 269.46C843.137 294.252 884.418 319.88 983.927 339.814C1083.44 359.747 1143.22 354.357 1201.04 349.147C1257.92 344.017 1316.73 338.729 1414.41 358.289C1512.1 377.861 1552.72 403.071 1592 427.456C1631.93 452.249 1673.21 477.877 1772.74 497.81C1838.03 510.884 1886.21 513.065 1927.96 511.551L1927.96 507.008C1886.85 508.523 1839.47 506.398 1775.28 493.539C1677.58 473.967 1636.96 448.757 1597.69 424.371C1557.75 399.591 1516.47 373.951 1416.94 354.018C1317.44 334.084 1257.65 339.475 1199.83 344.684C1142.95 349.803 1084.14 355.102 986.462 335.542C888.767 315.971 848.168 290.76 808.876 266.375C768.94 241.594 727.658 215.954 628.149 196.021C528.621 176.088 468.835 181.478 411.017 186.687C354.136 191.817 295.324 197.106 197.648 177.545C99.9726 157.985 59.3542 132.764 20.0811 108.389C6.87969 100.197 -6.47798 91.9141 -22.0195 83.7668L-22.0195 89.9253C-8.83748 97.0669 2.84307 104.31 14.387 111.474L14.4065 111.463Z" fill="#525154"/>
<path d="M42.7402 93.9706C82.5396 118.989 123.685 144.866 223.213 164.799C322.741 184.732 382.684 179.105 440.638 173.67C497.656 168.313 556.604 162.788 654.26 182.348C751.936 201.908 792.398 227.356 831.535 251.967C871.334 276.985 912.479 302.862 1012.01 322.796C1111.54 342.729 1171.48 337.102 1229.43 331.666C1286.45 326.31 1345.4 320.784 1443.05 340.345C1540.73 359.905 1581.21 385.353 1620.35 409.964C1660.15 434.982 1701.29 460.859 1800.82 480.792C1851.97 491.041 1892.65 494.522 1927.98 494.759L1927.98 490.217C1893.31 489.968 1853.43 486.544 1803.38 476.521C1705.7 456.961 1665.22 431.513 1626.08 406.902C1586.28 381.883 1545.14 356.006 1445.61 336.073C1346.08 316.14 1286.14 321.767 1228.18 327.203C1171.19 332.559 1112.24 338.085 1014.56 318.524C916.886 298.964 876.424 273.516 837.268 248.905C797.468 223.887 756.323 198.01 656.795 178.077C557.267 158.143 497.324 163.771 439.37 169.206C382.371 174.562 323.423 180.088 225.748 160.528C128.072 140.967 87.6097 115.52 48.4732 90.9084C27.9592 78.0038 7.0551 64.8731 -21.9999 52.4544L-21.9999 58.1384C4.22759 69.766 23.6496 81.97 42.7402 93.9706Z" fill="#525154"/>
<path d="M71.0734 76.4669C110.736 101.722 151.726 127.837 251.273 147.781C350.82 167.714 410.9 161.85 469.01 156.177C526.145 150.595 585.23 144.821 682.905 164.381C780.561 183.941 820.887 209.626 859.887 234.464C899.55 259.719 940.559 285.833 1040.09 305.778C1139.63 325.711 1199.71 319.846 1257.82 314.174C1314.96 308.592 1374.04 302.817 1471.72 322.378C1569.38 341.938 1609.7 367.623 1648.7 392.46C1688.36 417.716 1729.37 443.83 1828.92 463.775C1867.04 471.413 1899.35 475.255 1928 476.781L1928 472.216C1900.04 470.69 1868.54 466.927 1831.46 459.503C1733.8 439.943 1693.47 414.258 1654.47 389.421C1614.81 364.165 1573.8 338.051 1474.25 318.106C1374.71 298.162 1314.63 304.038 1256.52 309.71C1199.38 315.293 1140.3 321.067 1042.62 301.507C944.966 281.946 904.64 256.261 865.64 231.424C825.977 206.168 784.968 180.054 685.44 160.11C585.893 140.176 525.814 146.041 467.704 151.714C410.569 157.296 351.484 163.07 253.828 143.51C156.172 123.95 115.846 98.2647 76.8455 73.4272C50.267 56.4886 23.0256 39.177 -21.9999 23.5943L-21.9999 28.9053C19.8276 43.8439 45.743 60.3419 71.0734 76.4783L71.0734 76.4669Z" fill="#525154"/>
<path d="M-21.9999 1.78533C37.475 19.0404 68.87 39.2674 99.407 58.9859C138.934 84.4787 179.786 110.842 279.353 130.775C378.9 150.719 439.136 144.606 497.382 138.696C554.654 132.888 613.876 126.876 711.532 146.437C809.188 165.997 849.358 191.919 888.221 216.983C927.748 242.475 968.6 268.838 1068.17 288.771C1167.71 308.716 1227.95 302.603 1286.2 296.693C1343.47 290.885 1402.69 284.873 1500.35 304.433C1598 323.994 1638.17 349.916 1677.04 374.979C1716.56 400.472 1757.43 426.835 1856.98 446.779C1883.15 452.023 1906.59 455.447 1928 457.571L1928 452.972C1907.31 450.881 1884.71 447.559 1859.54 442.508C1761.88 422.948 1721.71 397.026 1682.85 371.962C1643.32 346.469 1602.45 320.106 1502.9 300.173C1403.35 280.229 1343.12 286.342 1284.87 292.252C1227.6 298.06 1168.38 304.072 1070.72 284.511C973.066 264.951 932.896 239.029 894.032 213.965C854.506 188.473 813.653 162.11 714.086 142.177C614.538 122.232 554.303 128.345 496.056 134.255C438.785 140.063 379.564 146.075 281.908 126.515C184.252 106.954 144.081 81.0436 105.218 55.9688C75.461 36.7701 44.924 17.0855 -10.846 0.0112255L-21.9804 0.0112247L-21.9804 1.79663L-21.9999 1.78533Z" fill="#525154"/>
<path d="M127.76 41.4822C167.15 67.2123 207.866 93.8124 307.433 113.757C407 133.701 467.372 127.351 525.774 121.204C583.182 115.169 642.54 108.921 740.177 128.481C837.813 148.041 877.847 174.189 916.574 199.479C955.964 225.209 996.68 251.809 1096.25 271.754C1195.81 291.698 1256.21 285.347 1314.59 279.2C1372 273.166 1431.35 266.917 1528.99 286.478C1626.63 306.038 1666.66 332.186 1705.39 357.475C1744.78 383.206 1785.49 409.806 1885.08 429.75C1900.27 432.79 1914.53 435.208 1928.02 437.129L1928.02 432.462C1915.29 430.632 1901.87 428.338 1887.64 425.479C1790 405.919 1749.97 379.77 1711.24 354.481C1671.85 328.751 1631.13 302.151 1531.55 282.206C1431.98 262.262 1371.59 268.612 1313.2 274.759C1255.8 280.794 1196.44 287.042 1098.8 267.482C1001.16 247.922 961.131 221.774 922.404 196.484C883.014 170.754 842.298 144.154 742.731 124.209C643.164 104.265 582.793 110.616 524.39 116.763C466.982 122.797 407.624 129.046 309.987 109.486C212.351 89.9253 172.317 63.777 133.61 38.4876C113.817 25.5604 93.6934 12.4186 65.9449 0.0111389L52.8019 0.0111381C84.5284 13.2661 106.349 27.504 127.76 41.4934L127.76 41.4822Z" fill="#525154"/>
<path d="M156.094 23.9784C195.347 49.9345 235.927 76.7833 335.494 96.7278C435.08 116.672 495.608 110.073 554.127 103.7C611.653 97.4285 671.167 90.9536 768.784 110.503C866.401 130.052 906.297 156.448 944.868 181.964C984.122 207.92 1024.7 234.769 1124.29 254.713C1223.87 274.658 1284.4 268.07 1342.94 261.685C1400.49 255.414 1459.98 248.939 1557.6 268.488C1655.23 288.037 1695.11 314.434 1733.7 339.949C1772.96 365.917 1813.53 392.754 1913.12 412.699C1918.19 413.716 1923.13 414.642 1928 415.524L1928 410.789C1923.94 410.043 1919.87 409.275 1915.68 408.438C1818.06 388.889 1778.16 362.493 1739.57 336.977C1700.32 311.01 1659.74 284.172 1560.15 264.217C1460.59 244.272 1400.04 250.871 1341.5 257.244C1283.95 263.516 1224.46 269.991 1126.84 250.442C1029.23 230.893 989.329 204.496 950.758 178.981C911.504 153.025 870.925 126.176 771.338 106.231C671.771 86.2867 611.224 92.8746 552.684 99.2591C495.14 105.531 435.646 112.005 338.028 92.4565C240.412 72.9075 200.515 46.522 161.944 20.9953C151.375 14.0119 140.708 6.96064 128.832 -0.0114705L117.737 -0.0114712C131.796 7.90982 144.003 15.9781 156.074 23.9672L156.094 23.9784Z" fill="#525154"/>
<path d="M363.574 79.7214C463.16 99.6659 523.844 92.8294 582.52 86.2189C640.201 79.7214 699.831 73.0092 797.429 92.5582C895.046 112.107 934.787 138.73 973.222 164.483C1012.34 190.676 1052.78 217.774 1152.37 237.718C1251.95 257.663 1312.64 250.826 1371.31 244.216C1428.98 237.718 1488.63 231.006 1586.22 250.555C1683.84 270.104 1723.58 296.727 1762.04 322.479C1799.38 347.486 1837.95 373.295 1927.98 392.946L1927.98 388.11C1841.71 368.922 1804.23 343.836 1767.92 319.519C1728.81 293.325 1688.36 266.228 1588.78 246.283C1489.19 226.339 1428.51 233.175 1369.83 239.786C1312.17 246.283 1252.52 252.996 1154.92 233.447C1057.31 213.898 1017.56 187.275 979.13 161.522C940.013 135.329 899.57 108.231 799.984 88.2868C700.397 68.3423 639.713 75.1788 581.038 81.7893C523.357 88.2868 463.725 94.999 366.128 75.45C268.511 55.901 228.77 29.2782 190.336 3.52546C188.581 2.35026 186.826 1.17506 185.051 -0.000144757L174.697 -0.000145436C177.973 2.16947 181.21 4.32777 184.427 6.48606C223.544 32.6795 263.987 59.7769 363.574 79.7214Z" fill="#525154"/>
<path d="M391.634 62.7035C491.24 82.6594 552.06 75.5743 610.892 68.7378C668.69 62.0143 728.458 55.0535 826.055 74.6025C923.653 94.1515 963.257 121.012 1001.55 146.979C1040.54 173.41 1080.84 200.744 1180.45 220.7C1280.05 240.645 1340.87 233.571 1399.71 226.723C1457.5 220 1517.27 213.05 1614.87 232.588C1712.47 252.137 1752.07 278.997 1790.37 304.964C1823.46 327.406 1857.53 350.492 1927.98 369.16L1927.98 364.165C1861.19 346.017 1828.28 323.711 1796.3 302.026C1757.32 275.596 1717.01 248.261 1617.4 228.305C1517.8 208.361 1456.98 215.434 1398.15 222.271C1340.35 228.994 1280.58 235.955 1182.98 216.406C1085.39 196.857 1045.78 169.997 1007.48 144.03C968.502 117.599 928.196 90.2643 828.59 70.3198C728.984 50.364 668.163 57.4491 609.332 64.2856C551.534 71.0091 491.766 77.9699 394.169 58.4209C313.985 42.3636 272.957 21.3681 239.632 -0.0114632L229.16 -0.0114639C264.007 22.8371 305.795 45.5049 391.614 62.6923L391.634 62.7035Z" fill="#525154"/>
<path d="M639.264 51.2454C697.199 44.2959 757.103 37.0979 854.701 56.6469C952.279 76.1959 991.746 103.282 1029.91 129.487C1068.75 156.155 1108.9 183.727 1208.53 203.682C1308.15 223.638 1369.13 216.316 1428.08 209.242C1486.01 202.293 1545.92 195.095 1643.51 214.644C1741.11 234.193 1780.56 261.29 1818.72 287.483C1846.98 306.885 1875.95 326.762 1928 343.836L1928 338.593C1879.45 322.14 1851.72 303.123 1824.69 284.557C1785.85 257.889 1745.68 230.317 1646.07 210.361C1546.46 190.405 1485.49 197.727 1426.52 204.801C1368.58 211.751 1308.68 218.949 1211.08 199.4C1113.5 179.851 1074.04 152.765 1035.88 126.56C997.031 99.892 956.881 72.32 857.255 52.3642C757.649 32.4084 696.673 39.7307 637.705 46.8045C579.77 53.754 519.866 60.9521 422.288 41.4032C363.866 29.6963 326.27 15.2888 297.332 -0.0113984L285.886 -0.0113991C316.228 16.8595 355.695 32.849 419.753 45.6745C519.359 65.6303 580.335 58.308 639.304 51.2342L639.264 51.2454Z" fill="#525154"/>
<path d="M667.637 33.753C725.708 26.5662 785.749 19.1421 883.327 38.6911C980.905 58.2401 1020.22 85.5635 1058.24 111.994C1096.95 138.9 1136.96 166.72 1236.59 186.676C1336.21 206.632 1397.35 199.072 1456.45 191.761C1514.52 184.574 1574.56 177.15 1672.14 196.699C1769.72 216.248 1809.03 243.571 1847.06 270.002C1869.7 285.732 1892.8 301.778 1928 316.389L1928 310.761C1895.98 296.941 1874.3 281.89 1853.04 267.109C1814.33 240.204 1774.32 212.383 1674.68 192.428C1575.05 172.472 1513.92 180.032 1454.81 187.343C1396.74 194.529 1336.7 201.954 1239.12 182.405C1141.55 162.867 1102.23 135.532 1064.21 109.101C1025.5 82.1961 985.487 54.3755 885.861 34.4197C786.236 14.4639 725.104 22.0236 665.999 29.3347C607.928 36.5215 547.887 43.9456 450.309 24.3966C414.274 17.1759 386.213 8.90429 363.203 -0.000133082L349.455 -0.000133983C374.591 10.5089 405.908 20.2834 447.774 28.668C547.4 48.6238 608.533 41.0641 667.637 33.753Z" fill="#525154"/>
<path d="M696.029 16.2719C754.236 8.85911 814.414 1.19768 911.972 20.7354C1009.53 40.2731 1048.71 67.8338 1086.59 94.4905C1125.17 121.633 1165.04 149.691 1264.69 169.647C1364.33 189.603 1425.6 181.806 1484.86 174.257C1543.07 166.844 1603.25 159.183 1700.81 178.721C1798.36 198.258 1837.54 225.83 1875.43 252.487C1891.36 263.697 1907.53 275.065 1928.04 285.958L1928.04 279.743C1910.27 269.889 1895.77 259.685 1881.45 249.617C1842.88 222.474 1803.01 194.416 1703.36 174.461C1603.72 154.505 1542.45 162.302 1483.19 169.85C1425 177.263 1364.8 184.924 1267.24 165.387C1169.68 145.849 1130.51 118.288 1092.62 91.6316C1054.05 64.489 1014.17 36.4311 914.527 16.4753C814.882 -3.48048 753.612 4.31648 694.371 11.8649C636.164 19.2777 575.987 26.9391 478.428 7.40136C466.689 5.05096 455.828 2.58758 445.688 0.0111943L427.065 0.0111931C441.593 4.12438 457.739 8.03421 475.894 11.6728C575.539 31.6286 636.808 23.8315 696.068 16.2832L696.029 16.2719Z" fill="#525154"/>
<path d="M940.598 2.77977C1038.16 22.3175 1077.18 50.1155 1114.91 76.9982C1153.34 104.367 1193.08 132.673 1292.73 152.64C1392.37 172.596 1453.8 164.551 1513.2 156.776C1571.52 149.137 1631.85 141.239 1729.39 160.776C1826.95 180.314 1865.97 208.112 1903.72 234.995C1911.58 240.6 1919.52 246.238 1927.98 251.832L1927.98 244.916C1921.72 240.656 1915.73 236.385 1909.77 232.136C1871.33 204.767 1831.59 176.461 1731.95 156.494C1632.28 136.527 1570.88 144.583 1511.48 152.358C1453.16 159.997 1392.82 167.895 1295.28 148.358C1197.73 128.82 1158.71 101.022 1120.97 74.1392C1083.49 47.4373 1044.73 19.8541 950.387 -6.4076e-05L925.915 -6.56801e-05C930.731 0.858745 935.606 1.77406 940.618 2.77977L940.598 2.77977Z" fill="#525154"/>
<path d="M715.021 -0.00010252L674.968 -0.000105145C644.256 2.88139 610.716 4.01139 570.078 -0.00011202L533.944 -0.000114389C611.535 12.1474 664.672 6.51999 715.021 -0.00010252Z" fill="#525154"/>
<path d="M1143.24 59.5058C1181.54 87.1117 1221.13 115.667 1320.79 135.623C1420.45 155.59 1482.02 147.296 1541.57 139.284C1600.03 131.419 1660.48 123.283 1758.02 142.809C1852.05 161.647 1891.57 188.371 1927.98 214.564L1927.98 207.378C1892.43 182.111 1851.5 156.754 1760.57 138.538C1660.91 118.571 1599.35 126.865 1539.79 134.877C1481.33 142.742 1420.86 150.878 1323.32 131.351C1225.79 111.813 1186.9 83.7782 1149.31 56.6695C1122.2 37.1205 1094.39 17.1082 1045.14 1.84283e-05L1029.34 1.7393e-05C1085.05 17.5828 1114.54 38.8042 1143.24 59.5058Z" fill="#525154"/>
<path d="M1171.59 42.002C1209.76 69.8452 1249.2 98.6376 1348.89 118.605C1448.57 138.572 1510.27 130.04 1569.96 121.791C1628.56 113.689 1689.14 105.327 1786.68 124.854C1857.39 139.013 1897.19 157.771 1928 177.421L1928 170.754C1897.33 151.985 1857.33 134.221 1789.22 120.582C1689.55 100.615 1627.84 109.147 1568.15 117.396C1509.55 125.486 1448.96 133.86 1351.42 114.333C1253.9 94.7956 1215.16 66.5343 1177.7 39.1883C1159.6 25.9899 1141.21 12.5768 1116.27 -9.89807e-05L1104.09 -9.97795e-05C1132.3 13.3452 1152.13 27.7979 1171.59 42.002Z" fill="#525154"/>
<path d="M1376.95 101.587C1476.63 121.554 1538.51 112.785 1598.33 104.299C1657.07 95.9708 1717.79 87.3603 1815.31 106.898C1866.18 117.091 1901.01 129.724 1928 143.397L1928 137.408C1901.17 124.424 1866.79 112.424 1817.86 102.627C1718.18 82.6595 1656.31 91.4283 1596.48 99.9146C1537.75 108.243 1477.02 116.853 1379.5 97.3155C1281.98 77.7778 1243.39 49.2792 1206.07 21.7185C1196.28 14.4865 1186.4 7.18672 1175.42 -7.98454e-05L1164.89 -8.05356e-05C1177.68 8.07942 1188.87 16.3397 1199.95 24.5096C1237.97 52.5901 1277.28 81.6198 1376.97 101.587L1376.95 101.587Z" fill="#525154"/>
<path d="M1405.03 84.5693C1504.73 104.536 1566.74 95.5302 1626.71 86.8067C1685.58 78.2526 1746.44 69.4047 1843.94 88.9311C1878.55 95.858 1905.67 103.96 1928 112.751L1928 107.282C1906.06 98.9655 1879.64 91.2927 1846.49 84.6596C1746.81 64.6925 1684.78 73.6987 1624.81 82.4222C1565.94 90.9763 1505.08 99.8242 1407.58 80.2978C1310.08 60.7714 1271.63 32.0355 1234.44 4.23752C1232.55 2.82502 1230.66 1.41252 1228.75 2.28324e-05L1218.84 2.21831e-05C1222.02 2.33912 1225.14 4.67825 1228.26 7.01735C1266.15 35.3351 1305.33 64.6134 1405.01 84.5805L1405.03 84.5693Z" fill="#525154"/>
<path d="M1433.09 67.5627C1532.79 87.5298 1594.96 78.2864 1655.08 69.3368C1714.07 60.5567 1775.08 51.4716 1872.58 70.998C1893.62 75.2129 1911.89 79.8684 1928 84.863L1928 79.7442C1912.46 75.0773 1895.03 70.7154 1875.12 66.7265C1775.41 46.7594 1713.25 56.0141 1653.13 64.9637C1594.12 73.7438 1533.13 82.8291 1435.63 63.3027C1353.45 46.8386 1313.32 23.6735 1280.56 0.0226474L1270.6 0.0226467C1304.78 25.1538 1345.55 50.0477 1433.09 67.5853L1433.09 67.5627Z" fill="#525154"/>
<path d="M1461.17 50.5449C1560.89 70.5233 1623.2 61.02 1683.45 51.8444C1742.57 42.8384 1803.73 33.5159 1901.21 53.0423C1910.68 54.9407 1919.6 56.9407 1928 59.0086L1928 54.1045C1920.32 52.2626 1912.28 50.4771 1903.74 48.7708C1804.02 28.7924 1741.72 38.2958 1681.46 47.4714C1622.34 56.4774 1561.19 65.7999 1463.71 46.2735C1401.71 33.8548 1363.71 17.515 1334.77 1.83375e-05L1324.05 1.76345e-05C1354.25 19.097 1393.84 37.0527 1461.17 50.5449Z" fill="#525154"/>
<path d="M1711.82 34.352C1773.42 24.747 1831.63 15.6843 1928 34.7248L1928 29.9676C1830.83 11.1531 1769.31 20.7128 1709.79 29.9901C1647.8 39.6516 1589.25 48.782 1491.79 29.2556C1450.07 20.9049 1419.58 10.9609 1395.3 -8.83215e-05L1383.13 -8.9119e-05C1409.22 12.622 1442.55 24.1706 1489.25 33.527C1588.97 53.5054 1651.43 43.7649 1711.84 34.352L1711.82 34.352Z" fill="#525154"/>
<path d="M1740.2 16.8596C1795.56 8.03429 1848.23 -0.338954 1928 11.7521L1928 7.1077C1846.9 -4.82511 1791.69 3.95501 1738.13 12.4978C1676 22.3966 1617.33 31.753 1519.86 12.2379C1501.07 8.47501 1484.55 4.37309 1469.85 -7.14127e-06L1453.72 -8.19828e-06C1471.8 6.01159 1492.68 11.5825 1517.31 16.5093C1617.05 36.4877 1679.65 26.5098 1740.2 16.8596Z" fill="#525154"/>
<path d="M1764.71 -4.1008e-05L1734.79 -4.29686e-05C1688.97 6.71215 1641.14 10.4977 1574.56 -5.3471e-05L1548 -5.52118e-05C1644.12 18.8597 1705.74 9.58235 1764.71 -4.1008e-05Z" fill="#525154"/>
</g>
</g>
<defs>
<clipPath id="clip0_1_563">
<rect width="1950" height="678" fill="white" transform="translate(1928 678) rotate(-180)"/>
</clipPath>
</defs>
</svg>
