<svg width="1902" height="678" viewBox="0 0 1902 678" fill="none" xmlns="http://www.w3.org/2000/svg">
<g style="mix-blend-mode:luminosity" opacity="0.2">
<g clip-path="url(#clip0_78_2925)">
<path d="M1872.11 0L1856.78 0C1873.67 5.9777 1892.87 12.0006 1916 18.0687L1916 13.0854C1899.56 8.701 1885.11 4.3392 1872.11 0Z" fill="#525154"/>
<path d="M1796.84 0L1783.71 0C1816.28 14.125 1853.46 28.5438 1916 43.053L1916 38.1827C1861.34 25.3346 1826.53 12.5656 1796.84 0.0113L1796.84 0Z" fill="#525154"/>
<path d="M1742.45 6.1246C1737.93 4.0906 1733.4 2.0453 1728.78 0L1715.87 0C1723.34 3.2431 1730.52 6.4749 1737.65 9.6954C1779.44 28.5212 1822.63 47.9685 1916 67.2802L1916 62.4777C1825.62 43.5841 1783.34 24.5549 1742.45 6.1359L1742.45 6.1246Z" fill="#525154"/>
<path d="M1898.29 82.6708C1800.31 63.0427 1756.49 43.0078 1714.12 23.6283C1697.07 15.8313 1679.8 7.9439 1658.95 0L1644.42 0C1669.81 9.1304 1689.7 18.2156 1709.28 27.1652C1752.18 46.782 1796.52 67.0655 1895.76 86.9309C1902.72 88.3208 1909.45 89.609 1916 90.8181L1916 86.0834C1910.25 85.0212 1904.36 83.8799 1898.29 82.6595L1898.29 82.6708Z" fill="#525154"/>
<path d="M1869.67 100.627C1771.7 81.0097 1728.02 60.7262 1685.78 41.1207C1656.63 27.5833 1626.8 13.7408 1579.31 0L1561.29 0C1616.79 14.8821 1649.26 29.9563 1680.91 44.6463C1723.67 64.5004 1767.88 85.0212 1867.11 104.898C1884.68 108.412 1900.87 111.294 1916 113.655L1916 108.966C1901.63 106.695 1886.26 103.949 1869.67 100.627Z" fill="#525154"/>
<path d="M1841.04 118.582C1743.09 98.9654 1699.55 78.4559 1657.47 58.6131C1616.36 39.2449 1573.87 19.2326 1481.83 0L1457.91 0C1461.53 0.6893 1465.2 1.4012 1468.94 2.1583C1566.89 21.7751 1610.44 42.2846 1652.52 62.1274C1695.14 82.2075 1739.21 102.977 1838.47 122.865C1867.64 128.707 1893.13 132.775 1915.98 135.6L1915.98 130.967C1893.81 128.187 1869.14 124.221 1841.02 118.582H1841.04Z" fill="#525154"/>
<path d="M1812.4 136.538C1714.47 116.921 1671.08 96.1743 1629.12 76.1168C1586.63 55.7994 1542.69 34.7814 1443.42 14.9047C1405.39 7.2885 1373.61 2.712 1345.72 0L1147.95 0C1179.41 1.8532 1206.08 1.4916 1232.33 1.1187C1286.72 0.3503 1342.93 -0.440701 1440.88 19.1761C1538.81 38.7929 1582.2 59.5397 1624.16 79.6085C1666.65 99.9259 1710.59 120.933 1809.86 140.821C1851.79 149.217 1886.15 153.917 1916 156.494L1916 151.917C1886.79 149.352 1853.23 144.73 1812.4 136.549L1812.4 136.538Z" fill="#525154"/>
<path d="M1783.77 154.494C1685.84 134.877 1642.61 113.893 1600.8 93.6092C1558.45 73.0545 1514.65 51.7992 1415.36 31.9112C1316.08 12.0232 1258.97 13.0741 1203.76 14.0798C1152.73 15.0177 1100.06 15.9782 1013.17 0L988.639 0C989.906 0.2599 991.135 0.5198 992.422 0.7684C1091.7 20.6564 1148.79 19.6055 1204.02 18.5998C1258.52 17.6054 1314.89 16.5658 1412.82 36.1826C1510.75 55.7994 1553.98 76.7835 1595.79 97.067C1638.14 117.622 1681.94 138.877 1781.24 158.765C1837.14 169.963 1879.67 174.517 1916.02 176.19L1916.02 171.647C1880.32 169.975 1838.55 165.466 1783.79 154.494H1783.77Z" fill="#525154"/>
<path d="M1755.13 172.449C1657.22 152.844 1614.12 131.622 1572.45 111.102C1530.23 90.3096 1486.57 68.817 1387.28 48.929C1287.98 29.041 1230.75 30.3292 1175.37 31.5722C1120.73 32.8039 1064.22 34.0695 966.311 14.4527C942.677 9.718 922.241 4.8816 904.243 0L886.42 0C908.006 6.3506 933.259 12.6108 963.776 18.7241C1063.07 38.6121 1120.3 37.3239 1175.68 36.0809C1230.32 34.8605 1286.83 33.5836 1384.74 53.2004C1482.65 72.8059 1525.75 94.0273 1567.42 114.548C1609.64 135.34 1653.3 156.833 1752.59 176.721C1823.73 190.97 1873.26 194.349 1916 194.665L1916 190.134C1873.9 189.806 1825.09 186.461 1755.13 172.449Z" fill="#525154"/>
<path d="M1726.5 190.405C1628.61 170.799 1585.65 149.341 1544.12 128.594C1502.04 107.565 1458.51 85.8348 1359.2 65.9355C1259.88 46.0475 1202.5 47.573 1146.98 49.0533C1092.22 50.511 1035.58 52.0139 937.666 32.4084C885.679 22.0011 849.195 11.0627 820.179 0L806.256 0C837.202 12.5204 876.417 24.9278 935.112 36.6798C1034.43 56.5678 1091.81 55.0423 1147.33 53.5733C1202.11 52.1156 1258.75 50.6127 1356.64 70.2182C1454.53 89.8237 1497.49 111.282 1539.01 132.029C1581.09 153.058 1624.61 174.788 1723.93 194.688C1811.31 212.191 1866.22 213.107 1915.98 212.067L1915.98 207.547C1866.86 208.575 1812.67 207.683 1726.48 190.416L1726.5 190.405Z" fill="#525154"/>
<path d="M1907.42 224.542C1852.51 226.226 1795.74 227.977 1697.85 208.372C1599.96 188.766 1557.18 167.082 1515.78 146.109C1473.84 124.854 1430.45 102.864 1331.12 82.9758C1231.8 63.0878 1174.26 64.8506 1118.59 66.5569C1063.67 68.2406 1006.91 69.9921 909.02 50.3866C829.558 34.4649 786.404 17.1872 750.817 0.0224609L738.707 0.0224609C776.264 18.5884 820.315 37.4142 906.466 54.658C1005.8 74.5573 1063.34 72.7832 1119 71.0769C1173.89 69.3932 1230.67 67.653 1328.56 87.2472C1426.45 106.853 1469.24 128.537 1510.63 149.51C1552.58 170.765 1595.97 192.755 1695.3 212.643C1794.61 232.531 1852.18 230.768 1907.83 229.062C1910.54 228.983 1913.27 228.893 1916 228.814L1916 224.294C1913.13 224.384 1910.27 224.463 1907.42 224.553L1907.42 224.542Z" fill="#525154"/>
<path d="M1879.05 242.023C1824.02 243.944 1767.1 245.922 1669.25 226.316C1571.38 206.711 1528.73 184.789 1487.47 163.59C1445.64 142.098 1402.41 119.87 1303.08 99.9711C1203.74 80.0718 1146.04 82.0832 1090.25 84.0268C1035.22 85.9478 978.304 87.9253 880.434 68.3198C782.563 48.7143 739.897 26.7923 698.655 5.5935C695.028 3.729 691.401 1.8645 687.715 0L675.82 0C681.826 3.0058 687.657 6.0003 693.468 8.9835C735.295 30.4761 778.527 52.7032 877.879 72.6025C977.212 92.5018 1034.91 90.4904 1090.7 88.5468C1145.73 86.6258 1202.65 84.6483 1300.52 104.254C1398.39 123.859 1441.04 145.781 1482.28 166.98C1524.11 188.473 1567.34 210.7 1666.67 230.599C1766.01 250.498 1823.71 248.487 1879.5 246.543C1891.43 246.125 1903.46 245.707 1915.98 245.515L1915.98 240.984C1903.31 241.187 1891.12 241.605 1879.03 242.035L1879.05 242.023Z" fill="#525154"/>
<path d="M1850.67 259.516C1795.51 261.663 1738.45 263.878 1640.6 244.283C1542.75 224.678 1500.24 202.53 1459.13 181.094C1417.44 159.364 1374.35 136.899 1275 117C1175.64 97.1008 1117.81 99.3495 1061.86 101.53C1006.69 103.677 949.657 105.892 851.787 86.298C753.936 66.6925 711.426 44.5445 670.3 23.1084C655.617 15.4583 640.738 7.70653 623.305 0.0112305L610.182 0.0112305C631.183 8.80263 648.246 17.6957 665.074 26.4645C706.765 48.1944 749.86 70.6588 849.213 90.5581C948.565 110.457 1006.4 108.209 1062.35 106.028C1117.51 103.881 1174.57 101.666 1272.42 121.26C1370.27 140.866 1412.78 163.014 1453.89 184.45C1495.58 206.18 1538.67 228.644 1638.03 248.543C1737.38 268.443 1795.22 266.194 1851.16 264.024C1871.81 263.222 1892.74 262.409 1915.98 262.736L1915.98 258.205C1892.58 257.889 1871.48 258.702 1850.65 259.516H1850.67Z" fill="#525154"/>
<path d="M1822.28 276.997C1766.98 279.37 1709.81 281.822 1611.96 262.228C1514.12 242.634 1471.75 220.237 1430.78 198.586C1389.23 176.619 1346.27 153.906 1246.9 134.007C1147.52 114.107 1089.53 116.593 1033.45 119C978.147 121.373 920.973 123.825 823.122 104.231C725.271 84.637 682.917 62.2404 641.947 40.5896C616.363 27.0635 590.214 13.2549 550.726 0L534.658 0C580.503 14.2493 608.934 29.2557 636.682 43.9344C678.237 65.9016 721.195 88.6146 820.567 108.514C919.92 128.413 977.932 125.927 1034.01 123.52C1089.32 121.147 1146.49 118.695 1244.34 138.289C1342.19 157.884 1384.55 180.28 1425.52 201.931C1467.07 223.898 1510.03 246.611 1609.4 266.511C1708.77 286.41 1766.77 283.924 1822.85 281.517C1851.57 280.285 1880.82 279.031 1915.98 280.862L1915.98 276.308C1880.65 274.511 1851.2 275.765 1822.26 277.008L1822.28 276.997Z" fill="#525154"/>
<path d="M1793.91 294.489C1738.49 297.088 1681.16 299.789 1583.33 280.195C1485.5 260.6 1443.28 237.978 1402.47 216.09C1361.05 193.885 1318.23 170.935 1218.86 151.036C1119.48 131.136 1061.34 133.86 1005.1 136.504C949.659 139.114 892.348 141.804 794.517 122.209C696.685 102.615 654.468 79.9813 613.635 58.1045C576.975 38.4538 539.184 18.2155 462.061 0.0224609L440.475 0.0224609C529.102 18.9839 569.37 40.5443 608.35 61.4267C649.768 83.6312 692.59 106.581 791.982 126.492C891.354 146.391 949.503 143.668 1005.74 141.024C1061.16 138.425 1118.49 135.724 1216.32 155.318C1314.15 174.913 1356.37 197.546 1397.18 219.423C1438.6 241.628 1481.42 264.578 1580.8 284.477C1680.17 304.377 1738.32 301.653 1794.55 299.009C1830.67 297.314 1867.6 295.585 1916.02 300.004L1916.02 295.416C1867.45 291.054 1830.28 292.794 1793.93 294.5L1793.91 294.489Z" fill="#525154"/>
<path d="M1765.52 311.97C1709.96 314.807 1652.51 317.733 1554.68 298.139C1456.87 278.545 1414.79 255.685 1374.11 233.571C1332.83 211.141 1290.15 187.942 1190.75 168.031C1091.36 148.12 1033.06 151.092 976.703 153.974C921.147 156.81 863.681 159.737 765.869 140.143C668.057 120.548 625.976 97.6886 585.299 75.5745C544.017 53.144 501.332 29.9451 401.94 10.0345C380.139 5.66137 360.308 2.39567 342.036 -0.0112305L296.523 -0.0112305C325.773 2.00017 359.157 6.24897 399.386 14.3059C497.198 33.9001 539.279 56.76 579.956 78.8741C621.237 101.305 663.923 124.503 763.314 144.414C862.706 164.325 920.991 161.353 977.366 158.471C1032.92 155.635 1090.39 152.708 1188.2 172.302C1286.01 191.897 1328.09 214.757 1368.77 236.871C1410.05 259.301 1452.74 282.5 1552.13 302.411C1651.52 322.321 1709.81 319.349 1766.18 316.468C1809.08 314.287 1853.11 312.05 1915.98 320.152L1915.98 315.519C1852.97 307.518 1808.67 309.767 1765.5 311.97H1765.52Z" fill="#525154"/>
<path d="M188.572 0.4859C191.751 0.3277 194.949 0.1582 198.147 0L66.6582 0C115.077 4.2149 152.224 2.3391 188.572 0.4859Z" fill="#525154"/>
<path d="M1737.15 329.463C1681.45 332.525 1623.87 335.689 1526.06 316.106C1428.25 296.512 1386.32 273.415 1345.78 251.086C1304.64 228.418 1262.09 204.971 1162.7 185.06C1063.28 165.15 1004.84 168.37 948.332 171.478C892.64 174.54 835.057 177.704 737.245 158.121C639.433 138.527 597.508 115.43 556.967 93.0896C515.822 70.4218 473.273 46.9743 373.862 27.0637C274.451 7.15311 216.01 10.3623 159.479 13.4698C107.239 16.34 53.282 19.3006 -34 3.45801L-34 8.18141C53.3795 23.8206 107.648 20.8487 160.24 17.9559C215.932 14.8936 273.535 11.7296 371.327 31.3125C469.139 50.9067 511.064 74.0039 551.605 96.344C592.75 119.012 635.298 142.459 734.709 162.37C834.101 182.281 892.562 179.071 949.073 175.953C1004.77 172.89 1062.35 169.726 1160.16 189.309C1257.95 208.903 1299.88 232.001 1340.44 254.329C1381.58 276.997 1424.13 300.445 1523.54 320.355C1622.95 340.266 1681.4 337.057 1737.91 333.938C1787.03 331.237 1837.65 328.469 1916.02 341.294L1916.02 336.593C1837.51 323.926 1786.6 326.728 1737.17 329.44L1737.15 329.463Z" fill="#525154"/>
<path d="M1708.77 346.944C1652.95 350.232 1595.22 353.634 1497.43 334.051C1399.64 314.468 1357.87 291.133 1317.47 268.567C1276.46 245.662 1234.05 221.977 1134.64 202.067C1035.22 182.156 976.627 185.614 919.96 188.947C864.151 192.236 806.411 195.637 708.618 176.054C610.826 156.471 569.057 133.137 528.653 110.571C487.645 87.6654 445.232 63.9806 345.821 44.07C246.41 24.1594 187.813 27.6172 131.146 30.9507C84.7355 33.6853 36.98 36.4877 -33.9805 26.103L-33.9805 30.7699C37.1555 41.019 85.223 38.2053 131.945 35.4481C187.774 32.1598 245.513 28.7585 343.286 48.3414C441.079 67.9243 482.867 91.2588 523.251 113.825C564.26 136.73 606.673 160.415 706.084 180.325C805.495 200.236 864.092 196.778 920.759 193.445C976.588 190.156 1034.31 186.755 1132.1 206.338C1229.89 225.921 1271.66 249.255 1312.07 271.822C1353.07 294.727 1395.49 318.411 1494.9 338.322C1594.31 358.233 1652.91 354.775 1709.57 351.441C1764.45 348.21 1821.19 344.876 1916.02 363.374L1916.02 358.606C1821.11 340.333 1764.02 343.69 1708.79 346.944H1708.77Z" fill="#525154"/>
<path d="M1895.37 377.081C1795.94 357.17 1737.2 360.865 1680.38 364.436C1624.44 367.962 1566.56 371.6 1468.79 352.017C1371.01 332.434 1329.38 308.863 1289.11 286.071C1248.24 262.928 1205.97 239.006 1106.54 219.084C1007.11 199.174 948.371 202.869 891.548 206.44C835.602 209.965 777.726 213.604 679.953 194.021C582.18 174.438 540.548 150.866 500.28 128.074C459.408 104.932 417.132 81.0095 317.702 61.0876C218.271 41.177 159.518 44.8721 102.714 48.4429C62.7199 50.9628 21.7699 53.5279 -34.0391 47.6519L-34.0391 52.251C22.0039 58.0592 63.2659 55.4715 103.553 52.9403C159.498 49.4147 217.374 45.7761 315.147 65.3703C412.92 84.9532 454.553 108.525 494.82 131.317C535.692 154.46 577.968 178.382 677.399 198.304C776.829 218.214 835.563 214.519 892.386 210.948C948.351 207.423 1006.21 203.784 1103.98 223.367C1201.75 242.95 1243.39 266.522 1283.65 289.314C1324.53 312.456 1366.8 336.378 1466.23 356.3C1565.66 376.211 1624.4 372.516 1681.22 368.945C1737.18 365.419 1795.04 361.781 1892.81 381.363C1900.93 382.991 1908.63 384.641 1916 386.324L1916 381.476C1909.39 379.996 1902.54 378.539 1895.37 377.103L1895.37 377.081Z" fill="#525154"/>
<path d="M1867.29 394.099C1767.84 374.177 1708.95 378.121 1652.01 381.929C1595.93 385.68 1537.93 389.556 1440.16 369.973C1342.41 350.39 1300.91 326.593 1260.8 303.575C1220.06 280.195 1177.92 256.024 1078.49 236.114C979.064 216.192 920.154 220.135 863.214 223.943C807.132 227.695 749.139 231.571 651.366 211.988C553.593 192.405 512.117 168.607 471.986 145.578C431.251 122.198 389.111 98.0275 289.661 78.1169C190.211 58.195 131.321 62.1387 74.3615 65.9468C41.4455 68.1503 7.8665 70.3877 -34 67.9017L-34 72.4557C8.1785 74.8965 42.05 72.6477 75.2585 70.4329C131.34 66.6814 189.353 62.8055 287.106 82.3884C384.879 101.971 426.356 125.769 466.487 148.798C507.222 172.178 549.362 196.349 648.812 216.259C748.242 236.17 807.152 232.238 864.092 228.43C920.174 224.678 978.186 220.802 1075.94 240.385C1173.69 259.968 1215.19 283.766 1255.3 306.784C1296.04 330.163 1338.18 354.334 1437.61 374.245C1537.04 394.167 1595.93 390.223 1652.89 386.415C1708.97 382.663 1766.96 378.787 1864.73 398.37C1883.84 402.201 1900.77 406.19 1915.98 410.303L1915.98 405.32C1901.39 401.466 1885.29 397.715 1867.27 394.11L1867.29 394.099Z" fill="#525154"/>
<path d="M1839.23 411.105C1739.78 391.183 1680.73 395.364 1623.64 399.41C1567.42 403.387 1509.29 407.5 1411.53 387.929C1313.78 368.346 1272.44 344.311 1232.47 321.067C1191.87 297.461 1149.86 273.042 1050.41 253.12C950.964 233.198 891.918 237.379 834.822 241.424C778.604 245.402 720.474 249.515 622.721 229.943C524.967 210.361 483.627 186.325 443.652 163.081C403.053 139.464 361.05 115.056 261.6 95.1345C162.15 75.2126 103.104 79.3936 45.989 83.4277C20.834 85.2018 -4.711 87.0098 -34 86.7047L-34 91.2473C-4.36 91.5411 21.4775 89.7218 46.925 87.9138C103.143 83.9362 161.273 79.823 259.026 99.4059C356.78 118.989 398.12 143.024 438.095 166.268C478.694 189.874 520.697 214.293 620.147 234.215C719.597 254.137 778.643 249.956 835.739 245.91C891.957 241.933 950.087 237.82 1047.84 257.391C1145.59 276.974 1186.93 301.009 1226.91 324.253C1267.51 347.859 1309.51 372.278 1408.96 392.2C1508.41 412.122 1567.46 407.941 1624.55 403.896C1680.77 399.918 1738.9 395.805 1836.65 415.376C1868.44 421.738 1894.24 428.586 1915.98 435.716L1915.98 430.518C1894.69 423.727 1869.65 417.207 1839.21 411.105H1839.23Z" fill="#525154"/>
<path d="M1811.15 428.123C1711.68 408.201 1652.5 412.62 1595.24 416.891C1538.89 421.095 1480.62 425.445 1382.89 405.874C1285.16 386.302 1243.95 362.03 1204.11 338.548C1163.65 314.705 1121.8 290.049 1022.33 270.127C922.865 250.205 863.682 254.623 806.43 258.894C750.075 263.098 691.809 267.449 594.075 247.877C496.341 228.305 455.138 204.033 415.299 180.552C374.837 156.709 332.97 132.052 233.501 112.13C134.031 92.2082 74.8295 96.6265 17.597 100.898C0.885469 102.141 -15.982 103.395 -34.0195 104.051L-34.0195 108.593C-15.6505 107.938 1.56797 106.661 18.5915 105.395C74.9465 101.192 133.212 96.8412 230.946 116.413C328.68 135.984 369.884 160.268 409.722 183.738C450.185 207.581 492.051 232.238 591.521 252.171C690.99 272.093 750.173 267.675 807.425 263.403C863.761 259.2 922.046 254.849 1019.78 274.421C1117.51 293.992 1158.72 318.265 1198.56 341.746C1239.02 365.589 1280.87 390.246 1380.33 410.168C1479.8 430.089 1538.99 425.671 1596.24 421.4C1652.59 417.196 1710.86 412.846 1808.59 432.417C1855.32 441.774 1889.09 452.204 1915.98 463.108L1915.98 457.605C1889.34 447.164 1856.15 437.175 1811.13 428.157L1811.15 428.123Z" fill="#525154"/>
<path d="M1783.09 445.141C1683.6 425.219 1624.26 429.875 1566.89 434.384C1510.42 438.824 1452.02 443.412 1354.28 423.841C1256.55 404.269 1215.5 379.759 1175.82 356.052C1135.49 331.972 1093.78 307.066 994.294 287.145C894.824 267.223 835.486 271.878 778.097 276.387C721.606 280.828 663.203 285.416 565.489 265.833C467.755 246.261 426.707 221.751 387.005 198.044C346.66 173.964 304.969 149.059 205.48 129.137C106.01 109.215 46.6521 113.87 -10.7364 118.379C-18.4194 118.978 -26.1219 119.588 -33.9609 120.131L-33.9609 124.684C-25.7514 124.119 -17.6979 123.487 -9.68344 122.854C46.7886 118.413 105.211 113.825 202.925 133.408C300.659 152.98 341.707 177.489 381.409 201.197C421.754 225.277 463.465 250.182 562.934 270.104C662.404 290.026 721.742 285.37 779.131 280.862C835.622 276.421 894.025 271.833 991.739 291.416C1089.47 310.988 1130.52 335.497 1170.2 359.193C1210.55 383.274 1252.24 408.179 1351.73 428.101C1451.22 448.023 1510.56 443.367 1567.92 438.858C1624.4 434.417 1682.8 429.83 1780.53 449.401C1845.12 462.34 1884.96 477.437 1916 493.031L1916 487.075C1885.15 472.092 1845.49 457.639 1783.09 445.141Z" fill="#525154"/>
<path d="M1755.01 462.159C1655.52 442.237 1596.02 447.141 1538.5 451.876C1481.89 456.542 1423.35 461.368 1325.64 441.796C1227.92 422.224 1187.01 397.477 1147.47 373.555C1107.26 349.238 1065.7 324.095 966.194 304.173C866.705 284.24 807.211 289.144 749.686 293.89C693.077 298.557 634.538 303.382 536.824 283.811C439.109 264.239 398.198 239.492 358.633 215.57C318.424 191.252 276.869 166.11 177.361 146.177C80.8355 126.831 21.965 130.865 -34 135.453L-34 140.018C21.38 135.464 79.4315 131.328 174.825 150.437C272.54 170.008 313.451 194.755 353.017 218.677C393.226 242.995 434.78 268.138 534.288 288.071C633.777 308.004 693.272 303.1 750.797 298.354C807.405 293.687 865.945 288.862 963.659 308.433C1061.37 328.005 1102.28 352.752 1141.83 376.674C1182.04 400.992 1223.59 426.134 1323.1 446.056C1422.59 465.989 1482.09 461.085 1539.61 456.339C1596.24 451.672 1654.78 446.847 1752.47 466.419C1838.27 483.606 1880.26 504.771 1916.02 525.879L1916.02 519.461C1880.78 499.064 1838.1 478.792 1755.03 462.147L1755.01 462.159Z" fill="#525154"/>
<path d="M1907.93 549.044C1867.85 524.49 1826.44 499.11 1726.93 479.177C1627.42 459.243 1567.79 464.396 1510.11 469.368C1453.36 474.261 1394.69 479.323 1296.99 459.752C1199.3 440.18 1158.54 415.207 1119.11 391.048C1079.06 366.493 1037.62 341.113 938.114 321.18C838.605 301.247 778.974 306.4 721.293 311.372C664.548 316.264 605.873 321.327 508.178 301.755C410.483 282.184 369.709 257.211 330.299 233.051C290.227 208.496 248.809 183.117 149.3 163.183C68.7845 147.058 14.3795 147.352 -34 150.674L-34 155.228C13.7555 151.906 67.3805 151.556 146.746 167.455C244.441 187.026 285.215 211.999 324.625 236.159C364.697 260.714 406.115 286.093 505.624 306.027C605.132 325.96 664.763 320.818 722.444 315.835C779.189 310.942 837.864 305.88 935.559 325.451C1033.25 345.023 1074.01 369.996 1113.44 394.155C1153.51 418.71 1194.93 444.09 1294.44 464.023C1393.95 483.956 1453.58 478.804 1511.26 473.832C1568 468.939 1626.68 463.876 1724.37 483.448C1822.07 503.02 1862.82 527.993 1902.25 552.152C1906.8 554.932 1911.34 557.723 1916 560.514L1916 553.983C1913.29 552.333 1910.6 550.694 1907.93 549.044Z" fill="#525154"/>
<path d="M1879.59 566.537C1839.66 541.745 1798.38 516.116 1698.87 496.183C1599.36 476.25 1539.57 481.64 1481.75 486.849C1424.89 491.98 1366.06 497.268 1268.39 477.708C1170.69 458.147 1130.09 432.926 1090.8 408.54C1050.86 383.748 1009.58 358.12 910.073 338.187C810.565 318.253 750.778 323.643 692.96 328.853C636.079 333.983 577.267 339.271 479.591 319.711C381.896 300.139 341.278 274.929 302.005 250.544C262.069 225.752 220.787 200.123 121.259 180.19C55.9731 167.116 7.78856 164.935 -33.9609 166.449L-33.9609 170.992C7.14506 169.478 54.5301 171.602 118.724 184.461C216.419 204.033 257.038 229.243 296.311 253.629C336.247 278.41 377.528 304.049 477.056 323.982C576.565 343.916 636.352 338.526 694.169 333.316C751.051 328.197 809.863 322.898 907.538 342.458C1005.23 362.03 1045.83 387.24 1085.12 411.625C1125.06 436.406 1166.34 462.046 1265.85 481.979C1365.38 501.912 1425.17 496.522 1482.98 491.313C1539.86 486.183 1598.68 480.894 1696.35 500.455C1794.03 520.015 1834.65 545.236 1873.92 569.611C1887.12 577.803 1900.48 586.086 1916.02 594.233L1916.02 588.075C1902.84 580.933 1891.16 573.69 1879.61 566.526L1879.59 566.537Z" fill="#525154"/>
<path d="M1851.26 584.029C1811.46 559.011 1770.32 533.134 1670.79 513.201C1571.26 493.268 1511.32 498.895 1453.36 504.33C1396.34 509.686 1337.4 515.212 1239.74 495.652C1142.06 476.092 1101.6 450.644 1062.47 426.033C1022.67 401.014 981.521 375.137 881.993 355.204C782.465 335.271 722.522 340.898 664.568 346.334C607.55 351.69 548.602 357.216 450.946 337.655C353.27 318.095 312.788 292.647 273.652 268.036C233.852 243.018 192.707 217.141 93.179 197.208C42.0305 186.958 1.35353 183.478 -33.9805 183.241L-33.9805 187.783C0.690531 188.032 40.568 191.456 90.6245 201.479C188.3 221.039 228.782 246.487 267.919 271.098C307.718 296.116 348.863 321.993 448.391 341.927C547.919 361.86 607.862 356.232 665.816 350.797C722.814 345.441 781.763 339.915 879.438 359.476C977.114 379.036 1017.58 404.483 1056.73 429.095C1096.53 454.113 1137.68 479.99 1237.2 499.923C1336.73 519.856 1396.68 514.229 1454.63 508.794C1511.63 503.438 1570.58 497.912 1668.25 517.472C1765.93 537.032 1806.39 562.48 1845.53 587.091C1866.04 599.996 1886.94 613.127 1916 625.545L1916 619.861C1889.77 608.234 1870.35 596.03 1851.26 584.029Z" fill="#525154"/>
<path d="M1822.93 601.533C1783.26 576.278 1742.27 550.163 1642.73 530.219C1543.18 510.286 1483.1 516.15 1424.99 521.823C1367.86 527.405 1308.77 533.179 1211.09 513.619C1113.44 494.059 1073.11 468.374 1034.11 443.536C994.45 418.281 953.441 392.167 853.913 372.222C754.366 352.289 694.286 358.154 636.176 363.826C579.041 369.408 519.956 375.183 422.281 355.622C324.625 336.062 284.298 310.377 245.298 285.54C205.635 260.284 164.627 234.17 65.0795 214.226C26.957 206.587 -5.3545 202.745 -34 201.219L-34 205.784C-6.037 207.31 25.4555 211.073 62.5445 218.497C160.201 238.057 200.527 263.742 239.527 288.58C279.19 313.835 320.198 339.949 419.746 359.894C519.293 379.838 579.373 373.962 637.483 368.29C694.618 362.708 753.703 356.933 851.378 376.494C949.034 396.054 989.36 421.739 1028.36 446.576C1068.02 471.832 1109.03 497.946 1208.56 517.89C1308.11 537.824 1368.19 531.959 1426.3 526.286C1483.43 520.704 1542.52 514.93 1640.17 534.49C1737.83 554.05 1778.15 579.735 1817.15 604.573C1843.73 621.511 1870.97 638.823 1916 654.406L1916 649.095C1874.17 634.156 1848.26 617.658 1822.93 601.522L1822.93 601.533Z" fill="#525154"/>
<path d="M1916 676.215C1856.53 658.96 1825.13 638.733 1794.59 619.014C1755.07 593.521 1714.21 567.158 1614.65 547.225C1515.1 527.281 1454.86 533.394 1396.62 539.304C1339.35 545.112 1280.12 551.124 1182.47 531.563C1084.81 512.003 1044.64 486.081 1005.78 461.018C966.252 435.525 925.4 409.162 825.833 389.229C726.286 369.284 666.05 375.397 607.804 381.307C550.532 387.115 491.311 393.127 393.654 373.567C295.998 354.006 255.828 328.084 216.965 303.021C177.438 277.528 136.566 251.165 37.019 231.221C10.85 225.977 -12.589 222.554 -34 220.429L-34 225.028C-13.3105 227.119 9.29 230.441 34.4645 235.492C132.121 255.052 172.291 280.975 211.154 306.038C250.681 331.531 291.553 357.894 391.1 377.827C490.648 397.771 550.883 391.658 609.13 385.748C666.401 379.94 725.623 373.928 823.279 393.489C920.935 413.049 961.104 438.971 999.968 464.035C1039.49 489.527 1080.35 515.89 1179.91 535.823C1279.46 555.768 1339.7 549.655 1397.94 543.745C1455.22 537.937 1514.44 531.925 1612.09 551.485C1709.75 571.046 1749.92 596.956 1788.78 622.031C1818.54 641.23 1849.08 660.914 1904.85 677.989H1915.98L1915.98 676.203L1916 676.215Z" fill="#525154"/>
<path d="M1766.24 636.517C1726.85 610.787 1686.13 584.187 1586.57 564.243C1487 544.298 1426.63 550.649 1368.23 556.796C1310.82 562.83 1251.46 569.079 1153.82 549.519C1056.19 529.958 1016.15 503.81 977.426 478.521C938.036 452.791 897.32 426.191 797.753 406.246C698.186 386.302 637.795 392.652 579.412 398.799C522.004 404.834 462.645 411.083 365.009 391.522C267.372 371.962 227.339 345.814 188.612 320.524C149.222 294.794 108.506 268.194 8.91947 248.25C-6.27103 245.21 -20.5255 242.792 -34.0195 240.871L-34.0195 245.537C-21.286 247.368 -7.87003 249.662 6.36497 252.521C104.001 272.081 144.035 298.229 182.762 323.519C222.152 349.249 262.868 375.849 362.454 395.794C462.021 415.738 522.413 409.388 580.796 403.24C638.204 397.206 697.562 390.957 795.199 410.518C892.835 430.078 932.869 456.226 971.596 481.515C1010.99 507.245 1051.7 533.846 1151.27 553.79C1250.84 573.735 1311.21 567.384 1369.61 561.237C1427.02 555.203 1486.38 548.954 1584.01 568.514C1681.65 588.074 1721.68 614.223 1760.39 639.512C1780.18 652.439 1800.31 665.581 1828.06 677.988H1841.2C1809.47 664.734 1787.65 650.496 1766.24 636.506L1766.24 636.517Z" fill="#525154"/>
<path d="M1737.91 654.022C1698.65 628.065 1658.07 601.217 1558.51 581.272C1458.92 561.328 1398.39 567.927 1339.87 574.3C1282.35 580.572 1222.83 587.046 1125.22 567.497C1027.6 547.948 987.703 521.552 949.132 496.036C909.878 470.08 869.299 443.231 769.712 423.287C670.126 403.342 609.598 409.93 551.059 416.315C493.514 422.586 434.019 429.061 336.402 409.512C238.766 389.963 198.889 363.566 160.298 338.051C121.045 312.084 80.465 285.246 -19.1215 265.302C-24.1915 264.285 -29.125 263.358 -34 262.477L-34 267.211C-29.944 267.957 -25.8685 268.725 -21.676 269.562C75.941 289.111 115.838 315.507 154.428 341.023C193.682 366.99 234.261 393.828 333.848 413.784C433.415 433.728 493.962 427.129 552.501 420.756C610.046 414.484 669.541 408.009 767.158 427.558C864.775 447.107 904.671 473.504 943.242 499.019C982.496 524.976 1023.08 551.824 1122.66 571.769C1222.23 591.713 1282.78 585.125 1341.32 578.741C1398.86 572.469 1458.35 565.995 1555.97 585.544C1653.59 605.093 1693.49 631.478 1732.06 657.005C1742.63 663.988 1753.29 671.039 1765.17 678.011H1776.26C1762.2 670.09 1750 662.022 1737.93 654.033L1737.91 654.022Z" fill="#525154"/>
<path d="M1530.43 598.278C1430.84 578.334 1370.16 585.17 1311.48 591.781C1253.8 598.278 1194.17 604.991 1096.57 585.442C998.954 565.893 959.213 539.27 920.778 513.517C881.661 487.324 841.218 460.226 741.632 440.282C642.046 420.337 581.362 427.174 522.686 433.784C465.025 440.282 405.374 446.994 307.777 427.445C210.16 407.896 170.419 381.273 131.965 355.521C94.622 330.514 56.051 304.704 -33.9805 285.054L-33.9805 289.89C52.2875 309.078 89.7665 334.164 126.076 358.481C165.193 384.675 205.636 411.772 305.222 431.716C404.809 451.661 465.492 444.824 524.168 438.214C581.829 431.716 641.48 425.004 739.077 444.553C836.694 464.102 876.435 490.725 914.87 516.478C953.987 542.671 994.43 569.768 1094.02 589.713C1193.6 609.657 1254.29 602.821 1312.96 596.21C1370.64 589.713 1430.27 583.001 1527.87 602.55C1625.49 622.099 1665.23 648.722 1703.66 674.474C1705.42 675.65 1707.17 676.825 1708.95 678H1719.3C1716.03 675.83 1712.79 673.672 1709.57 671.514C1670.46 645.32 1630.01 618.223 1530.43 598.278Z" fill="#525154"/>
<path d="M1502.37 615.296C1402.76 595.341 1341.94 602.426 1283.11 609.262C1225.31 615.986 1165.54 622.946 1067.94 603.397C970.347 583.848 930.743 556.988 892.445 531.021C853.465 504.59 813.158 477.256 713.552 457.3C613.946 437.355 553.126 444.429 494.294 451.277C436.496 458 376.729 464.95 279.131 445.412C181.534 425.863 141.929 399.003 103.631 373.036C70.5395 350.594 36.473 327.508 -33.9805 308.84L-33.9805 313.835C32.807 331.983 65.723 354.289 97.703 375.974C136.684 402.404 176.99 429.739 276.596 449.695C376.202 469.639 437.023 462.566 495.854 455.729C553.652 449.006 613.42 442.045 711.017 461.594C808.615 481.143 848.219 508.003 886.517 533.97C925.498 560.401 965.804 587.736 1065.41 607.68C1165.02 627.636 1225.84 620.551 1284.67 613.714C1342.47 606.991 1402.23 600.03 1499.83 619.579C1580.02 635.636 1621.04 656.632 1654.37 678.011H1664.84C1629.99 655.163 1588.21 632.495 1502.39 615.308L1502.37 615.296Z" fill="#525154"/>
<path d="M1254.74 626.754C1196.8 633.704 1136.9 640.902 1039.3 621.353C941.721 601.804 902.254 574.718 864.092 548.513C825.248 521.845 785.097 494.273 685.472 474.317C585.846 454.362 524.87 461.684 465.921 468.758C407.987 475.707 348.083 482.905 250.485 463.356C152.888 443.807 113.44 416.71 75.278 390.517C47.0225 371.115 18.0455 351.238 -34 334.164L-34 339.407C14.555 355.86 42.284 374.877 69.311 393.443C108.155 420.111 148.325 447.683 247.931 467.639C347.537 487.595 408.514 480.273 467.482 473.199C525.416 466.249 585.32 459.051 682.917 478.6C780.496 498.149 819.964 525.235 858.125 551.44C896.969 578.108 937.119 605.68 1036.74 625.636C1136.35 645.592 1197.33 638.269 1256.3 631.195C1314.23 624.246 1374.13 617.048 1471.71 636.597C1530.13 648.304 1567.73 662.711 1596.67 678.011H1608.11C1577.77 661.14 1538.3 645.151 1474.25 632.325C1374.64 612.37 1313.66 619.692 1254.7 626.766L1254.74 626.754Z" fill="#525154"/>
<path d="M1226.36 644.247C1168.29 651.434 1108.25 658.858 1010.67 639.309C913.095 619.76 873.784 592.436 835.759 566.006C797.051 539.1 757.037 511.28 657.412 491.324C557.786 471.368 496.654 478.928 437.549 486.239C379.478 493.426 319.438 500.85 221.86 481.301C124.282 461.752 84.9695 434.429 46.9445 407.998C24.305 392.268 1.1975 376.222 -34 361.611L-34 367.239C-1.981 381.059 19.703 396.11 40.958 410.891C79.6655 437.796 119.68 465.617 219.325 485.572C318.95 505.528 380.083 497.968 439.187 490.657C497.258 483.471 557.298 476.046 654.876 495.595C752.454 515.133 791.767 542.468 829.792 568.899C868.499 595.804 908.513 623.624 1008.14 643.58C1107.76 663.536 1168.9 655.976 1228 648.665C1286.07 641.478 1346.11 634.054 1443.69 653.603C1479.73 660.824 1507.79 669.096 1530.8 678H1544.54C1519.41 667.491 1488.09 657.717 1446.23 649.332C1346.6 629.376 1285.47 636.936 1226.36 644.247Z" fill="#525154"/>
<path d="M1197.97 661.728C1139.76 669.141 1079.59 676.802 982.028 657.264C884.469 637.727 845.294 610.166 807.405 583.509C768.834 556.367 728.957 528.309 629.312 508.353C529.667 488.397 468.398 496.194 409.137 503.742C350.93 511.155 290.753 518.817 193.194 499.279C95.6359 479.741 56.4604 452.169 18.5719 425.513C2.64044 414.303 -13.5251 402.935 -34.0391 392.042L-34.0391 398.257C-16.2746 408.111 -1.76656 418.314 12.5464 428.383C51.1174 455.525 90.9949 483.583 190.64 503.539C290.285 523.495 351.554 515.698 410.814 508.149C469.002 500.737 529.199 493.075 626.757 512.613C724.316 532.151 763.491 559.711 801.38 586.368C839.951 613.511 879.828 641.569 979.473 661.524C1079.12 681.48 1140.39 673.683 1199.63 666.135C1257.84 658.722 1318.01 651.061 1415.57 670.598C1427.31 672.949 1438.17 675.412 1448.31 677.988H1466.93C1452.41 673.875 1436.26 669.965 1418.11 666.327C1318.46 646.371 1257.19 654.168 1197.93 661.717L1197.97 661.728Z" fill="#525154"/>
<path d="M953.402 675.22C855.843 655.682 816.824 627.884 779.091 601.002C740.657 573.633 700.916 545.326 601.271 525.359C501.626 505.404 440.201 513.449 380.804 521.224C322.48 528.862 262.147 536.761 164.608 517.223C67.049 497.686 28.0295 469.888 -9.72247 443.005C-17.581 437.4 -25.5175 431.761 -33.9805 426.168L-33.9805 433.084C-27.721 437.344 -21.7345 441.615 -15.7675 445.864C22.667 473.232 62.408 501.539 162.053 521.506C261.718 541.473 323.123 533.416 382.52 525.642C440.845 518.003 501.177 510.104 598.716 529.642C696.275 549.18 735.294 576.978 773.027 603.86C810.506 630.562 849.272 658.146 943.613 678H968.085C963.269 677.141 958.394 676.226 953.382 675.22H953.402Z" fill="#525154"/>
<path d="M1178.98 677.999H1219.03C1249.74 675.118 1283.28 673.988 1323.92 677.999H1360.05C1282.46 665.852 1229.33 671.479 1178.98 677.999Z" fill="#525154"/>
<path d="M750.758 618.494C712.46 590.888 672.875 562.333 573.211 542.377C473.546 522.41 411.985 530.704 352.432 538.716C293.971 546.581 233.521 554.717 135.982 535.191C41.9525 516.353 2.42603 489.629 -33.9805 463.436L-33.9805 470.622C1.56803 495.889 42.4985 521.246 133.427 539.462C233.092 559.429 294.653 551.135 354.206 543.123C412.667 535.258 473.136 527.122 570.675 546.649C668.214 566.186 707.097 594.222 744.693 621.33C771.798 640.879 799.605 660.892 848.862 678H864.657C808.946 660.417 779.462 639.196 750.758 618.494Z" fill="#525154"/>
<path d="M722.405 635.998C684.244 608.155 644.795 579.362 545.111 559.395C445.427 539.428 383.729 547.96 324.04 556.209C265.442 564.311 204.856 572.673 107.317 553.146C36.6095 538.987 -3.19 520.229 -34 500.579L-34 507.246C-3.3265 526.015 36.668 543.779 104.781 557.418C204.446 577.385 266.163 568.853 325.853 560.604C384.45 552.513 445.037 544.14 542.576 563.667C640.095 583.204 678.842 611.466 716.301 638.812C734.397 652.01 752.786 665.423 777.726 678H789.914C761.697 664.655 741.866 650.202 722.405 635.998Z" fill="#525154"/>
<path d="M517.051 576.414C417.367 556.446 355.493 565.215 295.667 573.702C236.933 582.03 176.21 590.64 78.6905 571.103C27.815 560.91 -7.012 548.277 -34 534.604L-34 540.593C-7.168 553.576 27.2105 565.577 76.136 575.374C175.82 595.341 237.694 586.572 297.52 578.086C356.254 569.758 416.977 561.147 514.496 580.685C612.016 600.223 650.606 628.721 687.929 656.282C697.718 663.514 707.605 670.814 718.583 678.001H729.113C716.321 669.921 705.128 661.661 694.052 653.491C656.027 625.41 616.715 596.381 517.031 576.414H517.051Z" fill="#525154"/>
<path d="M488.97 593.431C389.267 573.464 327.257 582.47 267.294 591.194C208.424 599.748 147.564 608.596 50.0645 589.069C15.452 582.143 -11.6725 574.04 -34 565.249L-34 570.718C-12.0625 579.035 14.36 586.708 47.51 593.341C147.194 613.308 209.223 604.302 269.186 595.578C328.056 587.024 388.916 578.176 486.416 597.703C583.916 617.229 622.37 645.965 659.556 673.763C661.448 675.175 663.339 676.588 665.25 678H675.156C671.978 675.661 668.858 673.322 665.738 670.983C627.849 642.665 588.674 613.387 488.99 593.42L488.97 593.431Z" fill="#525154"/>
<path d="M460.91 610.437C361.206 590.47 299.041 599.713 238.922 608.663C179.935 617.443 118.919 626.528 21.419 607.002C0.378498 602.787 -17.893 598.131 -34 593.137L-34 598.256C-18.4585 602.922 -1.0255 607.284 18.884 611.273C118.587 631.24 180.754 621.986 240.872 613.036C299.879 604.256 360.875 595.171 458.375 614.697C540.548 631.161 580.679 654.326 613.439 677.977H623.403C589.22 652.846 548.445 627.952 460.91 610.414L460.91 610.437Z" fill="#525154"/>
<path d="M432.83 627.456C333.107 607.477 270.804 616.98 210.549 626.156C151.425 635.162 90.2735 644.485 -7.207 624.958C-16.684 623.06 -25.5955 621.06 -34 618.992L-34 623.896C-26.317 625.738 -18.283 627.523 -9.742 629.23C89.981 649.208 152.283 639.705 212.538 630.529C271.662 621.523 332.814 612.201 430.295 631.727C492.285 644.146 530.291 660.485 559.229 678H569.954C539.748 658.903 500.163 640.948 432.83 627.456Z" fill="#525154"/>
<path d="M182.177 643.648C120.576 653.253 62.369 662.316 -34 643.275L-34 648.032C63.1685 666.847 124.691 657.287 184.205 648.01C246.195 638.348 304.754 629.218 402.215 648.744C443.925 657.095 474.423 667.039 498.701 678H510.869C484.778 665.378 451.452 653.829 404.75 644.473C305.027 624.494 242.568 634.235 182.157 643.648H182.177Z" fill="#525154"/>
<path d="M153.804 661.14C98.444 669.965 45.7745 678.339 -34 666.248L-34 670.892C47.1005 682.825 102.305 674.045 155.872 665.502C217.999 655.603 276.674 646.247 374.135 665.762C392.933 669.525 409.45 673.627 424.153 678H440.279C422.203 671.988 401.318 666.417 376.69 661.49C276.947 641.512 214.352 651.49 153.804 661.14Z" fill="#525154"/>
<path d="M129.293 678H159.206C205.031 671.288 252.864 667.503 319.437 678H345.996C249.881 659.141 188.261 668.418 129.293 678Z" fill="#525154"/>
</g>
</g>
<defs>
<clipPath id="clip0_78_2925">
<rect width="1902" height="678" fill="white"/>
</clipPath>
</defs>
</svg>
