<svg width="1920" height="678" viewBox="0 0 1920 678" fill="none" xmlns="http://www.w3.org/2000/svg">
<g opacity="0.25">
<g clip-path="url(#clip0_1_617)">
<path d="M1884.11 0H1868.78C1885.67 5.9777 1904.87 12.0006 1928 18.0687V13.0854C1911.56 8.701 1897.11 4.3392 1884.11 0Z" fill="#525154"/>
<path d="M1808.84 0H1795.71C1828.28 14.125 1865.46 28.5438 1928 43.053V38.1827C1873.34 25.3346 1838.53 12.5656 1808.84 0.0113V0Z" fill="#525154"/>
<path d="M1754.45 6.1246C1749.93 4.0906 1745.4 2.0453 1740.78 0H1727.87C1735.34 3.2431 1742.52 6.4749 1749.65 9.6954C1791.44 28.5212 1834.63 47.9685 1928 67.2802V62.4777C1837.62 43.5841 1795.34 24.5549 1754.45 6.1359V6.1246Z" fill="#525154"/>
<path d="M1910.29 82.6708C1812.31 63.0427 1768.49 43.0078 1726.12 23.6283C1709.07 15.8313 1691.8 7.9439 1670.95 0H1656.42C1681.81 9.1304 1701.7 18.2156 1721.28 27.1652C1764.18 46.782 1808.52 67.0655 1907.76 86.9309C1914.72 88.3208 1921.45 89.609 1928 90.8181V86.0834C1922.25 85.0212 1916.36 83.8799 1910.29 82.6595V82.6708Z" fill="#525154"/>
<path d="M1881.67 100.627C1783.7 81.0097 1740.02 60.7262 1697.78 41.1207C1668.63 27.5833 1638.8 13.7408 1591.31 0H1573.29C1628.79 14.8821 1661.26 29.9563 1692.91 44.6463C1735.67 64.5004 1779.88 85.0212 1879.11 104.898C1896.68 108.412 1912.87 111.294 1928 113.655V108.966C1913.63 106.695 1898.26 103.949 1881.67 100.627Z" fill="#525154"/>
<path d="M1853.04 118.582C1755.09 98.9654 1711.55 78.4559 1669.47 58.6131C1628.36 39.2449 1585.87 19.2326 1493.83 0H1469.91C1473.53 0.6893 1477.2 1.4012 1480.94 2.1583C1578.89 21.7751 1622.44 42.2846 1664.52 62.1274C1707.14 82.2075 1751.21 102.977 1850.47 122.865C1879.64 128.707 1905.13 132.775 1927.98 135.6V130.967C1905.81 128.187 1881.14 124.221 1853.02 118.582H1853.04Z" fill="#525154"/>
<path d="M1824.4 136.538C1726.47 116.921 1683.08 96.1743 1641.12 76.1168C1598.63 55.7994 1554.69 34.7814 1455.42 14.9047C1417.39 7.2885 1385.61 2.712 1357.72 0H1159.95C1191.41 1.8532 1218.08 1.4916 1244.33 1.1187C1298.72 0.3503 1354.93 -0.440701 1452.88 19.1761C1550.81 38.7929 1594.2 59.5397 1636.16 79.6085C1678.65 99.9259 1722.59 120.933 1821.86 140.821C1863.79 149.217 1898.15 153.917 1928 156.494V151.917C1898.79 149.352 1865.23 144.73 1824.4 136.549V136.538Z" fill="#525154"/>
<path d="M1795.77 154.494C1697.84 134.877 1654.61 113.893 1612.8 93.6092C1570.45 73.0545 1526.65 51.7992 1427.36 31.9112C1328.08 12.0232 1270.97 13.0741 1215.76 14.0798C1164.73 15.0177 1112.06 15.9782 1025.17 0H1000.64C1001.91 0.2599 1003.13 0.5198 1004.42 0.7684C1103.7 20.6564 1160.79 19.6055 1216.02 18.5998C1270.52 17.6054 1326.89 16.5658 1424.82 36.1826C1522.75 55.7994 1565.98 76.7835 1607.79 97.067C1650.14 117.622 1693.94 138.877 1793.24 158.765C1849.14 169.963 1891.67 174.517 1928.02 176.19V171.647C1892.32 169.975 1850.55 165.466 1795.79 154.494H1795.77Z" fill="#525154"/>
<path d="M1767.13 172.449C1669.22 152.844 1626.12 131.622 1584.45 111.102C1542.23 90.3096 1498.57 68.817 1399.28 48.929C1299.98 29.041 1242.75 30.3292 1187.37 31.5722C1132.73 32.8039 1076.22 34.0695 978.311 14.4527C954.677 9.718 934.241 4.8816 916.243 0H898.42C920.006 6.3506 945.259 12.6108 975.776 18.7241C1075.07 38.6121 1132.3 37.3239 1187.68 36.0809C1242.32 34.8605 1298.83 33.5836 1396.74 53.2004C1494.65 72.8059 1537.75 94.0273 1579.42 114.548C1621.64 135.34 1665.3 156.833 1764.59 176.721C1835.73 190.97 1885.26 194.349 1928 194.665V190.134C1885.9 189.806 1837.09 186.461 1767.13 172.449Z" fill="#525154"/>
<path d="M1738.5 190.405C1640.61 170.799 1597.65 149.341 1556.12 128.594C1514.04 107.565 1470.51 85.8348 1371.2 65.9355C1271.88 46.0475 1214.5 47.573 1158.98 49.0533C1104.22 50.511 1047.58 52.0139 949.666 32.4084C897.679 22.0011 861.195 11.0627 832.179 0H818.256C849.202 12.5204 888.417 24.9278 947.112 36.6798C1046.43 56.5678 1103.81 55.0423 1159.33 53.5733C1214.11 52.1156 1270.75 50.6127 1368.64 70.2182C1466.53 89.8237 1509.49 111.282 1551.01 132.029C1593.09 153.058 1636.61 174.788 1735.93 194.688C1823.31 212.191 1878.22 213.107 1927.98 212.067V207.547C1878.86 208.575 1824.67 207.683 1738.48 190.416L1738.5 190.405Z" fill="#525154"/>
<path d="M1919.42 224.542C1864.51 226.226 1807.74 227.978 1709.85 208.372C1611.96 188.767 1569.18 167.082 1527.78 146.109C1485.84 124.854 1442.45 102.864 1343.12 82.976C1243.8 63.088 1186.26 64.8508 1130.59 66.5571C1075.67 68.2408 1018.91 69.9923 921.02 50.3868C841.558 34.4651 798.404 17.1874 762.817 0.0227051H750.707C788.264 18.5886 832.315 37.4144 918.466 54.6582C1017.8 74.5575 1075.34 72.7834 1131 71.0771C1185.89 69.3934 1242.67 67.6532 1340.56 87.2474C1438.45 106.853 1481.24 128.538 1522.63 149.51C1564.58 170.766 1607.97 192.755 1707.3 212.643C1806.61 232.531 1864.18 230.769 1919.83 229.062C1922.54 228.983 1925.27 228.893 1928 228.814V224.294C1925.13 224.384 1922.27 224.463 1919.42 224.554V224.542Z" fill="#525154"/>
<path d="M1891.05 242.023C1836.02 243.944 1779.1 245.922 1681.25 226.316C1583.38 206.711 1540.73 184.789 1499.47 163.59C1457.64 142.098 1414.41 119.87 1315.08 99.9711C1215.74 80.0718 1158.04 82.0832 1102.25 84.0268C1047.22 85.9478 990.304 87.9253 892.434 68.3198C794.563 48.7143 751.897 26.7923 710.655 5.5935C707.028 3.729 703.401 1.8645 699.715 0H687.82C693.826 3.0058 699.657 6.0003 705.468 8.9835C747.295 30.4761 790.527 52.7032 889.879 72.6025C989.212 92.5018 1046.91 90.4904 1102.7 88.5468C1157.73 86.6258 1214.65 84.6483 1312.52 104.254C1410.39 123.859 1453.04 145.781 1494.28 166.98C1536.11 188.473 1579.34 210.7 1678.67 230.599C1778.01 250.498 1835.71 248.487 1891.5 246.543C1903.43 246.125 1915.46 245.707 1927.98 245.515V240.984C1915.31 241.187 1903.12 241.605 1891.03 242.035L1891.05 242.023Z" fill="#525154"/>
<path d="M1862.67 259.516C1807.51 261.663 1750.45 263.878 1652.6 244.283C1554.75 224.678 1512.24 202.53 1471.13 181.094C1429.44 159.364 1386.35 136.899 1287 117C1187.64 97.1008 1129.81 99.3495 1073.86 101.53C1018.69 103.677 961.657 105.892 863.787 86.298C765.936 66.6925 723.426 44.5445 682.3 23.1084C667.617 15.4583 652.738 7.70653 635.305 0.0112305H622.182C643.183 8.80263 660.246 17.6957 677.074 26.4645C718.765 48.1944 761.86 70.6588 861.213 90.5581C960.565 110.457 1018.4 108.209 1074.35 106.028C1129.51 103.881 1186.57 101.666 1284.42 121.26C1382.27 140.866 1424.78 163.014 1465.89 184.45C1507.58 206.18 1550.67 228.644 1650.03 248.543C1749.38 268.443 1807.22 266.194 1863.16 264.024C1883.81 263.222 1904.74 262.409 1927.98 262.736V258.205C1904.58 257.889 1883.48 258.702 1862.65 259.516H1862.67Z" fill="#525154"/>
<path d="M1834.28 276.997C1778.98 279.37 1721.81 281.822 1623.96 262.228C1526.12 242.634 1483.75 220.237 1442.78 198.586C1401.23 176.619 1358.27 153.906 1258.9 134.007C1159.52 114.107 1101.53 116.593 1045.45 119C990.147 121.373 932.973 123.825 835.122 104.231C737.271 84.637 694.917 62.2404 653.947 40.5896C628.363 27.0635 602.214 13.2549 562.726 0H546.658C592.503 14.2493 620.934 29.2557 648.682 43.9344C690.237 65.9016 733.195 88.6146 832.567 108.514C931.92 128.413 989.932 125.927 1046.01 123.52C1101.32 121.147 1158.49 118.695 1256.34 138.289C1354.19 157.884 1396.55 180.28 1437.52 201.931C1479.07 223.898 1522.03 246.611 1621.4 266.51C1720.77 286.41 1778.77 283.924 1834.85 281.517C1863.57 280.285 1892.82 279.031 1927.98 280.862V276.308C1892.65 274.511 1863.2 275.765 1834.26 277.008L1834.28 276.997Z" fill="#525154"/>
<path d="M1805.91 294.489C1750.49 297.088 1693.16 299.789 1595.33 280.195C1497.5 260.601 1455.28 237.978 1414.47 216.09C1373.05 193.886 1330.23 170.935 1230.86 151.036C1131.48 131.137 1073.34 133.86 1017.1 136.504C961.659 139.114 904.348 141.804 806.517 122.21C708.685 102.615 666.468 79.9815 625.635 58.1047C588.975 38.454 551.184 18.2157 474.061 0.0227051H452.475C541.102 18.9841 581.37 40.5445 620.35 61.4269C661.768 83.6314 704.59 106.582 803.982 126.492C903.354 146.392 961.503 143.668 1017.74 141.024C1073.16 138.425 1130.49 135.724 1228.32 155.319C1326.15 174.913 1368.37 197.547 1409.18 219.424C1450.6 241.628 1493.42 264.578 1592.8 284.478C1692.17 304.377 1750.32 301.654 1806.55 299.009C1842.67 297.314 1879.6 295.586 1928.02 300.004V295.416C1879.45 291.054 1842.28 292.794 1805.93 294.501L1805.91 294.489Z" fill="#525154"/>
<path d="M1777.52 311.97C1721.96 314.807 1664.51 317.733 1566.68 298.139C1468.87 278.545 1426.79 255.685 1386.11 233.571C1344.83 211.141 1302.15 187.942 1202.75 168.031C1103.36 148.12 1045.06 151.092 988.703 153.974C933.147 156.81 875.681 159.737 777.869 140.143C680.057 120.548 637.976 97.6886 597.299 75.5745C556.017 53.144 513.332 29.9451 413.94 10.0345C392.139 5.66137 372.308 2.39567 354.036 -0.0112305H308.523C337.773 2.00017 371.157 6.24897 411.386 14.3059C509.198 33.9001 551.279 56.76 591.956 78.8741C633.237 101.305 675.923 124.503 775.314 144.414C874.706 164.325 932.992 161.353 989.366 158.471C1044.92 155.635 1102.39 152.708 1200.2 172.302C1298.01 191.897 1340.09 214.757 1380.77 236.871C1422.05 259.301 1464.74 282.5 1564.13 302.411C1663.52 322.321 1721.81 319.349 1778.18 316.468C1821.08 314.287 1865.11 312.05 1927.98 320.152V315.519C1864.97 307.518 1820.67 309.767 1777.5 311.97H1777.52Z" fill="#525154"/>
<path d="M200.572 0.4859C203.751 0.3277 206.949 0.1582 210.147 0H78.6582C127.077 4.2149 164.224 2.3391 200.572 0.4859Z" fill="#525154"/>
<path d="M1749.15 329.463C1693.45 332.525 1635.87 335.689 1538.06 316.106C1440.25 296.512 1398.32 273.415 1357.78 251.086C1316.64 228.418 1274.09 204.971 1174.7 185.06C1075.28 165.149 1016.84 168.37 960.332 171.477C904.64 174.54 847.057 177.704 749.245 158.121C651.433 138.527 609.508 115.429 568.967 93.0894C527.822 70.4216 485.273 46.9741 385.862 27.0635C286.451 7.15286 228.01 10.3621 171.479 13.4696C119.239 16.3398 65.282 19.3004 -22 3.45776V8.18116C65.3795 23.8204 119.648 20.8485 172.24 17.9557C227.932 14.8934 285.535 11.7294 383.327 31.3123C481.139 50.9065 523.064 74.0037 563.604 96.3438C604.75 119.012 647.299 142.459 746.709 162.37C846.101 182.28 904.562 179.071 961.073 175.952C1016.77 172.89 1074.35 169.726 1172.16 189.309C1269.95 208.903 1311.88 232 1352.44 254.329C1393.58 276.997 1436.13 300.444 1535.54 320.355C1634.95 340.266 1693.4 337.056 1749.91 333.938C1799.03 331.237 1849.65 328.468 1928.02 341.294V336.593C1849.51 323.926 1798.6 326.728 1749.17 329.44L1749.15 329.463Z" fill="#525154"/>
<path d="M1720.77 346.944C1664.95 350.232 1607.22 353.634 1509.43 334.051C1411.64 314.468 1369.87 291.133 1329.47 268.567C1288.46 245.662 1246.05 221.977 1146.64 202.067C1047.22 182.156 988.627 185.614 931.96 188.947C876.151 192.236 818.411 195.637 720.619 176.054C622.826 156.471 581.057 133.137 540.653 110.571C499.645 87.6654 457.232 63.9806 357.821 44.07C258.41 24.1594 199.813 27.6172 143.146 30.9507C96.7355 33.6853 48.98 36.4877 -21.9805 26.103V30.7699C49.1555 41.019 97.223 38.2053 143.945 35.4481C199.774 32.1598 257.513 28.7585 355.286 48.3414C453.079 67.9243 494.867 91.2588 535.252 113.825C576.26 136.73 618.673 160.415 718.084 180.325C817.495 200.236 876.092 196.778 932.759 193.445C988.588 190.156 1046.31 186.755 1144.1 206.338C1241.89 225.921 1283.66 249.255 1324.07 271.822C1365.07 294.727 1407.49 318.411 1506.9 338.322C1606.31 358.233 1664.91 354.775 1721.57 351.441C1776.45 348.21 1833.19 344.876 1928.02 363.374V358.606C1833.11 340.333 1776.02 343.69 1720.79 346.944H1720.77Z" fill="#525154"/>
<path d="M1907.37 377.081C1807.94 357.17 1749.2 360.866 1692.38 364.436C1636.44 367.962 1578.56 371.601 1480.79 352.018C1383.01 332.435 1341.38 308.863 1301.11 286.071C1260.24 262.928 1217.97 239.006 1118.54 219.084C1019.1 199.174 960.371 202.869 903.548 206.44C847.602 209.965 789.726 213.604 691.953 194.021C594.18 174.438 552.548 150.866 512.28 128.074C471.408 104.932 429.132 81.0098 329.702 61.0879C230.271 41.1773 171.518 44.8724 114.714 48.4432C74.7199 50.9631 33.7699 53.5282 -22.0391 47.6522V52.2513C34.0039 58.0595 75.2659 55.4718 115.553 52.9406C171.498 49.415 229.374 45.7764 327.147 65.3706C424.92 84.9535 466.553 108.525 506.82 131.317C547.692 154.46 589.968 178.382 689.399 198.304C788.829 218.214 847.563 214.519 904.386 210.948C960.351 207.423 1018.21 203.784 1115.98 223.367C1213.75 242.95 1255.39 266.522 1295.65 289.314C1336.53 312.456 1378.8 336.378 1478.23 356.3C1577.66 376.211 1636.4 372.516 1693.22 368.945C1749.18 365.419 1807.04 361.781 1904.81 381.364C1912.93 382.991 1920.63 384.641 1928 386.324V381.477C1921.39 379.996 1914.55 378.539 1907.37 377.104V377.081Z" fill="#525154"/>
<path d="M1879.29 394.099C1779.84 374.177 1720.95 378.121 1664.01 381.929C1607.93 385.68 1549.93 389.556 1452.16 369.973C1354.41 350.39 1312.91 326.593 1272.8 303.575C1232.06 280.195 1189.92 256.024 1090.49 236.114C991.064 216.192 932.154 220.135 875.214 223.943C819.132 227.695 761.139 231.571 663.366 211.988C565.594 192.405 524.117 168.607 483.986 145.578C443.251 122.198 401.111 98.0275 301.661 78.1169C202.211 58.195 143.321 62.1387 86.3615 65.9468C53.4455 68.1503 19.8665 70.3877 -22 67.9017V72.4557C20.1785 74.8965 54.05 72.6477 87.2585 70.4329C143.34 66.6814 201.353 62.8055 299.106 82.3884C396.879 101.971 438.356 125.769 478.487 148.798C519.222 172.178 561.362 196.349 660.812 216.259C760.242 236.17 819.152 232.238 876.092 228.43C932.174 224.678 990.186 220.802 1087.94 240.385C1185.69 259.968 1227.19 283.766 1267.3 306.784C1308.04 330.163 1350.18 354.334 1449.61 374.245C1549.04 394.167 1607.93 390.223 1664.89 386.415C1720.97 382.663 1778.96 378.787 1876.73 398.37C1895.84 402.201 1912.77 406.19 1927.98 410.303V405.32C1913.39 401.466 1897.29 397.715 1879.27 394.11L1879.29 394.099Z" fill="#525154"/>
<path d="M1851.23 411.105C1751.78 391.183 1692.73 395.364 1635.64 399.41C1579.42 403.387 1521.29 407.501 1423.53 387.929C1325.78 368.346 1284.44 344.311 1244.47 321.067C1203.87 297.461 1161.86 273.042 1062.41 253.12C962.964 233.198 903.918 237.379 846.822 241.424C790.604 245.402 732.474 249.515 634.721 229.944C536.967 210.361 495.628 186.326 455.652 163.082C415.053 139.465 373.05 115.057 273.6 95.1347C174.15 75.2128 115.104 79.3938 57.989 83.4279C32.834 85.202 7.289 87.01 -22 86.7049V91.2475C7.64 91.5413 33.4775 89.722 58.925 87.914C115.143 83.9364 173.273 79.8232 271.026 99.4061C368.78 118.989 410.12 143.024 450.095 166.268C490.694 189.874 532.697 214.293 632.147 234.215C731.597 254.137 790.643 249.956 847.739 245.911C903.957 241.933 962.087 237.82 1059.84 257.391C1157.59 276.974 1198.93 301.009 1238.91 324.254C1279.51 347.859 1321.51 372.278 1420.96 392.2C1520.41 412.122 1579.46 407.941 1636.55 403.896C1692.77 399.918 1750.9 395.805 1848.65 415.377C1880.44 421.739 1906.24 428.586 1927.98 435.717V430.519C1906.69 423.727 1881.65 417.207 1851.21 411.105H1851.23Z" fill="#525154"/>
<path d="M1823.15 428.123C1723.68 408.201 1664.5 412.619 1607.24 416.891C1550.89 421.094 1492.62 425.445 1394.89 405.873C1297.16 386.302 1255.95 362.029 1216.11 338.548C1175.65 314.705 1133.8 290.048 1034.33 270.126C934.865 250.205 875.682 254.623 818.43 258.894C762.076 263.098 703.81 267.448 606.076 247.877C508.341 228.305 467.138 204.033 427.299 180.551C386.837 156.708 344.97 132.052 245.501 112.13C146.031 92.2079 86.8295 96.6262 29.597 100.898C12.8855 102.141 -3.98203 103.395 -22.0195 104.05V108.593C-3.65053 107.938 13.568 106.661 30.5915 105.395C86.9465 101.191 145.212 96.8409 242.946 116.413C340.68 135.984 381.884 160.268 421.722 183.738C462.185 207.581 504.052 232.238 603.521 252.171C702.99 272.093 762.173 267.674 819.425 263.403C875.76 259.199 934.046 254.849 1031.78 274.42C1129.51 293.992 1170.72 318.264 1210.56 341.746C1251.02 365.589 1292.87 390.245 1392.33 410.167C1491.8 430.089 1550.99 425.671 1608.24 421.4C1664.59 417.196 1722.86 412.845 1820.59 432.417C1867.32 441.773 1901.09 452.203 1927.98 463.108V457.605C1901.34 447.164 1868.15 437.174 1823.13 428.157L1823.15 428.123Z" fill="#525154"/>
<path d="M1795.09 445.141C1695.6 425.219 1636.26 429.875 1578.89 434.383C1522.42 438.824 1464.02 443.412 1366.28 423.84C1268.55 404.269 1227.5 379.759 1187.82 356.052C1147.49 331.971 1105.78 307.066 1006.29 287.144C906.824 267.222 847.486 271.878 790.097 276.387C733.606 280.828 675.203 285.415 577.489 265.832C479.755 246.261 438.707 221.751 399.005 198.044C358.66 173.963 316.969 149.058 217.48 129.136C118.01 109.214 58.6521 113.87 1.26356 118.379C-6.41944 118.978 -14.1219 119.588 -21.9609 120.13V124.684C-13.7514 124.119 -5.69794 123.486 2.31656 122.854C58.7886 118.413 117.211 113.825 214.925 133.408C312.659 152.979 353.707 177.489 393.409 201.196C433.754 225.277 475.465 250.182 574.934 270.104C674.404 290.026 733.742 285.37 791.131 280.861C847.622 276.421 906.025 271.833 1003.74 291.416C1101.47 310.987 1142.52 335.497 1182.2 359.193C1222.55 383.273 1264.24 408.179 1363.73 428.1C1463.22 448.022 1522.56 443.367 1579.92 438.858C1636.4 434.417 1694.8 429.829 1792.53 449.401C1857.12 462.339 1896.96 477.436 1928 493.03V487.075C1897.15 472.091 1857.49 457.639 1795.09 445.141Z" fill="#525154"/>
<path d="M1767.01 462.159C1667.52 442.237 1608.02 447.141 1550.5 451.876C1493.89 456.543 1435.35 461.368 1337.64 441.796C1239.92 422.225 1199.01 397.478 1159.47 373.555C1119.26 349.238 1077.7 324.095 978.194 304.173C878.705 284.24 819.211 289.144 761.686 293.89C705.077 298.557 646.538 303.382 548.824 283.811C451.109 264.239 410.198 239.492 370.633 215.57C330.424 191.253 288.869 166.11 189.361 146.177C92.8355 126.831 33.965 130.865 -22 135.453V140.018C33.38 135.464 91.4315 131.329 186.826 150.437C284.54 170.009 325.451 194.756 365.017 218.678C405.226 242.995 446.78 268.138 546.289 288.071C645.778 308.004 705.272 303.1 762.797 298.354C819.406 293.687 877.945 288.862 975.659 308.434C1073.37 328.005 1114.28 352.752 1153.83 376.674C1194.04 400.992 1235.59 426.134 1335.1 446.056C1434.59 465.989 1494.09 461.085 1551.61 456.339C1608.24 451.672 1666.78 446.847 1764.47 466.419C1850.27 483.606 1892.26 504.771 1928.02 525.879V519.461C1892.78 499.065 1850.1 478.792 1767.03 462.147L1767.01 462.159Z" fill="#525154"/>
<path d="M1919.93 549.044C1879.85 524.49 1838.44 499.11 1738.93 479.177C1639.42 459.243 1579.79 464.396 1522.11 469.368C1465.36 474.261 1406.69 479.323 1308.99 459.752C1211.3 440.18 1170.54 415.207 1131.11 391.048C1091.06 366.493 1049.62 341.113 950.114 321.18C850.606 301.247 790.974 306.4 733.294 311.372C676.548 316.264 617.873 321.327 520.178 301.755C422.483 282.184 381.709 257.211 342.299 233.051C302.227 208.496 260.809 183.117 161.3 163.183C80.7845 147.058 26.3795 147.352 -22 150.674V155.228C25.7555 151.906 79.3805 151.556 158.746 167.455C256.441 187.026 297.215 211.999 336.625 236.159C376.697 260.714 418.115 286.093 517.624 306.027C617.132 325.96 676.763 320.818 734.444 315.835C791.189 310.942 849.865 305.88 947.56 325.451C1045.25 345.023 1086.01 369.996 1125.44 394.155C1165.51 418.71 1206.93 444.09 1306.44 464.023C1405.95 483.956 1465.58 478.804 1523.26 473.832C1580 468.939 1638.68 463.876 1736.37 483.448C1834.07 503.02 1874.82 527.993 1914.25 552.152C1918.8 554.932 1923.34 557.723 1928 560.514V553.983C1925.29 552.333 1922.6 550.694 1919.93 549.044Z" fill="#525154"/>
<path d="M1891.59 566.537C1851.66 541.745 1810.38 516.116 1710.87 496.183C1611.36 476.25 1551.57 481.64 1493.75 486.849C1436.89 491.98 1378.06 497.268 1280.39 477.708C1182.69 458.147 1142.09 432.926 1102.8 408.54C1062.86 383.748 1021.58 358.12 922.073 338.187C822.565 318.253 762.778 323.643 704.96 328.853C648.079 333.983 589.267 339.271 491.591 319.711C393.896 300.139 353.278 274.929 314.005 250.544C274.069 225.752 232.787 200.123 133.259 180.19C67.9731 167.116 19.7886 164.935 -21.9609 166.449V170.992C19.1451 169.478 66.5301 171.602 130.724 184.461C228.419 204.033 269.038 229.243 308.311 253.629C348.247 278.41 389.528 304.049 489.056 323.982C588.565 343.916 648.352 338.526 706.169 333.316C763.051 328.197 821.863 322.898 919.538 342.458C1017.23 362.03 1057.83 387.24 1097.12 411.625C1137.06 436.406 1178.34 462.046 1277.85 481.979C1377.38 501.912 1437.17 496.522 1494.98 491.313C1551.86 486.183 1610.68 480.894 1708.35 500.455C1806.03 520.015 1846.65 545.236 1885.92 569.611C1899.12 577.803 1912.48 586.086 1928.02 594.233V588.075C1914.84 580.933 1903.16 573.69 1891.61 566.526L1891.59 566.537Z" fill="#525154"/>
<path d="M1863.26 584.029C1823.46 559.011 1782.32 533.134 1682.79 513.201C1583.26 493.268 1523.32 498.895 1465.36 504.33C1408.34 509.686 1349.4 515.212 1251.74 495.652C1154.06 476.092 1113.6 450.644 1074.47 426.033C1034.67 401.014 993.521 375.137 893.993 355.204C794.465 335.271 734.522 340.898 676.568 346.334C619.55 351.69 560.602 357.216 462.946 337.655C365.27 318.095 324.788 292.647 285.652 268.036C245.852 243.018 204.707 217.141 105.179 197.208C54.0305 186.958 13.3535 183.478 -21.9805 183.241V187.783C12.6905 188.032 52.568 191.456 102.625 201.479C200.3 221.039 240.782 246.487 279.919 271.098C319.718 296.116 360.863 321.993 460.391 341.927C559.919 361.86 619.862 356.232 677.816 350.797C734.815 345.441 793.763 339.915 891.438 359.476C989.114 379.036 1029.58 404.483 1068.73 429.095C1108.53 454.113 1149.68 479.99 1249.2 499.923C1348.73 519.856 1408.68 514.229 1466.63 508.794C1523.63 503.438 1582.58 497.912 1680.25 517.472C1777.93 537.032 1818.39 562.48 1857.53 587.091C1878.04 599.996 1898.94 613.127 1928 625.545V619.861C1901.77 608.234 1882.35 596.03 1863.26 584.029Z" fill="#525154"/>
<path d="M1834.93 601.533C1795.26 576.278 1754.27 550.163 1654.73 530.219C1555.18 510.286 1495.1 516.15 1436.99 521.823C1379.86 527.405 1320.77 533.179 1223.09 513.619C1125.44 494.059 1085.11 468.374 1046.11 443.536C1006.45 418.281 965.441 392.167 865.913 372.222C766.366 352.289 706.286 358.154 648.176 363.826C591.041 369.408 531.956 375.183 434.281 355.622C336.625 336.062 296.298 310.377 257.298 285.54C217.635 260.284 176.627 234.17 77.0795 214.226C38.957 206.587 6.6455 202.745 -22 201.219V205.784C5.963 207.31 37.4555 211.073 74.5445 218.497C172.201 238.057 212.527 263.742 251.527 288.58C291.19 313.835 332.198 339.949 431.746 359.894C531.293 379.838 591.373 373.962 649.483 368.29C706.618 362.708 765.703 356.933 863.378 376.494C961.034 396.054 1001.36 421.739 1040.36 446.576C1080.02 471.832 1121.03 497.946 1220.56 517.89C1320.11 537.824 1380.19 531.959 1438.3 526.286C1495.43 520.704 1554.52 514.93 1652.17 534.49C1749.83 554.05 1790.15 579.735 1829.15 604.573C1855.73 621.511 1882.97 638.823 1928 654.406V649.095C1886.17 634.156 1860.26 617.658 1834.93 601.522V601.533Z" fill="#525154"/>
<path d="M1928 676.215C1868.53 658.96 1837.13 638.733 1806.59 619.014C1767.07 593.521 1726.21 567.158 1626.65 547.225C1527.1 527.281 1466.86 533.394 1408.62 539.304C1351.35 545.112 1292.12 551.124 1194.47 531.563C1096.81 512.003 1056.64 486.081 1017.78 461.018C978.252 435.525 937.4 409.162 837.833 389.229C738.286 369.284 678.05 375.397 619.804 381.307C562.532 387.115 503.31 393.127 405.655 373.567C307.999 354.006 267.828 328.084 228.965 303.021C189.438 277.528 148.566 251.165 49.019 231.221C22.85 225.977 -0.589001 222.554 -22 220.429V225.028C-1.3105 227.119 21.29 230.441 46.4645 235.492C144.121 255.052 184.291 280.975 223.154 306.038C262.681 331.531 303.553 357.894 403.1 377.827C502.648 397.771 562.883 391.658 621.13 385.748C678.401 379.94 737.622 373.928 835.279 393.489C932.935 413.049 973.104 438.971 1011.97 464.035C1051.49 489.527 1092.35 515.89 1191.91 535.823C1291.46 555.768 1351.7 549.655 1409.94 543.745C1467.22 537.937 1526.44 531.925 1624.09 551.485C1721.75 571.046 1761.92 596.956 1800.78 622.031C1830.54 641.23 1861.08 660.914 1916.85 677.989H1927.98V676.203L1928 676.215Z" fill="#525154"/>
<path d="M1778.24 636.518C1738.85 610.788 1698.13 584.187 1598.57 564.243C1499 544.298 1438.63 550.649 1380.23 556.796C1322.82 562.83 1263.46 569.079 1165.82 549.519C1068.19 529.959 1028.15 503.811 989.426 478.521C950.036 452.791 909.32 426.191 809.753 406.246C710.186 386.302 649.795 392.652 591.412 398.8C534.004 404.834 474.645 411.083 377.009 391.522C279.372 371.962 239.339 345.814 200.612 320.525C161.222 294.794 120.506 268.194 20.9195 248.25C5.72897 245.21 -8.52553 242.792 -22.0195 240.871V245.538C-9.28603 247.368 4.12997 249.662 18.365 252.521C116.001 272.081 156.035 298.23 194.762 323.519C234.152 349.249 274.868 375.849 374.454 395.794C474.021 415.738 534.413 409.388 592.796 403.241C650.204 397.206 709.562 390.957 807.199 410.518C904.835 430.078 944.869 456.226 983.596 481.516C1022.99 507.246 1063.7 533.846 1163.27 553.79C1262.84 573.735 1323.21 567.384 1381.61 561.237C1439.02 555.203 1498.38 548.954 1596.01 568.514C1693.65 588.075 1733.68 614.223 1772.39 639.512C1792.18 652.439 1812.31 665.581 1840.06 677.989H1853.2C1821.47 664.734 1799.65 650.496 1778.24 636.506V636.518Z" fill="#525154"/>
<path d="M1749.91 654.021C1710.65 628.065 1670.07 601.216 1570.51 581.272C1470.92 561.327 1410.39 567.927 1351.87 574.3C1294.35 580.571 1234.83 587.046 1137.22 567.497C1039.6 547.948 999.703 521.551 961.132 496.036C921.878 470.08 881.299 443.231 781.712 423.287C682.126 403.342 621.598 409.93 563.059 416.315C505.514 422.586 446.02 429.061 348.402 409.512C250.766 389.963 210.889 363.566 172.298 338.051C133.045 312.083 92.465 285.246 -7.1215 265.301C-12.1915 264.284 -17.125 263.358 -22 262.476V267.211C-17.944 267.957 -13.8685 268.725 -9.676 269.561C87.941 289.11 127.838 315.507 166.428 341.023C205.682 366.99 246.262 393.828 345.848 413.783C445.415 433.728 505.962 427.129 564.501 420.755C622.046 414.484 681.541 408.009 779.158 427.558C876.775 447.107 916.672 473.504 955.242 499.019C994.496 524.975 1035.08 551.824 1134.66 571.769C1234.23 591.713 1294.78 585.125 1353.32 578.741C1410.86 572.469 1470.35 565.994 1567.97 585.543C1665.59 605.092 1705.49 631.478 1744.06 657.004C1754.63 663.988 1765.29 671.039 1777.17 678.011H1788.26C1774.2 670.09 1762 662.022 1749.93 654.033L1749.91 654.021Z" fill="#525154"/>
<path d="M1542.43 598.278C1442.84 578.334 1382.16 585.17 1323.48 591.781C1265.8 598.278 1206.17 604.991 1108.57 585.442C1010.95 565.893 971.213 539.27 932.779 513.517C893.661 487.324 853.219 460.226 753.632 440.282C654.046 420.337 593.362 427.174 534.686 433.784C477.025 440.282 417.374 446.994 319.777 427.445C222.16 407.896 182.419 381.273 143.965 355.521C106.622 330.514 68.051 304.704 -21.9805 285.054V289.89C64.2875 309.078 101.767 334.164 138.076 358.481C177.193 384.675 217.636 411.772 317.222 431.716C416.809 451.661 477.492 444.824 536.168 438.214C593.829 431.716 653.48 425.004 751.078 444.553C848.695 464.102 888.435 490.725 926.87 516.478C965.987 542.671 1006.43 569.768 1106.02 589.713C1205.6 609.658 1266.29 602.821 1324.96 596.21C1382.64 589.713 1442.27 583.001 1539.87 602.55C1637.49 622.099 1677.23 648.722 1715.66 674.474C1717.42 675.65 1719.17 676.825 1720.95 678H1731.3C1728.03 675.83 1724.79 673.672 1721.57 671.514C1682.46 645.32 1642.01 618.223 1542.43 598.278Z" fill="#525154"/>
<path d="M1514.37 615.296C1414.76 595.341 1353.94 602.426 1295.11 609.262C1237.31 615.986 1177.54 622.946 1079.94 603.397C982.347 583.848 942.743 556.988 904.445 531.021C865.465 504.59 825.158 477.256 725.552 457.3C625.946 437.355 565.126 444.429 506.294 451.277C448.496 458 388.729 464.95 291.131 445.412C193.534 425.863 153.929 399.003 115.631 373.036C82.5395 350.594 48.473 327.508 -21.9805 308.84V313.835C44.807 331.983 77.723 354.289 109.703 375.974C148.684 402.404 188.99 429.739 288.596 449.695C388.202 469.639 449.023 462.566 507.854 455.729C565.652 449.006 625.419 442.045 723.017 461.594C820.615 481.143 860.219 508.003 898.517 533.97C937.498 560.401 977.804 587.736 1077.41 607.68C1177.02 627.636 1237.84 620.551 1296.67 613.714C1354.47 606.991 1414.23 600.03 1511.83 619.579C1592.02 635.636 1633.04 656.632 1666.37 678.011H1676.84C1641.99 655.163 1600.21 632.495 1514.39 615.308L1514.37 615.296Z" fill="#525154"/>
<path d="M1266.74 626.754C1208.8 633.704 1148.9 640.902 1051.3 621.353C953.721 601.804 914.254 574.718 876.092 548.513C837.248 521.845 797.098 494.273 697.472 474.317C597.846 454.362 536.87 461.684 477.922 468.758C419.987 475.707 360.083 482.905 262.486 463.356C164.888 443.807 125.439 416.71 87.278 390.517C59.0225 371.115 30.0455 351.238 -22 334.164V339.407C26.555 355.86 54.284 374.877 81.311 393.443C120.155 420.111 160.325 447.683 259.931 467.639C359.537 487.595 420.514 480.273 479.482 473.199C537.416 466.249 597.32 459.051 694.917 478.6C792.495 498.149 831.964 525.235 870.125 551.44C908.969 578.108 949.119 605.68 1048.74 625.636C1148.35 645.592 1209.33 638.269 1268.3 631.195C1326.23 624.246 1386.13 617.048 1483.71 636.597C1542.13 648.304 1579.73 662.711 1608.67 678.011H1620.11C1589.77 661.14 1550.3 645.151 1486.25 632.325C1386.64 612.37 1325.66 619.692 1266.7 626.766L1266.74 626.754Z" fill="#525154"/>
<path d="M1238.36 644.247C1180.29 651.434 1120.25 658.858 1022.67 639.309C925.095 619.76 885.784 592.436 847.759 566.006C809.051 539.1 769.037 511.28 669.412 491.324C569.786 471.368 508.654 478.928 449.549 486.239C391.478 493.426 331.438 500.85 233.86 481.301C136.282 461.752 96.9695 434.429 58.9445 407.998C36.305 392.268 13.1975 376.222 -22 361.611V367.239C10.019 381.059 31.703 396.11 52.958 410.891C91.6655 437.796 131.68 465.617 231.325 485.572C330.95 505.528 392.083 497.968 451.187 490.657C509.258 483.471 569.298 476.046 666.877 495.595C764.455 515.133 803.767 542.468 841.792 568.899C880.499 595.804 920.513 623.624 1020.14 643.58C1119.76 663.536 1180.9 655.976 1240 648.665C1298.07 641.478 1358.11 634.054 1455.69 653.603C1491.73 660.824 1519.79 669.096 1542.8 678H1556.54C1531.41 667.491 1500.09 657.717 1458.23 649.332C1358.6 629.376 1297.47 636.936 1238.36 644.247Z" fill="#525154"/>
<path d="M1209.97 661.728C1151.76 669.141 1091.59 676.802 994.028 657.265C896.469 637.727 857.294 610.166 819.405 583.509C780.834 556.367 740.957 528.309 641.312 508.353C541.667 488.397 480.398 496.194 421.137 503.743C362.93 511.156 302.753 518.817 205.194 499.279C107.636 479.742 68.4604 452.17 30.5719 425.513C14.6404 414.303 -1.52506 402.935 -22.0391 392.042V398.257C-4.27456 408.111 10.2334 418.315 24.5464 428.383C63.1174 455.526 102.995 483.584 202.64 503.539C302.285 523.495 363.554 515.698 422.814 508.15C481.002 500.737 541.199 493.076 638.757 512.613C736.316 532.151 775.491 559.712 813.38 586.368C851.951 613.511 891.828 641.569 991.473 661.525C1091.12 681.48 1152.39 673.683 1211.63 666.135C1269.84 658.722 1330.01 651.061 1427.57 670.599C1439.31 672.949 1450.17 675.412 1460.31 677.989H1478.93C1464.41 673.876 1448.26 669.966 1430.11 666.327C1330.46 646.371 1269.19 654.168 1209.93 661.717L1209.97 661.728Z" fill="#525154"/>
<path d="M965.402 675.22C867.843 655.682 828.824 627.884 791.091 601.002C752.657 573.633 712.916 545.327 613.271 525.36C513.626 505.404 452.201 513.449 392.804 521.224C334.48 528.863 274.147 536.761 176.608 517.224C79.049 497.686 40.0295 469.888 2.27753 443.005C-5.58097 437.4 -13.5175 431.762 -21.9805 426.168V433.084C-15.721 437.344 -9.73447 441.615 -3.76747 445.864C34.667 473.233 74.408 501.539 174.053 521.506C273.718 541.473 335.123 533.417 394.52 525.642C452.845 518.003 513.177 510.105 610.716 529.642C708.275 549.18 747.294 576.978 785.027 603.861C822.506 630.563 861.272 658.146 955.613 678H980.086C975.269 677.141 970.394 676.226 965.383 675.22H965.402Z" fill="#525154"/>
<path d="M1190.98 678H1231.03C1261.74 675.118 1295.28 673.988 1335.92 678H1372.06C1294.47 665.852 1241.33 671.48 1190.98 678Z" fill="#525154"/>
<path d="M762.758 618.494C724.46 590.888 684.875 562.333 585.211 542.377C485.546 522.41 423.985 530.704 364.432 538.716C305.971 546.581 245.521 554.717 147.982 535.191C53.9525 516.353 14.426 489.629 -21.9805 463.436V470.622C13.568 495.889 54.4985 521.246 145.427 539.462C245.092 559.429 306.653 551.135 366.206 543.123C424.667 535.258 485.136 527.122 582.675 546.649C680.214 566.186 719.097 594.222 756.693 621.33C783.798 640.879 811.605 660.892 860.862 678H876.657C820.946 660.417 791.462 639.196 762.758 618.494Z" fill="#525154"/>
<path d="M734.405 635.998C696.244 608.155 656.795 579.362 557.111 559.395C457.427 539.428 395.729 547.96 336.04 556.209C277.442 564.311 216.856 572.673 119.317 553.146C48.6095 538.987 8.81 520.229 -22 500.579V507.246C8.6735 526.015 48.668 543.779 116.781 557.418C216.446 577.385 278.163 568.853 337.853 560.604C396.451 552.514 457.037 544.14 554.576 563.667C652.096 583.204 690.842 611.466 728.302 638.812C746.398 652.01 764.786 665.423 789.727 678H801.914C773.698 664.655 753.866 650.202 734.405 635.998Z" fill="#525154"/>
<path d="M529.051 576.413C429.367 556.446 367.493 565.215 307.667 573.701C248.933 582.029 188.21 590.64 90.6905 571.102C39.815 560.909 4.988 548.276 -22 534.603V540.592C4.832 553.576 39.2105 565.576 88.136 575.373C187.82 595.341 249.694 586.572 309.52 578.085C368.254 569.757 428.977 561.147 526.496 580.684C624.016 600.222 662.606 628.721 699.929 656.281C709.718 663.513 719.605 670.813 730.583 678H741.113C728.321 669.921 717.128 661.66 706.052 653.49C668.027 625.41 628.715 596.38 529.031 576.413H529.051Z" fill="#525154"/>
<path d="M500.97 593.431C401.267 573.464 339.257 582.47 279.294 591.193C220.424 599.747 159.564 608.595 62.0645 589.069C27.452 582.142 0.327499 574.04 -22 565.249V570.718C-0.0625 579.035 26.36 586.707 59.51 593.34C159.194 613.307 221.223 604.301 281.186 595.578C340.056 587.024 400.916 578.176 498.416 597.702C595.916 617.229 634.37 645.964 671.557 673.762C673.448 675.175 675.339 676.587 677.25 678H687.156C683.978 675.661 680.858 673.322 677.738 670.983C639.849 642.665 600.674 613.387 500.99 593.419L500.97 593.431Z" fill="#525154"/>
<path d="M472.91 610.437C373.206 590.47 311.04 599.714 250.922 608.663C191.935 617.443 130.919 626.528 33.419 607.002C12.3785 602.787 -5.893 598.132 -22 593.137V598.256C-6.4585 602.923 10.9745 607.285 30.884 611.273C130.587 631.241 192.754 621.986 252.872 613.036C311.879 604.256 372.875 595.171 470.375 614.697C552.548 631.161 592.679 654.326 625.439 677.977H635.404C601.22 652.846 560.445 627.952 472.91 610.415V610.437Z" fill="#525154"/>
<path d="M444.83 627.455C345.107 607.477 282.805 616.98 222.549 626.156C163.426 635.162 102.273 644.484 4.793 624.958C-4.684 623.059 -13.5955 621.059 -22 618.991V623.896C-14.317 625.737 -6.283 627.523 2.258 629.229C101.981 649.208 164.283 639.704 224.538 630.529C283.662 621.523 344.814 612.2 442.295 631.726C504.286 644.145 542.291 660.485 571.229 678H581.954C551.748 658.903 512.163 640.947 444.83 627.455Z" fill="#525154"/>
<path d="M194.177 643.648C132.576 653.253 74.369 662.316 -22 643.275V648.032C75.1685 666.847 136.691 657.287 196.205 648.01C258.195 638.348 316.754 629.218 414.215 648.744C455.925 657.095 486.423 667.039 510.701 678H522.869C496.778 665.378 463.452 653.829 416.75 644.473C317.027 624.495 254.568 634.235 194.157 643.648H194.177Z" fill="#525154"/>
<path d="M165.805 661.14C110.444 669.966 57.7745 678.339 -22 666.248V670.892C59.1005 682.825 114.305 674.045 167.872 665.502C229.999 655.603 288.674 646.247 386.135 665.762C404.933 669.525 421.449 673.627 436.152 678H452.279C434.203 671.988 413.318 666.417 388.69 661.491C288.947 641.512 226.352 651.49 165.805 661.14Z" fill="#525154"/>
<path d="M141.293 678H171.206C217.031 671.288 264.864 667.502 331.437 678H357.996C261.881 659.14 200.261 668.418 141.293 678Z" fill="#525154"/>
</g>
</g>
<defs>
<clipPath id="clip0_1_617">
<rect width="1950" height="678" fill="white" transform="translate(-22)"/>
</clipPath>
</defs>
</svg>
